M48
;Layer_Color=9474304
;FILE_FORMAT=2:4
INCH,LZ
;TYPE=PLATED
T01F00S00C0.0118
T03F00S00C0.0350
T04F00S00C0.0354
T05F00S00C0.0394
T06F00S00C0.0984
;TYPE=NON_PLATED
T07F00S00C0.1181
%
T01
X0016Y0024
X00398Y00239
Y00287
X005Y00145
X0048Y0008
X0056
X0092Y0016
X0084Y0048
X0076
X008Y0056
X0072
X00568Y00565
X0048Y0056
X005343Y00798
X0084Y008
X0092
X01
X0108
X01051Y0074
X0096Y0072
X0088
Y0088
X0096
X0104
X012
X0128
X0132Y008
X0136Y0072
X0128
X01275Y00599
Y00554
X01212
X01191Y00579
X01174Y00521
X01203Y00411
X01247
X01395Y00462
X01423Y00495
X01455Y00518
X01486Y00495
X0152Y0056
X01548Y00625
X01536Y00662
X0148Y0064
X014
X01478Y00791
X01536Y00837
X0152Y0008
X0144
X0136
X0128
Y0024
X00794Y00873
X0008Y0088
X0012Y0064
X002
X01615Y00632
X01587Y00574
X01733Y00637
X01712Y00724
X0159Y00837
X01563Y00817
X0196Y008
X0204
X0212
X022
X0228
X0236
X0244
X0248Y0072
X0256
X0264
X0272
X0276Y0064
X0292
X03
X0308
X0312Y0072
X0304
X0296
X0288
X0292Y008
X03
X0304Y0088
X0296
X0288
Y0056
X0304
Y004
X0312
X0308Y0032
Y0016
X03
X0292
X0284
X0288Y0008
X0296
X0304
X0312
X028
X0256
X0248
X024
X0232
X0224
X0216
X0192
X0184
X0179Y00294
X016937Y00288
X016524Y003414
X01675Y00397
X0184Y004
Y0056
X0216
X0224
X0232
X0236Y0064
X0244
X0252
X026
X0256Y0056
X0248
X0252Y0048
X026
X0244
X0236
X0228
X022
X02179Y00399
X022Y0064
X0228
X0232Y0072
X0224
X0216
X0208
X01963Y00297
Y00241
X0232Y0024
X024
X0248
X0256
X02567Y0032
X0252
X02533Y00359
X0244Y0032
X0241Y00336
X0276Y0032
X0284
X0288Y004
X028
X02932Y00369
X01567Y00252
X032Y0024
X0328
X0324Y0016
X0316
X032Y0008
X0328
X0316Y0032
X032Y004
X0324Y0048
X03198Y00685
X03171Y0071
X0328Y0072
X0324Y008
X0328Y0088
T03
X00898Y00067
X00998
X01098
X01198
X03281Y0034
Y0044
Y0054
Y0064
T04
X0068Y00066
X0078
T05
X00097Y00147
Y00447
X02802Y00777
Y00877
X03102
Y00777
T06
X003093Y0049
X031557
T07
X0064Y0049
X02825
M30
