G04*
G04 #@! TF.GenerationSoftware,Altium Limited,Altium Designer,24.1.2 (44)*
G04*
G04 Layer_Color=128*
%FSTAX24Y24*%
%MOIN*%
G70*
G04*
G04 #@! TF.SameCoordinates,D42F5CEB-65A2-4495-9315-5EDE3D0C892D*
G04*
G04*
G04 #@! TF.FilePolarity,Positive*
G04*
G01*
G75*
%ADD90C,0.0050*%
D90*
X002601Y0049D02*
X003585D01*
X003093Y004408D02*
Y005392D01*
X031065Y0049D02*
X03205D01*
X031557Y004408D02*
Y005392D01*
X005809Y0049D02*
X006991D01*
X0064Y004309D02*
Y005491D01*
X02766Y0049D02*
X028841D01*
X02825Y004309D02*
Y005491D01*
X011805Y00067D02*
X012155D01*
X01198Y000495D02*
Y000845D01*
X010805Y00067D02*
X011155D01*
X01098Y000495D02*
Y000845D01*
X009805Y00067D02*
X010155D01*
X00998Y000495D02*
Y000845D01*
X008805Y00067D02*
X009155D01*
X00898Y000495D02*
Y000845D01*
X007623Y00066D02*
X007977D01*
X0078Y000483D02*
Y000837D01*
X006623Y00066D02*
X006977D01*
X0068Y000483D02*
Y000837D01*
X001014Y009414D02*
X001251D01*
X001133Y009296D02*
Y009532D01*
X00251Y009414D02*
X002747D01*
X002629Y009296D02*
Y009532D01*
X001014Y006012D02*
X001251D01*
X001132Y005894D02*
Y00613D01*
X00251Y006012D02*
X002747D01*
X002629Y005894D02*
Y00613D01*
X030823Y00877D02*
X031217D01*
X03102Y008573D02*
Y008967D01*
X030823Y00777D02*
X031217D01*
X03102Y007573D02*
Y007967D01*
X027823Y00777D02*
X028217D01*
X02802Y007573D02*
Y007967D01*
X027823Y00877D02*
X028217D01*
X02802Y008573D02*
Y008967D01*
X000773Y00447D02*
X001167D01*
X00097Y004273D02*
Y004667D01*
X000773Y00147D02*
X001167D01*
X00097Y001273D02*
Y001667D01*
X032635Y0034D02*
X032985D01*
X03281Y003225D02*
Y003575D01*
X032635Y0044D02*
X032985D01*
X03281Y004225D02*
Y004575D01*
X032635Y0054D02*
X032985D01*
X03281Y005225D02*
Y005575D01*
X032635Y0064D02*
X032985D01*
X03281Y006225D02*
Y006575D01*
X011681Y00521D02*
X011799D01*
X01174Y005151D02*
Y005269D01*
X013891Y00462D02*
X014009D01*
X01395Y004561D02*
Y004679D01*
X016878Y00288D02*
X016996D01*
X016937Y002821D02*
Y002939D01*
X017841Y00294D02*
X017959D01*
X0179Y002881D02*
Y002999D01*
X005284Y00798D02*
X005402D01*
X005343Y007921D02*
Y008039D01*
X032741Y0088D02*
X032859D01*
X0328Y008741D02*
Y008859D01*
X032741Y0072D02*
X032859D01*
X0328Y007141D02*
Y007259D01*
X032741Y0024D02*
X032859D01*
X0328Y002341D02*
Y002459D01*
X032741Y0008D02*
X032859D01*
X0328Y000741D02*
Y000859D01*
X032341Y008D02*
X032459D01*
X0324Y007941D02*
Y008059D01*
X032341Y0048D02*
X032459D01*
X0324Y004741D02*
Y004859D01*
X031941Y004D02*
X032059D01*
X032Y003941D02*
Y004059D01*
X031941Y0024D02*
X032059D01*
X032Y002341D02*
Y002459D01*
X032341Y0016D02*
X032459D01*
X0324Y001541D02*
Y001659D01*
X031941Y0008D02*
X032059D01*
X032Y000741D02*
Y000859D01*
X031141Y0072D02*
X031259D01*
X0312Y007141D02*
Y007259D01*
X031141Y004D02*
X031259D01*
X0312Y003941D02*
Y004059D01*
X031541Y0032D02*
X031659D01*
X0316Y003141D02*
Y003259D01*
X031541Y0016D02*
X031659D01*
X0316Y001541D02*
Y001659D01*
X031141Y0008D02*
X031259D01*
X0312Y000741D02*
Y000859D01*
X030341Y0088D02*
X030459D01*
X0304Y008741D02*
Y008859D01*
X030341Y0072D02*
X030459D01*
X0304Y007141D02*
Y007259D01*
X030741Y0064D02*
X030859D01*
X0308Y006341D02*
Y006459D01*
X030341Y0056D02*
X030459D01*
X0304Y005541D02*
Y005659D01*
X030341Y004D02*
X030459D01*
X0304Y003941D02*
Y004059D01*
X030741Y0032D02*
X030859D01*
X0308Y003141D02*
Y003259D01*
X030741Y0016D02*
X030859D01*
X0308Y001541D02*
Y001659D01*
X030341Y0008D02*
X030459D01*
X0304Y000741D02*
Y000859D01*
X029541Y0088D02*
X029659D01*
X0296Y008741D02*
Y008859D01*
X029941Y008D02*
X030059D01*
X03Y007941D02*
Y008059D01*
X029541Y0072D02*
X029659D01*
X0296Y007141D02*
Y007259D01*
X029941Y0064D02*
X030059D01*
X03Y006341D02*
Y006459D01*
X029941Y0016D02*
X030059D01*
X03Y001541D02*
Y001659D01*
X029541Y0008D02*
X029659D01*
X0296Y000741D02*
Y000859D01*
X028741Y0088D02*
X028859D01*
X0288Y008741D02*
Y008859D01*
X029141Y008D02*
X029259D01*
X0292Y007941D02*
Y008059D01*
X028741Y0072D02*
X028859D01*
X0288Y007141D02*
Y007259D01*
X029141Y0064D02*
X029259D01*
X0292Y006341D02*
Y006459D01*
X028741Y0056D02*
X028859D01*
X0288Y005541D02*
Y005659D01*
X028741Y004D02*
X028859D01*
X0288Y003941D02*
Y004059D01*
X029141Y0016D02*
X029259D01*
X0292Y001541D02*
Y001659D01*
X028741Y0008D02*
X028859D01*
X0288Y000741D02*
Y000859D01*
X027941Y004D02*
X028059D01*
X028Y003941D02*
Y004059D01*
X028341Y0032D02*
X028459D01*
X0284Y003141D02*
Y003259D01*
X028341Y0016D02*
X028459D01*
X0284Y001541D02*
Y001659D01*
X027941Y0008D02*
X028059D01*
X028Y000741D02*
Y000859D01*
X027141Y0072D02*
X027259D01*
X0272Y007141D02*
Y007259D01*
X027541Y0064D02*
X027659D01*
X0276Y006341D02*
Y006459D01*
X027541Y0032D02*
X027659D01*
X0276Y003141D02*
Y003259D01*
X026341Y0072D02*
X026459D01*
X0264Y007141D02*
Y007259D01*
X025541Y0072D02*
X025659D01*
X0256Y007141D02*
Y007259D01*
X025941Y0064D02*
X026059D01*
X026Y006341D02*
Y006459D01*
X025541Y0056D02*
X025659D01*
X0256Y005541D02*
Y005659D01*
X025941Y0048D02*
X026059D01*
X026Y004741D02*
Y004859D01*
X025541Y0024D02*
X025659D01*
X0256Y002341D02*
Y002459D01*
X025541Y0008D02*
X025659D01*
X0256Y000741D02*
Y000859D01*
X024741Y0072D02*
X024859D01*
X0248Y007141D02*
Y007259D01*
X025141Y0064D02*
X025259D01*
X0252Y006341D02*
Y006459D01*
X024741Y0056D02*
X024859D01*
X0248Y005541D02*
Y005659D01*
X025141Y0048D02*
X025259D01*
X0252Y004741D02*
Y004859D01*
X025141Y0032D02*
X025259D01*
X0252Y003141D02*
Y003259D01*
X024741Y0024D02*
X024859D01*
X0248Y002341D02*
Y002459D01*
X024741Y0008D02*
X024859D01*
X0248Y000741D02*
Y000859D01*
X024341Y008D02*
X024459D01*
X0244Y007941D02*
Y008059D01*
X024341Y0064D02*
X024459D01*
X0244Y006341D02*
Y006459D01*
X024341Y0048D02*
X024459D01*
X0244Y004741D02*
Y004859D01*
X024341Y0032D02*
X024459D01*
X0244Y003141D02*
Y003259D01*
X023941Y0024D02*
X024059D01*
X024Y002341D02*
Y002459D01*
X023941Y0008D02*
X024059D01*
X024Y000741D02*
Y000859D01*
X023541Y008D02*
X023659D01*
X0236Y007941D02*
Y008059D01*
X023141Y0072D02*
X023259D01*
X0232Y007141D02*
Y007259D01*
X023541Y0064D02*
X023659D01*
X0236Y006341D02*
Y006459D01*
X023141Y0056D02*
X023259D01*
X0232Y005541D02*
Y005659D01*
X023541Y0048D02*
X023659D01*
X0236Y004741D02*
Y004859D01*
X023141Y0024D02*
X023259D01*
X0232Y002341D02*
Y002459D01*
X023141Y0008D02*
X023259D01*
X0232Y000741D02*
Y000859D01*
X022741Y008D02*
X022859D01*
X0228Y007941D02*
Y008059D01*
X022341Y0072D02*
X022459D01*
X0224Y007141D02*
Y007259D01*
X022741Y0064D02*
X022859D01*
X0228Y006341D02*
Y006459D01*
X022341Y0056D02*
X022459D01*
X0224Y005541D02*
Y005659D01*
X022741Y0048D02*
X022859D01*
X0228Y004741D02*
Y004859D01*
X022341Y0008D02*
X022459D01*
X0224Y000741D02*
Y000859D01*
X021941Y008D02*
X022059D01*
X022Y007941D02*
Y008059D01*
X021541Y0072D02*
X021659D01*
X0216Y007141D02*
Y007259D01*
X021941Y0064D02*
X022059D01*
X022Y006341D02*
Y006459D01*
X021541Y0056D02*
X021659D01*
X0216Y005541D02*
Y005659D01*
X021941Y0048D02*
X022059D01*
X022Y004741D02*
Y004859D01*
X021541Y0008D02*
X021659D01*
X0216Y000741D02*
Y000859D01*
X021141Y008D02*
X021259D01*
X0212Y007941D02*
Y008059D01*
X020741Y0072D02*
X020859D01*
X0208Y007141D02*
Y007259D01*
X020341Y008D02*
X020459D01*
X0204Y007941D02*
Y008059D01*
X019541Y008D02*
X019659D01*
X0196Y007941D02*
Y008059D01*
X019141Y0008D02*
X019259D01*
X0192Y000741D02*
Y000859D01*
X018341Y0056D02*
X018459D01*
X0184Y005541D02*
Y005659D01*
X018341Y004D02*
X018459D01*
X0184Y003941D02*
Y004059D01*
X018341Y0008D02*
X018459D01*
X0184Y000741D02*
Y000859D01*
X015141Y0056D02*
X015259D01*
X0152Y005541D02*
Y005659D01*
X015141Y0008D02*
X015259D01*
X0152Y000741D02*
Y000859D01*
X014741Y0064D02*
X014859D01*
X0148Y006341D02*
Y006459D01*
X014341Y0008D02*
X014459D01*
X0144Y000741D02*
Y000859D01*
X013541Y0072D02*
X013659D01*
X0136Y007141D02*
Y007259D01*
X013941Y0064D02*
X014059D01*
X014Y006341D02*
Y006459D01*
X013541Y0008D02*
X013659D01*
X0136Y000741D02*
Y000859D01*
X012741Y0088D02*
X012859D01*
X0128Y008741D02*
Y008859D01*
X013141Y008D02*
X013259D01*
X0132Y007941D02*
Y008059D01*
X012741Y0072D02*
X012859D01*
X0128Y007141D02*
Y007259D01*
X012741Y0024D02*
X012859D01*
X0128Y002341D02*
Y002459D01*
X012741Y0008D02*
X012859D01*
X0128Y000741D02*
Y000859D01*
X011941Y0088D02*
X012059D01*
X012Y008741D02*
Y008859D01*
X010341Y0088D02*
X010459D01*
X0104Y008741D02*
Y008859D01*
X010741Y008D02*
X010859D01*
X0108Y007941D02*
Y008059D01*
X009541Y0088D02*
X009659D01*
X0096Y008741D02*
Y008859D01*
X009941Y008D02*
X010059D01*
X01Y007941D02*
Y008059D01*
X009541Y0072D02*
X009659D01*
X0096Y007141D02*
Y007259D01*
X008741Y0088D02*
X008859D01*
X0088Y008741D02*
Y008859D01*
X009141Y008D02*
X009259D01*
X0092Y007941D02*
Y008059D01*
X008741Y0072D02*
X008859D01*
X0088Y007141D02*
Y007259D01*
X009141Y0016D02*
X009259D01*
X0092Y001541D02*
Y001659D01*
X008341Y008D02*
X008459D01*
X0084Y007941D02*
Y008059D01*
X007941Y0056D02*
X008059D01*
X008Y005541D02*
Y005659D01*
X008341Y0048D02*
X008459D01*
X0084Y004741D02*
Y004859D01*
X007141Y0056D02*
X007259D01*
X0072Y005541D02*
Y005659D01*
X007541Y0048D02*
X007659D01*
X0076Y004741D02*
Y004859D01*
X005541Y0008D02*
X005659D01*
X0056Y000741D02*
Y000859D01*
X004741Y0056D02*
X004859D01*
X0048Y005541D02*
Y005659D01*
X004741Y0008D02*
X004859D01*
X0048Y000741D02*
Y000859D01*
X001941Y0064D02*
X002059D01*
X002Y006341D02*
Y006459D01*
X001541Y0024D02*
X001659D01*
X0016Y002341D02*
Y002459D01*
X000741Y0088D02*
X000859D01*
X0008Y008741D02*
Y008859D01*
X001141Y0064D02*
X001259D01*
X0012Y006341D02*
Y006459D01*
X010451Y0074D02*
X010569D01*
X01051Y007341D02*
Y007459D01*
X007881Y00873D02*
X007999D01*
X00794Y008671D02*
Y008789D01*
X005621Y00565D02*
X005739D01*
X00568Y005591D02*
Y005709D01*
X004941Y00145D02*
X005059D01*
X005Y001391D02*
Y001509D01*
X003921Y00287D02*
X004039D01*
X00398Y002811D02*
Y002929D01*
X003921Y00239D02*
X004039D01*
X00398Y002331D02*
Y002449D01*
X011851Y00579D02*
X011969D01*
X01191Y005731D02*
Y005849D01*
X012691Y00554D02*
X012809D01*
X01275Y005481D02*
Y005599D01*
X012691Y00599D02*
X012809D01*
X01275Y005931D02*
Y006049D01*
X012061Y00554D02*
X012179D01*
X01212Y005481D02*
Y005599D01*
X031651Y0071D02*
X031769D01*
X03171Y007041D02*
Y007159D01*
X031921Y00685D02*
X032039D01*
X03198Y006791D02*
Y006909D01*
X014491Y00518D02*
X014609D01*
X01455Y005121D02*
Y005239D01*
X014801Y00495D02*
X014919D01*
X01486Y004891D02*
Y005009D01*
X029261Y00369D02*
X029379D01*
X02932Y003631D02*
Y003749D01*
X024041Y00336D02*
X024159D01*
X0241Y003301D02*
Y003419D01*
X015611Y00252D02*
X015729D01*
X01567Y002461D02*
Y002579D01*
X015301Y00662D02*
X015419D01*
X01536Y006561D02*
Y006679D01*
X019571Y00297D02*
X019689D01*
X01963Y002911D02*
Y003029D01*
X016691Y00397D02*
X016809D01*
X01675Y003911D02*
Y004029D01*
X015811Y00574D02*
X015929D01*
X01587Y005681D02*
Y005799D01*
X015571Y00817D02*
X015689D01*
X01563Y008111D02*
Y008229D01*
X015841Y00837D02*
X015959D01*
X0159Y008311D02*
Y008429D01*
X014721Y00791D02*
X014839D01*
X01478Y007851D02*
Y007969D01*
X015301Y00837D02*
X015419D01*
X01536Y008311D02*
Y008429D01*
X021731Y00399D02*
X021849D01*
X02179Y003931D02*
Y004049D01*
X019571Y00241D02*
X019689D01*
X01963Y002351D02*
Y002469D01*
X025611Y0032D02*
X025729D01*
X02567Y003141D02*
Y003259D01*
X025271Y00359D02*
X025389D01*
X02533Y003531D02*
Y003649D01*
X015421Y00625D02*
X015539D01*
X01548Y006191D02*
Y006309D01*
X016091Y00632D02*
X016209D01*
X01615Y006261D02*
Y006379D01*
X017061Y00724D02*
X017179D01*
X01712Y007181D02*
Y007299D01*
X017271Y00637D02*
X017389D01*
X01733Y006311D02*
Y006429D01*
X016465Y003414D02*
X016583D01*
X016524Y003355D02*
Y003473D01*
X014171Y00495D02*
X014289D01*
X01423Y004891D02*
Y005009D01*
X012411Y00411D02*
X012529D01*
X01247Y004051D02*
Y004169D01*
X011971Y00411D02*
X012089D01*
X01203Y004051D02*
Y004169D01*
M02*
