G04*
G04 #@! TF.GenerationSoftware,Altium Limited,Altium Designer,24.1.2 (44)*
G04*
G04 Layer_Physical_Order=1*
G04 Layer_Color=255*
%FSTAX24Y24*%
%MOIN*%
G70*
G04*
G04 #@! TF.SameCoordinates,D42F5CEB-65A2-4495-9315-5EDE3D0C892D*
G04*
G04*
G04 #@! TF.FilePolarity,Positive*
G04*
G01*
G75*
%ADD11C,0.0100*%
%ADD18R,0.0433X0.1102*%
%ADD19R,0.0492X0.0433*%
%ADD20R,0.0787X0.0591*%
%ADD21O,0.0591X0.0106*%
%ADD22O,0.0106X0.0591*%
%ADD23R,0.0866X0.0551*%
%ADD24R,0.0945X0.0748*%
%ADD43C,0.0630*%
%ADD48R,0.0446X0.0542*%
%ADD49R,0.0555X0.0531*%
%ADD50R,0.0800X0.0276*%
%ADD51R,0.0800X0.0299*%
%ADD52R,0.0800X0.0315*%
%ADD53R,0.0531X0.0555*%
%ADD54R,0.0542X0.0446*%
%ADD55C,0.0250*%
%ADD56C,0.1220*%
%ADD57C,0.1181*%
%ADD58C,0.0620*%
%ADD59R,0.0620X0.0620*%
%ADD60C,0.0591*%
%ADD61O,0.0669X0.0433*%
%ADD62C,0.0600*%
%ADD63R,0.0620X0.0620*%
%ADD64C,0.0236*%
%ADD65C,0.0250*%
G36*
X014922Y00937D02*
X014925Y009362D01*
X01493Y009355D01*
X014937Y009348D01*
X014946Y009342D01*
X014957Y009338D01*
X01497Y009334D01*
X014985Y009332D01*
X015003Y00933D01*
X015022Y00933D01*
Y00923D01*
X015003Y00923D01*
X014985Y009228D01*
X01497Y009226D01*
X014957Y009222D01*
X014946Y009218D01*
X014937Y009212D01*
X01493Y009205D01*
X014925Y009198D01*
X014922Y00919D01*
X014921Y00918D01*
Y00938D01*
X014922Y00937D01*
D02*
G37*
G36*
X01717Y008995D02*
X017172Y008978D01*
X017175Y008962D01*
X017178Y008949D01*
X017183Y008938D01*
X017188Y008929D01*
X017194Y008922D01*
X017202Y008917D01*
X017211Y008914D01*
X01722Y008913D01*
X01702D01*
X01703Y008914D01*
X017038Y008917D01*
X017046Y008922D01*
X017052Y008929D01*
X017057Y008938D01*
X017062Y008949D01*
X017066Y008962D01*
X017068Y008978D01*
X017069Y008995D01*
X01707Y009014D01*
X01717D01*
X01717Y008995D01*
D02*
G37*
G36*
X014003Y009009D02*
X013995Y009006D01*
X013987Y009001D01*
X013981Y008994D01*
X013975Y008985D01*
X013971Y008974D01*
X013967Y008961D01*
X013965Y008946D01*
X013963Y008929D01*
X013963Y00891D01*
X013863D01*
X013862Y008929D01*
X013861Y008946D01*
X013858Y008961D01*
X013855Y008974D01*
X01385Y008985D01*
X013845Y008994D01*
X013838Y009001D01*
X013831Y009006D01*
X013822Y009009D01*
X013813Y00901D01*
X014013D01*
X014003Y009009D01*
D02*
G37*
G36*
X013963Y008736D02*
X013965Y008719D01*
X013967Y008704D01*
X013971Y008691D01*
X013975Y00868D01*
X013981Y008671D01*
X013987Y008664D01*
X013995Y008659D01*
X014003Y008656D01*
X014013Y008655D01*
X013813D01*
X013822Y008656D01*
X013831Y008659D01*
X013838Y008664D01*
X013845Y008671D01*
X01385Y00868D01*
X013855Y008691D01*
X013858Y008704D01*
X013861Y008719D01*
X013862Y008736D01*
X013863Y008755D01*
X013963D01*
X013963Y008736D01*
D02*
G37*
G36*
X013715Y00829D02*
X013714Y008299D01*
X013711Y008308D01*
X013706Y008316D01*
X013699Y008322D01*
X01369Y008328D01*
X013678Y008332D01*
X013665Y008335D01*
X01365Y008338D01*
X013633Y008339D01*
X013614Y00834D01*
Y00844D01*
X013633Y00844D01*
X01365Y008442D01*
X013665Y008444D01*
X013678Y008448D01*
X01369Y008453D01*
X013699Y008458D01*
X013706Y008464D01*
X013711Y008472D01*
X013714Y00848D01*
X013715Y00849D01*
Y00829D01*
D02*
G37*
G36*
X017211Y008326D02*
X017202Y008323D01*
X017194Y008318D01*
X017188Y008311D01*
X017183Y008302D01*
X017178Y008291D01*
X017175Y008278D01*
X017172Y008262D01*
X01717Y008245D01*
X01717Y008226D01*
X01707D01*
X017069Y008245D01*
X017068Y008262D01*
X017066Y008278D01*
X017062Y008291D01*
X017057Y008302D01*
X017052Y008311D01*
X017046Y008318D01*
X017038Y008323D01*
X01703Y008326D01*
X01702Y008327D01*
X01722D01*
X017211Y008326D01*
D02*
G37*
G36*
X015976Y008279D02*
X015971Y008272D01*
X015966Y008264D01*
X015962Y008255D01*
X015958Y008246D01*
X015955Y008237D01*
X015953Y008226D01*
X015951Y008216D01*
X01595Y008204D01*
X01595Y008192D01*
X01585D01*
X01585Y008204D01*
X015849Y008216D01*
X015847Y008226D01*
X015845Y008237D01*
X015842Y008246D01*
X015838Y008255D01*
X015834Y008264D01*
X015829Y008272D01*
X015824Y008279D01*
X015817Y008286D01*
X015983D01*
X015976Y008279D01*
D02*
G37*
G36*
X015436D02*
X015431Y008272D01*
X015426Y008264D01*
X015422Y008255D01*
X015418Y008246D01*
X015415Y008237D01*
X015413Y008226D01*
X015411Y008216D01*
X01541Y008204D01*
X01541Y008192D01*
X01531D01*
X01531Y008204D01*
X015309Y008216D01*
X015307Y008226D01*
X015305Y008237D01*
X015302Y008246D01*
X015298Y008255D01*
X015294Y008264D01*
X015289Y008272D01*
X015284Y008279D01*
X015277Y008286D01*
X015443D01*
X015436Y008279D01*
D02*
G37*
G36*
X014642Y008127D02*
X014635Y008132D01*
X014626Y008135D01*
X014615Y008135D01*
X014603Y008132D01*
X01459Y008126D01*
X014575Y008117D01*
X014559Y008106D01*
X014541Y008092D01*
X014501Y008055D01*
X01443Y008125D01*
X01445Y008146D01*
X014482Y008183D01*
X014493Y008199D01*
X014502Y008214D01*
X014507Y008228D01*
X01451Y00824D01*
X014511Y00825D01*
X014508Y008259D01*
X014502Y008267D01*
X014642Y008127D01*
D02*
G37*
G36*
X014079Y008126D02*
X014071Y008123D01*
X014063Y008118D01*
X014057Y00811D01*
X014051Y008101D01*
X014047Y00809D01*
X014043Y008077D01*
X014041Y008062D01*
X014039Y008045D01*
X014039Y008025D01*
X013939D01*
X013938Y008045D01*
X013937Y008062D01*
X013934Y008077D01*
X013931Y00809D01*
X013926Y008101D01*
X013921Y00811D01*
X013914Y008118D01*
X013907Y008123D01*
X013898Y008126D01*
X013889Y008127D01*
X014089D01*
X014079Y008126D01*
D02*
G37*
G36*
X014861Y007824D02*
X014855Y007817D01*
X014849Y00781D01*
X014844Y007802D01*
X01484Y007794D01*
X014836Y007785D01*
X014833Y007775D01*
X014831Y007765D01*
X014829Y007754D01*
X014828Y007743D01*
X014828Y007731D01*
X014728Y007733D01*
X014727Y007745D01*
X014726Y007757D01*
X014725Y007768D01*
X014722Y007778D01*
X01472Y007788D01*
X014716Y007797D01*
X014712Y007805D01*
X014707Y007813D01*
X014702Y007821D01*
X014696Y007827D01*
X014861Y007824D01*
D02*
G37*
G36*
X01717Y007406D02*
X017171Y007394D01*
X017173Y007384D01*
X017175Y007373D01*
X017178Y007364D01*
X017182Y007355D01*
X017186Y007346D01*
X017191Y007338D01*
X017196Y007331D01*
X017203Y007324D01*
X017037D01*
X017044Y007331D01*
X017049Y007338D01*
X017054Y007346D01*
X017058Y007355D01*
X017062Y007364D01*
X017065Y007373D01*
X017067Y007384D01*
X017069Y007394D01*
X01707Y007406D01*
X01707Y007418D01*
X01717D01*
X01717Y007406D01*
D02*
G37*
G36*
X017211Y007316D02*
X017218Y007311D01*
X017226Y007306D01*
X017235Y007302D01*
X017244Y007298D01*
X017253Y007295D01*
X017264Y007293D01*
X017274Y007291D01*
X017286Y00729D01*
X017298Y00729D01*
Y00719D01*
X017286Y00719D01*
X017274Y007189D01*
X017264Y007187D01*
X017253Y007185D01*
X017244Y007182D01*
X017235Y007178D01*
X017226Y007174D01*
X017218Y007169D01*
X017211Y007164D01*
X017204Y007157D01*
Y007323D01*
X017211Y007316D01*
D02*
G37*
G36*
X011146Y00715D02*
X011143Y007174D01*
X011136Y007195D01*
X011123Y007214D01*
X011105Y00723D01*
X011083Y007244D01*
X011055Y007255D01*
X011023Y007264D01*
X010985Y00727D01*
X010942Y007274D01*
X010895Y007275D01*
Y007525D01*
X011145Y00753D01*
X011146Y00715D01*
D02*
G37*
G36*
X017637Y00714D02*
X017636Y00715D01*
X017633Y007158D01*
X017628Y007165D01*
X017621Y007172D01*
X017612Y007178D01*
X017601Y007182D01*
X017588Y007186D01*
X017573Y007188D01*
X017555Y007189D01*
X017536Y00719D01*
Y00729D01*
X017555Y00729D01*
X017573Y007292D01*
X017588Y007294D01*
X017601Y007298D01*
X017612Y007303D01*
X017621Y007308D01*
X017628Y007315D01*
X017633Y007322D01*
X017636Y00733D01*
X017637Y00734D01*
Y00714D01*
D02*
G37*
G36*
X011576Y007071D02*
X011579Y007062D01*
X011584Y007054D01*
X011591Y007048D01*
X0116Y007042D01*
X011611Y007038D01*
X011624Y007035D01*
X011639Y007032D01*
X011641Y007032D01*
X011679Y00703D01*
X011725Y00703D01*
Y00693D01*
X011679Y00693D01*
X01163Y006926D01*
X011624Y006926D01*
X011611Y006922D01*
X0116Y006917D01*
X011591Y006912D01*
X011584Y006906D01*
X011579Y006898D01*
X011576Y00689D01*
X011575Y00688D01*
Y006923D01*
X011537Y00692D01*
X011511Y006916D01*
X011489Y006911D01*
X011472Y006905D01*
X011458Y006899D01*
X011448Y006892D01*
Y007068D01*
X011458Y007061D01*
X011472Y007055D01*
X011489Y007049D01*
X011511Y007044D01*
X011537Y00704D01*
X011575Y007036D01*
Y00708D01*
X011576Y007071D01*
D02*
G37*
G36*
X033312Y000153D02*
X003795D01*
X003775Y000199D01*
X003808Y000232D01*
X003841Y000281D01*
X003852Y000333D01*
X004046D01*
Y000967D01*
X003354D01*
Y000413D01*
X003096D01*
Y000967D01*
X002404D01*
Y000907D01*
X002354Y000883D01*
X002333Y000899D01*
Y002501D01*
X00238Y002509D01*
Y002509D01*
X003025D01*
Y003251D01*
X00238D01*
Y003033D01*
X00231D01*
X002251Y003021D01*
X002202Y002988D01*
X002179Y002965D01*
X002133Y002985D01*
Y003497D01*
X002273Y003637D01*
X00238D01*
Y003419D01*
X003025D01*
Y00414D01*
X003025Y004161D01*
X003064Y00419D01*
X003129D01*
X003165Y004162D01*
X003167Y004141D01*
Y003419D01*
X003813D01*
X003827Y003375D01*
Y003295D01*
X003813Y003251D01*
X003167D01*
Y002509D01*
X003337D01*
X003349Y002451D01*
X003382Y002402D01*
X003502Y002282D01*
X003551Y002249D01*
X00361Y002237D01*
X003816D01*
X003818Y002237D01*
X003821Y002236D01*
X003823Y002236D01*
X003824Y002235D01*
X003824Y002235D01*
X003826Y002233D01*
X003833Y002228D01*
X003856Y002205D01*
X003937Y002172D01*
X004023D01*
X004104Y002205D01*
X004165Y002266D01*
X004198Y002347D01*
Y002433D01*
X004165Y002514D01*
X004104Y002575D01*
X004031Y002605D01*
X004029Y002615D01*
Y002645D01*
X004031Y002655D01*
X004104Y002685D01*
X004165Y002746D01*
X004198Y002827D01*
Y002913D01*
X004165Y002994D01*
X004142Y003017D01*
X004137Y003024D01*
X004135Y003026D01*
X004135Y003026D01*
X004134Y003027D01*
X004134Y003029D01*
X004133Y003032D01*
X004133Y003034D01*
Y00366D01*
X004121Y003719D01*
X004088Y003768D01*
X003958Y003898D01*
X003909Y003931D01*
X00385Y003943D01*
X003813D01*
Y004161D01*
X003275D01*
X00327Y004211D01*
X0033Y004217D01*
X003429Y004271D01*
X003546Y004348D01*
X003645Y004447D01*
X003722Y004564D01*
X003776Y004693D01*
X003803Y00483D01*
Y00497D01*
X003776Y005107D01*
X003722Y005236D01*
X003645Y005353D01*
X003546Y005452D01*
X003429Y005529D01*
X0033Y005583D01*
X003163Y00561D01*
X003023D01*
X002886Y005583D01*
X002757Y005529D01*
X00264Y005452D01*
X002541Y005353D01*
X002464Y005236D01*
X00241Y005107D01*
X002383Y00497D01*
Y00483D01*
X00241Y004693D01*
X002464Y004564D01*
X002541Y004447D01*
X00264Y004348D01*
X002757Y004271D01*
X002886Y004217D01*
X002916Y004211D01*
X002911Y004161D01*
X00238D01*
Y003943D01*
X00221D01*
X002151Y003931D01*
X002102Y003898D01*
X001872Y003668D01*
X001839Y003619D01*
X001827Y00356D01*
Y00075D01*
X001839Y000691D01*
X001872Y000642D01*
X002315Y000199D01*
X002295Y000153D01*
X000153D01*
Y00969D01*
X013562D01*
X01359Y009651D01*
X01359Y00964D01*
Y008909D01*
X01376D01*
Y008756D01*
X013612D01*
Y008543D01*
X01294D01*
X012881Y008531D01*
X012832Y008498D01*
X012272Y007938D01*
X012239Y007889D01*
X012227Y00783D01*
Y007133D01*
X011677D01*
Y007631D01*
X011148D01*
X011144Y007632D01*
X011143Y007632D01*
X011143Y007632D01*
X011106Y007631D01*
X011043D01*
Y00763D01*
X011017Y007629D01*
X01051D01*
X010488Y007625D01*
X010465D01*
X010444Y007616D01*
X010422Y007612D01*
X010403Y007599D01*
X010383Y007591D01*
X010367Y007575D01*
X010348Y007562D01*
X010335Y007543D01*
X010319Y007527D01*
X010311Y007507D01*
X010298Y007488D01*
X010294Y007466D01*
X010285Y007445D01*
Y007422D01*
X010281Y0074D01*
X010285Y007378D01*
Y007355D01*
X010294Y007334D01*
X010298Y007312D01*
X010311Y007293D01*
X010319Y007273D01*
X010335Y007257D01*
X010348Y007238D01*
X010367Y007225D01*
X010383Y007209D01*
X010403Y007201D01*
X010422Y007188D01*
X010444Y007184D01*
X010465Y007175D01*
X010488D01*
X01051Y007171D01*
X010951D01*
X010972Y007169D01*
X011001Y007164D01*
X011023Y007158D01*
X011037Y007152D01*
X011043Y007148D01*
Y006329D01*
X011677D01*
Y006827D01*
X012227D01*
Y005777D01*
X012185Y005749D01*
X012163Y005758D01*
X012128D01*
Y005833D01*
X012095Y005914D01*
X012034Y005975D01*
X011953Y006008D01*
X011867D01*
X011786Y005975D01*
X011763Y005952D01*
X011756Y005947D01*
X011754Y005945D01*
X011754Y005945D01*
X011753Y005944D01*
X011751Y005944D01*
X011748Y005943D01*
X011746Y005943D01*
X0111D01*
X011041Y005931D01*
X010992Y005898D01*
X006702Y001608D01*
X006669Y001559D01*
X006657Y0015D01*
Y001122D01*
X006655Y001113D01*
X006651Y001101D01*
X006644Y001086D01*
X006634Y001068D01*
X00662Y001049D01*
X006604Y001028D01*
X006558Y000978D01*
X00653Y000952D01*
X006525Y000944D01*
X006484Y000903D01*
X006432Y000813D01*
X006405Y000712D01*
Y000608D01*
X006432Y000507D01*
X006484Y000417D01*
X006557Y000344D01*
X006647Y000292D01*
X006748Y000265D01*
X006852D01*
X006953Y000292D01*
X007043Y000344D01*
X007116Y000417D01*
X007168Y000507D01*
X007195Y000608D01*
Y000712D01*
X007168Y000813D01*
X007116Y000903D01*
X007093Y000926D01*
X007089Y000933D01*
X007061Y000962D01*
X007016Y001017D01*
X007Y00104D01*
X006987Y001061D01*
X006976Y00108D01*
X006969Y001097D01*
X006965Y00111D01*
X006963Y001119D01*
Y001437D01*
X007611Y002085D01*
X007657Y002065D01*
Y001122D01*
X007655Y001113D01*
X007651Y001101D01*
X007644Y001086D01*
X007634Y001068D01*
X00762Y001049D01*
X007604Y001028D01*
X007558Y000978D01*
X00753Y000952D01*
X007525Y000944D01*
X007484Y000903D01*
X007432Y000813D01*
X007405Y000712D01*
Y000608D01*
X007432Y000507D01*
X007484Y000417D01*
X007557Y000344D01*
X007647Y000292D01*
X007748Y000265D01*
X007852D01*
X007953Y000292D01*
X008043Y000344D01*
X008116Y000417D01*
X008168Y000507D01*
X008195Y000608D01*
Y000712D01*
X008168Y000813D01*
X008116Y000903D01*
X008093Y000926D01*
X008089Y000933D01*
X008061Y000962D01*
X008016Y001017D01*
X008Y00104D01*
X007987Y001061D01*
X007976Y00108D01*
X007969Y001097D01*
X007965Y00111D01*
X007963Y001119D01*
Y002077D01*
X011273Y005387D01*
X011964D01*
X011996Y005355D01*
X012077Y005322D01*
X012163D01*
X012185Y005331D01*
X012227Y005303D01*
Y005126D01*
X01183D01*
Y004507D01*
X01183Y004506D01*
X01183Y004504D01*
Y004499D01*
X011829Y004495D01*
X01183Y004492D01*
Y004394D01*
X011877D01*
Y004274D01*
X011877Y004272D01*
X011876Y004269D01*
X011876Y004267D01*
X011875Y004266D01*
X011875Y004266D01*
X011874Y004266D01*
X011874Y004265D01*
X011874Y004265D01*
X011873Y004264D01*
X011871Y004264D01*
X011868Y004263D01*
X011866Y004263D01*
X01089D01*
X010831Y004251D01*
X010782Y004218D01*
X010322Y003758D01*
X010289Y003709D01*
X010277Y00365D01*
Y002755D01*
X010204Y002682D01*
X010188Y002667D01*
X010176Y002658D01*
X009664D01*
Y001902D01*
X009877D01*
Y001783D01*
X009198Y001104D01*
X009182Y00109D01*
X00917Y00108D01*
X00857D01*
Y00026D01*
X00939D01*
Y00086D01*
X009411Y000884D01*
X010138Y001612D01*
X010171Y001661D01*
X010183Y00172D01*
Y001902D01*
X010377D01*
Y001283D01*
X010214Y00112D01*
X010206Y001115D01*
X010193Y001109D01*
X010175Y001102D01*
X010154Y001096D01*
X010128Y001091D01*
X010099Y001087D01*
X010025Y001082D01*
X009982Y001082D01*
X009973Y00108D01*
X009926D01*
X009822Y001052D01*
X009728Y000998D01*
X009652Y000922D01*
X009598Y000828D01*
X00957Y000724D01*
Y000616D01*
X009598Y000512D01*
X009652Y000418D01*
X009728Y000342D01*
X009822Y000288D01*
X009926Y00026D01*
X010034D01*
X010138Y000288D01*
X010232Y000342D01*
X010308Y000418D01*
X010362Y000512D01*
X01039Y000616D01*
Y000663D01*
X010392Y000672D01*
X010392Y000715D01*
X010397Y000789D01*
X010401Y000818D01*
X010406Y000844D01*
X010412Y000865D01*
X010419Y000883D01*
X010425Y000896D01*
X01043Y000904D01*
X010638Y001112D01*
X010671Y001161D01*
X010683Y00122D01*
Y001849D01*
X010827D01*
Y001154D01*
X010825Y001144D01*
X01082Y001131D01*
X010812Y001114D01*
X010801Y001094D01*
X010787Y001072D01*
X010769Y001049D01*
X01072Y000993D01*
X01069Y000963D01*
X010685Y000955D01*
X010652Y000922D01*
X010598Y000828D01*
X01057Y000724D01*
Y000616D01*
X010598Y000512D01*
X010652Y000418D01*
X010728Y000342D01*
X010822Y000288D01*
X010926Y00026D01*
X011034D01*
X011138Y000288D01*
X011232Y000342D01*
X011308Y000418D01*
X011362Y000512D01*
X01139Y000616D01*
Y000724D01*
X011362Y000828D01*
X011308Y000922D01*
X011275Y000955D01*
X01127Y000963D01*
X01124Y000993D01*
X011191Y001049D01*
X011173Y001072D01*
X011159Y001094D01*
X011148Y001114D01*
X01114Y001131D01*
X011135Y001144D01*
X011133Y001154D01*
Y001849D01*
X011303D01*
Y002591D01*
X010923D01*
X010904Y002637D01*
X010935Y002669D01*
X010968Y002718D01*
X010976Y002759D01*
X011303D01*
Y003501D01*
X010657D01*
Y002864D01*
X010656Y00286D01*
X010657Y002856D01*
Y002833D01*
X010632Y002813D01*
X010583Y002835D01*
Y003587D01*
X010953Y003957D01*
X011866D01*
X011868Y003957D01*
X011871Y003956D01*
X011873Y003956D01*
X011874Y003955D01*
X011874Y003955D01*
X011876Y003953D01*
X011883Y003948D01*
X011906Y003925D01*
X011987Y003892D01*
X012073D01*
X012087Y003898D01*
X012137Y003864D01*
Y003509D01*
X01209Y003501D01*
Y003501D01*
X011444D01*
Y002759D01*
X01209D01*
Y002977D01*
X01215D01*
X012209Y002989D01*
X012258Y003022D01*
X012301Y003065D01*
X012347Y003045D01*
Y002593D01*
X01214Y002387D01*
X01209Y002406D01*
Y002591D01*
X011444D01*
Y001849D01*
X01209D01*
Y002067D01*
X01219D01*
X012249Y002079D01*
X012298Y002112D01*
X012608Y002422D01*
X012641Y002471D01*
X012653Y00253D01*
Y003527D01*
X012937Y003811D01*
X013833D01*
Y003721D01*
X01384Y003683D01*
X013808Y003633D01*
X013619D01*
X01356Y003621D01*
X01351Y003588D01*
X013403Y003481D01*
X01337Y003431D01*
X013358Y003372D01*
Y003263D01*
X012919D01*
Y002617D01*
X013661D01*
Y003098D01*
X013664Y003113D01*
Y003309D01*
X013682Y003327D01*
X01432D01*
X014368Y003337D01*
X014398Y003315D01*
X014408Y003303D01*
X014366Y00326D01*
X013874D01*
Y002614D01*
X014616D01*
Y003041D01*
X014617Y003042D01*
X014636Y003064D01*
X014688Y003116D01*
X014694Y003126D01*
X014744Y00313D01*
X014803Y003072D01*
X014818Y003056D01*
X014827Y003043D01*
X014828Y003043D01*
Y003024D01*
X014827Y00302D01*
X014828Y003016D01*
Y002617D01*
X015429D01*
X015457Y002575D01*
X015452Y002563D01*
Y002477D01*
X015451Y002475D01*
X014828D01*
Y001953D01*
X014616D01*
Y002473D01*
X013874D01*
Y001827D01*
X014098D01*
X014104Y0018D01*
X014137Y00175D01*
X014195Y001692D01*
X014245Y001659D01*
X014274Y001653D01*
X014269Y001603D01*
X013573D01*
X013443Y001733D01*
Y00183D01*
X013661D01*
Y002475D01*
X012919D01*
Y00183D01*
X013137D01*
Y00167D01*
X013149Y001611D01*
X013182Y001562D01*
X013402Y001342D01*
X013451Y001309D01*
X01351Y001297D01*
X015744D01*
Y001133D01*
X016436D01*
Y001647D01*
X016617D01*
X016661Y001603D01*
X016677Y001586D01*
X016684Y001577D01*
Y001133D01*
X017376D01*
Y001757D01*
X017418Y001786D01*
X017601Y001603D01*
X017617Y001586D01*
X017624Y001577D01*
Y001133D01*
X018316D01*
Y001494D01*
X018366Y001511D01*
X018406Y001485D01*
X018464Y001473D01*
X020068D01*
Y00125D01*
X021134D01*
Y001987D01*
X021134Y002001D01*
Y002037D01*
X021134Y002051D01*
Y002774D01*
X021134Y002788D01*
Y002824D01*
X021134Y002838D01*
Y003562D01*
X021134Y003576D01*
Y003612D01*
X021134Y003626D01*
Y003837D01*
X021626D01*
X021628Y003837D01*
X021631Y003836D01*
X021633Y003836D01*
X021634Y003835D01*
X021634Y003835D01*
X021636Y003833D01*
X021643Y003828D01*
X021666Y003805D01*
X021747Y003772D01*
X021833D01*
X021914Y003805D01*
X021975Y003866D01*
X022008Y003947D01*
Y004033D01*
X021975Y004114D01*
X021914Y004175D01*
X021833Y004208D01*
X021747D01*
X021666Y004175D01*
X021643Y004152D01*
X021636Y004147D01*
X021634Y004145D01*
X021634Y004145D01*
X021633Y004144D01*
X021631Y004144D01*
X021628Y004143D01*
X021626Y004143D01*
X021134D01*
Y004349D01*
X021134Y004363D01*
Y004399D01*
X021134Y004413D01*
Y005137D01*
X021134Y00515D01*
Y005187D01*
X021134Y0052D01*
Y005938D01*
X020068D01*
Y0052D01*
X020068Y005187D01*
Y00515D01*
X020068Y005137D01*
Y004413D01*
X020068Y004399D01*
Y004363D01*
X020068Y004349D01*
Y003626D01*
X020068Y003612D01*
Y003576D01*
X020068Y003562D01*
Y003127D01*
X019792D01*
X019789Y003128D01*
X019786Y003128D01*
X019784Y003129D01*
X019782Y00313D01*
X019781Y00313D01*
X019781Y00313D01*
X019778Y003133D01*
X019772Y003136D01*
X019754Y003155D01*
X019737Y003162D01*
X019747Y003212D01*
X019772D01*
Y00416D01*
X018628D01*
Y003839D01*
X018266D01*
Y004105D01*
X017534D01*
Y00388D01*
X017473D01*
Y00519D01*
X017461Y005249D01*
X017428Y005298D01*
X017387Y005339D01*
X017406Y005386D01*
X017524D01*
Y005062D01*
X018256D01*
Y005147D01*
X018628D01*
Y004826D01*
X019772D01*
Y005774D01*
X018628D01*
Y005453D01*
X018256D01*
Y005776D01*
X018279D01*
X018337Y005788D01*
X018387Y005821D01*
X018526Y005959D01*
X018541Y005974D01*
X018553Y005983D01*
X018558Y005987D01*
X018561Y005986D01*
X018573Y005986D01*
X018585Y005985D01*
X018593Y005987D01*
X018601Y005988D01*
X018612Y005993D01*
X018624Y005996D01*
X01863Y006001D01*
X018637Y006004D01*
X018645Y006013D01*
X018655Y006021D01*
X018659Y006028D01*
X018664Y006033D01*
X018668Y006045D01*
X018674Y006056D01*
X018675Y006063D01*
X018678Y006071D01*
X018677Y006083D01*
X018678Y006095D01*
X018676Y006103D01*
X018676Y006111D01*
X018673Y006118D01*
X018773Y006218D01*
X018808Y006242D01*
X018841Y006291D01*
X018853Y00635D01*
X018841Y006409D01*
X018808Y006458D01*
X018759Y006491D01*
X0187Y006503D01*
X018688D01*
X01863Y006491D01*
X01858Y006458D01*
X018514Y006392D01*
X01847Y00641D01*
Y00641D01*
X01842D01*
X018336Y006327D01*
X01829Y006346D01*
Y006716D01*
X017535D01*
Y006551D01*
X017511Y006535D01*
X017495Y006527D01*
X017485Y006526D01*
X017484Y006527D01*
X017477Y006532D01*
X017454Y006555D01*
X017373Y006588D01*
X017287D01*
X017206Y006555D01*
X017191Y006539D01*
X017136Y006556D01*
X017131Y006582D01*
X017105Y006621D01*
X017131Y00666D01*
X017143Y00672D01*
X017131Y006779D01*
X017097Y00683D01*
X017047Y006864D01*
X016987Y006876D01*
X016503D01*
X016443Y006864D01*
X016392Y00683D01*
X016358Y006779D01*
X016346Y00672D01*
X016358Y00666D01*
X016384Y006621D01*
X016358Y006582D01*
X016346Y006523D01*
X016304Y006499D01*
X016282Y006497D01*
X016274Y006505D01*
X016193Y006538D01*
X016107D01*
X016026Y006505D01*
X015965Y006444D01*
X015932Y006363D01*
Y006277D01*
X015965Y006196D01*
X016026Y006135D01*
X016107Y006102D01*
X016193D01*
X016274Y006135D01*
X016287Y006149D01*
X0163Y006147D01*
X016346Y006129D01*
X016358Y006069D01*
X016392Y006018D01*
X016443Y005985D01*
X016503Y005973D01*
X01656D01*
X016592Y005934D01*
X016592Y005932D01*
X016592Y00593D01*
X016561Y005891D01*
X016503D01*
X016493Y005889D01*
X016036D01*
X016035Y00589D01*
X016032Y00589D01*
X01603Y005891D01*
X01603Y005891D01*
X016028Y005893D01*
X016021Y005898D01*
X015994Y005925D01*
X015913Y005958D01*
X015827D01*
X015746Y005925D01*
X015685Y005864D01*
X015652Y005783D01*
Y005697D01*
X015685Y005616D01*
X015746Y005555D01*
X015827Y005522D01*
X015913D01*
X015994Y005555D01*
X016013Y005575D01*
X016019Y005578D01*
X016022Y005581D01*
X016022Y005581D01*
X016023Y005581D01*
X016024Y005582D01*
X016027Y005582D01*
X01603Y005583D01*
X016032Y005583D01*
X016316D01*
X016348Y005545D01*
X016346Y005538D01*
X016358Y005479D01*
X016384Y00544D01*
X016358Y005401D01*
X016346Y005342D01*
X016358Y005282D01*
X016384Y005243D01*
X016358Y005205D01*
X016346Y005145D01*
X016358Y005085D01*
X016384Y005046D01*
X016358Y005008D01*
X016346Y004948D01*
X016358Y004888D01*
X016384Y004849D01*
X016358Y004811D01*
X016346Y004751D01*
X016358Y004691D01*
X016384Y004653D01*
X016358Y004614D01*
X016346Y004554D01*
X016358Y004494D01*
X016392Y004444D01*
X016443Y00441D01*
X016503Y004398D01*
X016987D01*
X017047Y00441D01*
X017097Y004444D01*
X017117Y004473D01*
X017167Y004458D01*
Y00384D01*
X017117Y003819D01*
X016974Y003962D01*
X016973Y003964D01*
X016972Y003966D01*
X016971Y003968D01*
X01697Y003969D01*
X01697Y003969D01*
X01697Y003973D01*
X016968Y003981D01*
Y004013D01*
X016935Y004094D01*
X016874Y004155D01*
X016793Y004188D01*
X016707D01*
X016626Y004155D01*
X016565Y004094D01*
X016532Y004013D01*
Y003927D01*
X016565Y003846D01*
X016626Y003785D01*
X016707Y003752D01*
X016739D01*
X016747Y00375D01*
X016751Y00375D01*
X016751Y00375D01*
X016752Y003749D01*
X016754Y003748D01*
X016756Y003747D01*
X016758Y003746D01*
X017267Y003237D01*
Y00267D01*
X017279Y002611D01*
X017312Y002562D01*
X018061Y001813D01*
X018042Y001767D01*
X017881D01*
X017874Y001771D01*
X017819Y001817D01*
X017376Y002261D01*
X017326Y002294D01*
X017267Y002306D01*
X015835D01*
X015814Y002356D01*
X015855Y002396D01*
X015888Y002477D01*
Y002514D01*
X016528D01*
Y002999D01*
X016528Y003003D01*
X016528Y003007D01*
Y003026D01*
X016549Y003051D01*
X016632Y003134D01*
X016665Y003184D01*
X016677Y003242D01*
Y003258D01*
X016709Y00329D01*
X016742Y003371D01*
Y003457D01*
X016709Y003537D01*
X016647Y003599D01*
X016567Y003632D01*
X016481D01*
X0164Y003599D01*
X016357Y003556D01*
X016307Y003576D01*
Y003705D01*
X01631Y003722D01*
Y004206D01*
X016299Y004266D01*
X016265Y004316D01*
X016214Y00435D01*
X016154Y004362D01*
X016094Y00435D01*
X016044Y004316D01*
X01601Y004266D01*
X015998Y004206D01*
Y003722D01*
X016001Y003705D01*
Y003246D01*
X015818D01*
X015811Y003279D01*
X015778Y003328D01*
X015587Y003519D01*
X015604Y003573D01*
X015623Y003577D01*
X015662Y003603D01*
X015701Y003577D01*
X015761Y003565D01*
X01582Y003577D01*
X015871Y003611D01*
X015905Y003662D01*
X015917Y003722D01*
Y004206D01*
X015905Y004266D01*
X015871Y004316D01*
X01582Y00435D01*
X015761Y004362D01*
X015701Y00435D01*
X015662Y004324D01*
X015623Y00435D01*
X015564Y004362D01*
X015504Y00435D01*
X015465Y004324D01*
X015427Y00435D01*
X015367Y004362D01*
X015362Y004361D01*
X015323Y004393D01*
Y00499D01*
X015311Y005049D01*
X015278Y005098D01*
X015088Y005288D01*
X015039Y005321D01*
X01498Y005333D01*
X014714D01*
X014712Y005333D01*
X014709Y005334D01*
X014707Y005334D01*
X014706Y005335D01*
X014706Y005335D01*
X014704Y005337D01*
X014697Y005342D01*
X014674Y005365D01*
X014593Y005398D01*
X014507D01*
X014426Y005365D01*
X014365Y005304D01*
X014332Y005223D01*
Y005189D01*
X01429Y005161D01*
X014273Y005168D01*
X014187D01*
X014106Y005135D01*
X014082Y005111D01*
X014075Y005106D01*
X014072Y005104D01*
X014072Y005103D01*
X01407Y005103D01*
X014067Y005102D01*
X014065Y005102D01*
X013828D01*
X013796Y00514D01*
X013797Y005145D01*
X013785Y005205D01*
X013759Y005243D01*
X013785Y005282D01*
X013797Y005342D01*
X013785Y005401D01*
X013759Y00544D01*
X013785Y005479D01*
X013797Y005538D01*
X013785Y005598D01*
X013759Y005637D01*
X013785Y005675D01*
X013797Y005735D01*
X013785Y005795D01*
X013759Y005834D01*
X013785Y005872D01*
X013797Y005932D01*
X013785Y005992D01*
X013759Y006031D01*
X013785Y006069D01*
X013797Y006129D01*
X013785Y006189D01*
X013759Y006227D01*
X013785Y006266D01*
X013797Y006326D01*
X013785Y006386D01*
X013759Y006424D01*
X013785Y006463D01*
X013797Y006523D01*
X013785Y006582D01*
X013759Y006621D01*
X013785Y00666D01*
X013797Y00672D01*
X013785Y006779D01*
X013751Y00683D01*
X0137Y006864D01*
X013641Y006876D01*
X013156D01*
X013097Y006864D01*
X013046Y00683D01*
X013012Y006779D01*
X013Y00672D01*
X013012Y00666D01*
X013038Y006621D01*
X013012Y006582D01*
X013Y006523D01*
X013012Y006463D01*
X013038Y006424D01*
X013012Y006386D01*
X013Y006326D01*
X013012Y006266D01*
X013038Y006227D01*
X013012Y006189D01*
X013Y006129D01*
X013012Y006069D01*
X013023Y006052D01*
X013023Y006049D01*
X013003Y006035D01*
X013001Y006034D01*
X012963Y006045D01*
X012935Y006114D01*
X012874Y006175D01*
X012793Y006208D01*
X012707D01*
X012626Y006175D01*
X012583Y006131D01*
X012533Y006152D01*
Y00698D01*
Y007767D01*
X013003Y008237D01*
X013612D01*
Y008024D01*
X013836D01*
Y007568D01*
X013833Y007552D01*
Y007068D01*
X013845Y007008D01*
X013878Y006957D01*
X013929Y006924D01*
X013989Y006912D01*
X014049Y006924D01*
X014099Y006957D01*
X014133Y007008D01*
X014145Y007068D01*
Y007126D01*
X014184Y007158D01*
X014186Y007157D01*
X014188Y007158D01*
X014226Y007126D01*
Y007068D01*
X014238Y007008D01*
X014272Y006957D01*
X014323Y006924D01*
X014383Y006912D01*
X014442Y006924D01*
X014481Y006949D01*
X01452Y006924D01*
X014579Y006912D01*
X014639Y006924D01*
X014678Y006949D01*
X014717Y006924D01*
X014776Y006912D01*
X014836Y006924D01*
X014875Y006949D01*
X014913Y006924D01*
X014973Y006912D01*
X015033Y006924D01*
X015072Y006949D01*
X01511Y006924D01*
X01517Y006912D01*
X015174Y006913D01*
X015213Y006881D01*
Y006787D01*
X015213Y006786D01*
X015212Y006783D01*
X015212Y006783D01*
X01521Y006781D01*
X015205Y006773D01*
X015175Y006744D01*
X015142Y006663D01*
Y006577D01*
X015175Y006496D01*
X015236Y006435D01*
X015271Y006421D01*
X015295Y006374D01*
X015262Y006293D01*
Y006207D01*
X015295Y006126D01*
X015356Y006065D01*
X015437Y006032D01*
X015523D01*
X015604Y006065D01*
X015665Y006126D01*
X015698Y006207D01*
Y006239D01*
X0157Y006247D01*
X0157Y006251D01*
X0157Y006251D01*
X015701Y006252D01*
X015702Y006254D01*
X015703Y006256D01*
X015704Y006258D01*
X016066Y006619D01*
X016099Y006669D01*
X01611Y006727D01*
Y006881D01*
X016149Y006913D01*
X016154Y006912D01*
X016214Y006924D01*
X016265Y006958D01*
X016299Y007008D01*
X01631Y007068D01*
Y007552D01*
X016299Y007612D01*
X016265Y007663D01*
X016214Y007696D01*
X016154Y007708D01*
X016095Y007696D01*
X016056Y007671D01*
X016017Y007696D01*
X015957Y007708D01*
X015952Y007707D01*
X015914Y007739D01*
Y007827D01*
X016008Y007922D01*
X016041Y007971D01*
X016053Y00803D01*
Y008206D01*
X016053Y008208D01*
X016054Y008211D01*
X016054Y008213D01*
X016055Y008214D01*
X016055Y008214D01*
X016057Y008216D01*
X016062Y008223D01*
X016085Y008246D01*
X016118Y008327D01*
Y008413D01*
X016085Y008494D01*
X016024Y008555D01*
X015943Y008588D01*
X015857D01*
X015776Y008555D01*
X015715Y008494D01*
X015682Y008413D01*
Y008394D01*
X015673Y008388D01*
X015587D01*
X015578Y008394D01*
Y008413D01*
X015545Y008494D01*
X015484Y008555D01*
X015403Y008588D01*
X015317D01*
X015236Y008555D01*
X015175Y008494D01*
X015142Y008413D01*
Y008327D01*
X015175Y008246D01*
X015198Y008223D01*
X015203Y008216D01*
X015205Y008214D01*
X015205Y008214D01*
X015206Y008213D01*
X015206Y008211D01*
X015207Y008208D01*
X015207Y008206D01*
Y008143D01*
X015042Y007978D01*
X014983Y00799D01*
X014965Y008034D01*
X014904Y008095D01*
X014823Y008128D01*
X014791D01*
X01477Y008178D01*
X01485Y008258D01*
X014886Y008282D01*
X014919Y008331D01*
X01493Y00839D01*
X014919Y008449D01*
X014886Y008498D01*
X014836Y008531D01*
X014777Y008543D01*
X014766D01*
X014707Y008531D01*
X014657Y008498D01*
X014525Y008365D01*
X014519Y008368D01*
X01451Y008367D01*
X014502Y008369D01*
X014491Y008367D01*
X014479Y008366D01*
X014471Y008363D01*
X014463Y008361D01*
X014453Y008354D01*
X014443Y00835D01*
X014437Y008344D01*
X01443Y008339D01*
X014424Y008329D01*
X014418Y008323D01*
X014407Y008323D01*
X014369Y008335D01*
X014368Y008335D01*
Y008756D01*
X014066D01*
Y008909D01*
X014236D01*
Y00964D01*
X014236Y009651D01*
X014263Y00969D01*
X014349D01*
X014377Y009651D01*
X014377Y00964D01*
Y008909D01*
X015023D01*
Y009127D01*
X016827D01*
X016892Y009061D01*
X016873Y009015D01*
X016626D01*
Y008225D01*
X016967D01*
Y007404D01*
X016967Y007402D01*
X016966Y007399D01*
X016966Y007397D01*
X016965Y007396D01*
X016965Y007396D01*
X016963Y007394D01*
X016958Y007387D01*
X016935Y007364D01*
X016902Y007283D01*
Y007197D01*
X016935Y007116D01*
X016996Y007055D01*
X017077Y007022D01*
X017163D01*
X017244Y007055D01*
X017267Y007078D01*
X017274Y007083D01*
X017276Y007085D01*
X017276Y007085D01*
X017277Y007086D01*
X017279Y007086D01*
X017282Y007087D01*
X017284Y007087D01*
X017535D01*
Y006874D01*
X01829D01*
Y007606D01*
X017535D01*
Y007393D01*
X017284D01*
X017282Y007393D01*
X017279Y007394D01*
X017277Y007394D01*
X017276Y007395D01*
X017276Y007395D01*
X017276Y007396D01*
X017275Y007396D01*
X017275Y007396D01*
X017274Y007397D01*
X017274Y007399D01*
X017273Y007402D01*
X017273Y007404D01*
Y008225D01*
X017614D01*
Y009015D01*
X017273D01*
Y00905D01*
X017261Y009109D01*
X017228Y009158D01*
X016998Y009388D01*
X016949Y009421D01*
X01689Y009433D01*
X015023D01*
Y00964D01*
X015023Y009651D01*
X015051Y00969D01*
X033312D01*
Y000153D01*
D02*
G37*
G36*
X01243Y00698D02*
X01233Y00683D01*
X012329Y006849D01*
X012326Y006866D01*
X012321Y006881D01*
X012314Y006894D01*
X012305Y006905D01*
X012294Y006914D01*
X012281Y006921D01*
X012266Y006926D01*
X012249Y006929D01*
X01223Y00693D01*
Y00703D01*
X012249Y007031D01*
X012266Y007034D01*
X012281Y007039D01*
X012294Y007046D01*
X012305Y007055D01*
X012314Y007066D01*
X012321Y007079D01*
X012326Y007094D01*
X012329Y007111D01*
X01233Y00713D01*
X01243Y00698D01*
D02*
G37*
G36*
X015416Y006795D02*
X015416Y006783D01*
X015417Y006772D01*
X015418Y006761D01*
X015421Y00675D01*
X015423Y006741D01*
X015427Y006731D01*
X015431Y006723D01*
X015436Y006715D01*
X015441Y006707D01*
X015447Y0067D01*
X015281Y006708D01*
X015288Y006715D01*
X015294Y006722D01*
X015299Y006729D01*
X015303Y006738D01*
X015307Y006746D01*
X01531Y006756D01*
X015313Y006766D01*
X015314Y006777D01*
X015315Y006788D01*
X015316Y0068D01*
X015416Y006795D01*
D02*
G37*
G36*
X017421Y006446D02*
X017428Y006441D01*
X017436Y006436D01*
X017445Y006432D01*
X017454Y006428D01*
X017463Y006425D01*
X017474Y006423D01*
X017484Y006421D01*
X017496Y00642D01*
X017508Y00642D01*
Y00632D01*
X017496Y00632D01*
X017484Y006319D01*
X017474Y006317D01*
X017463Y006315D01*
X017454Y006312D01*
X017445Y006308D01*
X017436Y006304D01*
X017428Y006299D01*
X017421Y006294D01*
X017414Y006287D01*
Y006453D01*
X017421Y006446D01*
D02*
G37*
G36*
X017637Y00627D02*
X017636Y00628D01*
X017633Y006288D01*
X017628Y006295D01*
X017621Y006302D01*
X017612Y006308D01*
X017601Y006312D01*
X017588Y006316D01*
X017573Y006318D01*
X017555Y00632D01*
X017536Y00632D01*
Y00642D01*
X017555Y006421D01*
X017573Y006422D01*
X017588Y006424D01*
X017601Y006428D01*
X017612Y006432D01*
X017621Y006438D01*
X017628Y006445D01*
X017633Y006452D01*
X017636Y00646D01*
X017637Y00647D01*
Y00627D01*
D02*
G37*
G36*
X015641Y00634D02*
X015633Y006332D01*
X015625Y006323D01*
X015619Y006314D01*
X015613Y006305D01*
X015609Y006296D01*
X015605Y006287D01*
X015602Y006278D01*
X0156Y006269D01*
X015598Y00626D01*
X015598Y006251D01*
X015481Y006368D01*
X01549Y006368D01*
X015499Y00637D01*
X015508Y006372D01*
X015517Y006375D01*
X015526Y006379D01*
X015535Y006383D01*
X015544Y006389D01*
X015553Y006395D01*
X015562Y006403D01*
X01557Y006411D01*
X015641Y00634D01*
D02*
G37*
G36*
X016238Y0064D02*
X016245Y006395D01*
X016253Y00639D01*
X016262Y006386D01*
X016271Y006382D01*
X016281Y00638D01*
X016291Y006377D01*
X016302Y006376D01*
X016314Y006375D01*
X016326Y006375D01*
X01633Y006275D01*
X016318Y006274D01*
X016307Y006273D01*
X016296Y006272D01*
X016286Y006269D01*
X016276Y006266D01*
X016267Y006262D01*
X016259Y006258D01*
X016251Y006253D01*
X016244Y006247D01*
X016238Y006241D01*
X016231Y006406D01*
X016238Y0064D01*
D02*
G37*
G36*
X018577Y006087D02*
X018569Y006092D01*
X018559Y006094D01*
X018548Y006094D01*
X018536Y00609D01*
X018523Y006085D01*
X018508Y006076D01*
X018492Y006065D01*
X018474Y006051D01*
X018435Y006015D01*
X018353Y006074D01*
X018373Y006095D01*
X018405Y006132D01*
X018417Y006149D01*
X018426Y006164D01*
X018431Y006177D01*
X018434Y006189D01*
X018434Y006199D01*
X018431Y006208D01*
X018425Y006215D01*
X018577Y006087D01*
D02*
G37*
G36*
X017636Y006085D02*
X017635Y006084D01*
X017632Y006083D01*
X017627Y006082D01*
X01762Y006081D01*
X0176Y00608D01*
X017536Y006079D01*
Y006179D01*
X017555Y006179D01*
X017573Y006181D01*
X017588Y006183D01*
X017601Y006187D01*
X017612Y006191D01*
X017621Y006197D01*
X017628Y006203D01*
X017633Y006211D01*
X017636Y006219D01*
X017637Y006229D01*
X017636Y006085D01*
D02*
G37*
G36*
X012868Y00598D02*
X01287Y005971D01*
X012872Y005962D01*
X012875Y005953D01*
X012879Y005944D01*
X012883Y005935D01*
X012889Y005926D01*
X012895Y005917D01*
X012903Y005908D01*
X012911Y0059D01*
X01284Y005829D01*
X012832Y005837D01*
X012823Y005845D01*
X012814Y005851D01*
X012805Y005857D01*
X012796Y005861D01*
X012787Y005865D01*
X012778Y005868D01*
X012769Y00587D01*
X01276Y005872D01*
X012751Y005872D01*
X012868Y005989D01*
X012868Y00598D01*
D02*
G37*
G36*
X011826Y005707D02*
X011819Y005714D01*
X011812Y005719D01*
X011804Y005724D01*
X011795Y005728D01*
X011786Y005732D01*
X011777Y005735D01*
X011766Y005737D01*
X011756Y005739D01*
X011744Y00574D01*
X011732Y00574D01*
Y00584D01*
X011744Y00584D01*
X011756Y005841D01*
X011766Y005843D01*
X011777Y005845D01*
X011786Y005848D01*
X011795Y005852D01*
X011804Y005856D01*
X011812Y005861D01*
X011819Y005866D01*
X011826Y005873D01*
Y005707D01*
D02*
G37*
G36*
X015963Y005814D02*
X01597Y005808D01*
X015978Y005803D01*
X015987Y005799D01*
X015996Y005795D01*
X016005Y005792D01*
X016015Y005789D01*
X016026Y005788D01*
X016037Y005787D01*
X016049Y005786D01*
X016046Y005686D01*
X016034Y005686D01*
X016023Y005685D01*
X016012Y005684D01*
X016002Y005681D01*
X015992Y005678D01*
X015983Y005675D01*
X015974Y005671D01*
X015966Y005666D01*
X015959Y005661D01*
X015952Y005655D01*
X015957Y00582D01*
X015963Y005814D01*
D02*
G37*
G36*
X012842Y005616D02*
X012849Y00561D01*
X012857Y005605D01*
X012865Y005601D01*
X012874Y005597D01*
X012884Y005594D01*
X012894Y005592D01*
X012905Y005591D01*
X012916Y00559D01*
X012928Y005589D01*
X012928Y005489D01*
X012916Y005489D01*
X012904Y005488D01*
X012893Y005486D01*
X012883Y005484D01*
X012873Y005481D01*
X012864Y005478D01*
X012856Y005473D01*
X012848Y005468D01*
X012841Y005463D01*
X012834Y005457D01*
X012835Y005622D01*
X012842Y005616D01*
D02*
G37*
G36*
X017627Y005438D02*
X017626Y005448D01*
X017623Y005456D01*
X017618Y005464D01*
X01761Y00547D01*
X017601Y005476D01*
X01759Y00548D01*
X017577Y005484D01*
X017562Y005486D01*
X017545Y005488D01*
X017525Y005488D01*
Y005588D01*
X017545Y005589D01*
X017562Y00559D01*
X017577Y005593D01*
X01759Y005596D01*
X017601Y005601D01*
X01761Y005606D01*
X017618Y005613D01*
X017623Y00562D01*
X017626Y005629D01*
X017627Y005638D01*
Y005438D01*
D02*
G37*
G36*
X018729Y0052D02*
X018728Y00521D01*
X018725Y005218D01*
X01872Y005225D01*
X018713Y005232D01*
X018704Y005238D01*
X018693Y005242D01*
X01868Y005246D01*
X018665Y005248D01*
X018648Y00525D01*
X018629Y00525D01*
Y00535D01*
X018648Y00535D01*
X018665Y005352D01*
X01868Y005354D01*
X018693Y005358D01*
X018704Y005362D01*
X018713Y005368D01*
X01872Y005375D01*
X018725Y005382D01*
X018728Y00539D01*
X018729Y0054D01*
Y0052D01*
D02*
G37*
G36*
X018156Y00539D02*
X018159Y005382D01*
X018164Y005375D01*
X018171Y005368D01*
X01818Y005362D01*
X018191Y005358D01*
X018204Y005354D01*
X018219Y005352D01*
X018236Y00535D01*
X018255Y00535D01*
Y00525D01*
X018236Y00525D01*
X018219Y005248D01*
X018204Y005246D01*
X018191Y005242D01*
X01818Y005238D01*
X018171Y005232D01*
X018164Y005225D01*
X018159Y005218D01*
X018156Y00521D01*
X018155Y0052D01*
Y0054D01*
X018156Y00539D01*
D02*
G37*
G36*
X014641Y005256D02*
X014648Y005251D01*
X014656Y005246D01*
X014665Y005242D01*
X014674Y005238D01*
X014683Y005235D01*
X014694Y005233D01*
X014704Y005231D01*
X014716Y00523D01*
X014728Y00523D01*
Y00513D01*
X014716Y00513D01*
X014704Y005129D01*
X014694Y005127D01*
X014683Y005125D01*
X014674Y005122D01*
X014665Y005118D01*
X014656Y005114D01*
X014648Y005109D01*
X014641Y005104D01*
X014634Y005097D01*
Y005263D01*
X014641Y005256D01*
D02*
G37*
G36*
X01243Y005105D02*
X012432Y005088D01*
X012435Y005073D01*
X012438Y00506D01*
X012443Y005049D01*
X012448Y00504D01*
X012455Y005032D01*
X012462Y005027D01*
X012471Y005024D01*
X01248Y005023D01*
X01228D01*
X01229Y005024D01*
X012298Y005027D01*
X012306Y005032D01*
X012312Y00504D01*
X012318Y005049D01*
X012322Y00506D01*
X012326Y005073D01*
X012328Y005088D01*
X012329Y005105D01*
X01233Y005125D01*
X01243D01*
X01243Y005105D01*
D02*
G37*
G36*
X014146Y004867D02*
X01414Y004873D01*
X014132Y004878D01*
X014124Y004883D01*
X014116Y004887D01*
X014107Y004891D01*
X014097Y004894D01*
X014087Y004896D01*
X014076Y004898D01*
X014065Y004899D01*
X014053Y004899D01*
X014052Y004999D01*
X014064Y004999D01*
X014075Y005D01*
X014086Y005002D01*
X014096Y005004D01*
X014106Y005007D01*
X014115Y005011D01*
X014123Y005015D01*
X014131Y00502D01*
X014138Y005026D01*
X014145Y005032D01*
X014146Y004867D01*
D02*
G37*
G36*
X014971Y004909D02*
X014972Y004906D01*
X014973Y004902D01*
X014976Y004897D01*
X014979Y004892D01*
X014983Y004887D01*
X014994Y004874D01*
X015008Y004859D01*
X014938Y004788D01*
X014929Y004797D01*
X014894Y004827D01*
X014889Y00483D01*
X014885Y004832D01*
X014882Y004833D01*
X01488Y004834D01*
X014972Y004912D01*
X014971Y004909D01*
D02*
G37*
G36*
X012484Y004645D02*
X012487Y004636D01*
X012492Y004629D01*
X012499Y004622D01*
X012508Y004617D01*
X012519Y004612D01*
X012532Y004609D01*
X012547Y004606D01*
X012565Y004605D01*
X012584Y004604D01*
Y004504D01*
X012565Y004504D01*
X012493Y0045D01*
X012488Y004499D01*
X012485Y004497D01*
X012484Y004495D01*
X012483Y004654D01*
X012484Y004645D01*
D02*
G37*
G36*
X012626Y005355D02*
X012707Y005322D01*
X012793D01*
X012874Y005355D01*
X012896Y005378D01*
X012903Y005382D01*
X012906Y005384D01*
X012906Y005384D01*
X012907Y005385D01*
X012909Y005385D01*
X012912Y005386D01*
X012914Y005386D01*
X01297D01*
X013001Y005348D01*
X013Y005342D01*
X013012Y005282D01*
X013038Y005243D01*
X013012Y005205D01*
X013Y005145D01*
X013012Y005085D01*
X013038Y005046D01*
X013012Y005008D01*
X013Y004948D01*
X013012Y004888D01*
X013046Y004837D01*
X013097Y004804D01*
X013156Y004792D01*
X013641D01*
X013662Y004796D01*
X014066D01*
X014068Y004796D01*
X014071Y004795D01*
X014073Y004794D01*
X014075Y004794D01*
X014075Y004794D01*
X014078Y004791D01*
X014084Y004787D01*
X014106Y004765D01*
X014187Y004732D01*
X014273D01*
X014354Y004765D01*
X014415Y004826D01*
X014448Y004907D01*
Y004941D01*
X01449Y004969D01*
X014507Y004962D01*
X014593D01*
X0146Y004965D01*
X014642Y004937D01*
Y004907D01*
X014675Y004826D01*
X014736Y004765D01*
X014817Y004732D01*
X01482D01*
Y004393D01*
X014782Y004361D01*
X014776Y004362D01*
X014716Y00435D01*
X014678Y004324D01*
X014639Y00435D01*
X014579Y004362D01*
X01452Y00435D01*
X014481Y004324D01*
X014442Y00435D01*
X014383Y004362D01*
X014323Y00435D01*
X014284Y004324D01*
X014246Y00435D01*
X014186Y004362D01*
X014126Y00435D01*
X014087Y004324D01*
X014049Y00435D01*
X013989Y004362D01*
X013929Y00435D01*
X013878Y004316D01*
X013845Y004265D01*
X013833Y004206D01*
Y004117D01*
X012874D01*
X012815Y004105D01*
X012765Y004072D01*
X012729Y004036D01*
X012687Y004064D01*
X012688Y004067D01*
Y004153D01*
X012655Y004234D01*
X012594Y004295D01*
X012513Y004328D01*
X012427D01*
X012346Y004295D01*
X012285Y004234D01*
X012277Y004214D01*
X012223D01*
X012215Y004234D01*
X012192Y004257D01*
X012187Y004264D01*
X012185Y004266D01*
X012185Y004266D01*
X012184Y004267D01*
X012184Y004269D01*
X012183Y004272D01*
X012183Y004274D01*
Y004394D01*
X012481D01*
X012485Y004393D01*
X012488Y004394D01*
X012585D01*
Y004401D01*
X01314D01*
X013156Y004398D01*
X013641D01*
X0137Y00441D01*
X013751Y004444D01*
X013785Y004494D01*
X013797Y004554D01*
X013785Y004614D01*
X013751Y004665D01*
X0137Y004698D01*
X013641Y00471D01*
X013156D01*
X01314Y004707D01*
X012585D01*
Y005126D01*
X012533D01*
Y005378D01*
X012583Y005399D01*
X012626Y005355D01*
D02*
G37*
G36*
X01212Y004494D02*
X012112Y004491D01*
X012105Y004486D01*
X012098Y004479D01*
X012092Y00447D01*
X012088Y004459D01*
X012084Y004446D01*
X012082Y004431D01*
X012081Y004414D01*
X01208Y004395D01*
X01198D01*
X01198Y004414D01*
X011978Y004431D01*
X011976Y004446D01*
X011972Y004459D01*
X011968Y00447D01*
X011962Y004479D01*
X011956Y004486D01*
X011949Y004491D01*
X01194Y004494D01*
X011931Y004495D01*
X01213D01*
X01212Y004494D01*
D02*
G37*
G36*
X01208Y004276D02*
X012081Y004264D01*
X012083Y004254D01*
X012085Y004243D01*
X012088Y004234D01*
X012092Y004225D01*
X012096Y004216D01*
X012101Y004208D01*
X012106Y004201D01*
X012113Y004194D01*
X011947D01*
X011954Y004201D01*
X011959Y004208D01*
X011964Y004216D01*
X011968Y004225D01*
X011972Y004234D01*
X011975Y004243D01*
X011977Y004254D01*
X011979Y004264D01*
X01198Y004276D01*
X01198Y004288D01*
X01208D01*
X01208Y004276D01*
D02*
G37*
G36*
X011946Y004027D02*
X011939Y004034D01*
X011932Y004039D01*
X011924Y004044D01*
X011915Y004048D01*
X011906Y004052D01*
X011897Y004055D01*
X011886Y004057D01*
X011876Y004059D01*
X011864Y00406D01*
X011852Y00406D01*
Y00416D01*
X011864Y00416D01*
X011876Y004161D01*
X011886Y004163D01*
X011897Y004165D01*
X011906Y004168D01*
X011915Y004172D01*
X011924Y004176D01*
X011932Y004181D01*
X011939Y004186D01*
X011946Y004193D01*
Y004027D01*
D02*
G37*
G36*
X012482Y003993D02*
X012473Y003991D01*
X012465Y003989D01*
X012456Y003986D01*
X012447Y003983D01*
X012438Y003978D01*
X012429Y003973D01*
X012421Y003967D01*
X012412Y00396D01*
X012403Y003953D01*
X012394Y003945D01*
X012315Y004006D01*
X012323Y004015D01*
X01233Y004024D01*
X012337Y004033D01*
X012342Y004042D01*
X012346Y00405D01*
X012349Y004059D01*
X012352Y004068D01*
X012353Y004077D01*
X012353Y004086D01*
X012353Y004095D01*
X012482Y003993D01*
D02*
G37*
G36*
X021706Y003907D02*
X021699Y003914D01*
X021692Y003919D01*
X021684Y003924D01*
X021675Y003928D01*
X021666Y003932D01*
X021657Y003935D01*
X021646Y003937D01*
X021636Y003939D01*
X021624Y00394D01*
X021612Y00394D01*
Y00404D01*
X021624Y00404D01*
X021636Y004041D01*
X021646Y004043D01*
X021657Y004045D01*
X021666Y004048D01*
X021675Y004052D01*
X021684Y004056D01*
X021692Y004061D01*
X021699Y004066D01*
X021706Y004073D01*
Y003907D01*
D02*
G37*
G36*
X021032Y004081D02*
X021036Y004072D01*
X021041Y004065D01*
X021048Y004058D01*
X021057Y004053D01*
X021068Y004048D01*
X021081Y004044D01*
X021096Y004042D01*
X021113Y00404D01*
X021133Y00404D01*
Y00394D01*
X021113Y003939D01*
X021096Y003938D01*
X021081Y003936D01*
X021068Y003932D01*
X021057Y003927D01*
X021048Y003922D01*
X021041Y003916D01*
X021036Y003908D01*
X021032Y0039D01*
X021031Y00389D01*
Y00409D01*
X021032Y004081D01*
D02*
G37*
G36*
X013937Y003864D02*
X013936Y003873D01*
X013933Y003882D01*
X013928Y003889D01*
X013921Y003896D01*
X013912Y003901D01*
X013901Y003906D01*
X013887Y003909D01*
X013872Y003912D01*
X013855Y003913D01*
X013836Y003914D01*
Y004014D01*
X013855Y004014D01*
X013872Y004016D01*
X013887Y004018D01*
X013901Y004022D01*
X013912Y004026D01*
X013921Y004032D01*
X013928Y004038D01*
X013933Y004046D01*
X013936Y004054D01*
X013937Y004064D01*
Y003864D01*
D02*
G37*
G36*
X016868Y00396D02*
X01687Y003951D01*
X016872Y003942D01*
X016875Y003933D01*
X016879Y003924D01*
X016883Y003915D01*
X016889Y003906D01*
X016895Y003897D01*
X016903Y003888D01*
X016911Y00388D01*
X01684Y003809D01*
X016832Y003817D01*
X016823Y003825D01*
X016814Y003831D01*
X016805Y003837D01*
X016796Y003841D01*
X016787Y003845D01*
X016778Y003848D01*
X016769Y00385D01*
X01676Y003852D01*
X016751Y003852D01*
X016868Y003969D01*
X016868Y00396D01*
D02*
G37*
G36*
X003712Y00388D02*
X003715Y003872D01*
X00372Y003864D01*
X003727Y003858D01*
X003736Y003853D01*
X003747Y003848D01*
X00376Y003844D01*
X003775Y003842D01*
X003793Y003841D01*
X003812Y00384D01*
Y00374D01*
X003793Y00374D01*
X003775Y003738D01*
X00376Y003735D01*
X003747Y003732D01*
X003736Y003728D01*
X003727Y003722D01*
X00372Y003715D01*
X003715Y003708D01*
X003712Y003699D01*
X003711Y00369D01*
Y00389D01*
X003712Y00388D01*
D02*
G37*
G36*
X002482Y00369D02*
X002481Y003699D01*
X002478Y003708D01*
X002473Y003715D01*
X002466Y003722D01*
X002457Y003728D01*
X002446Y003732D01*
X002432Y003735D01*
X002417Y003738D01*
X0024Y00374D01*
X002381Y00374D01*
Y00384D01*
X0024Y003841D01*
X002417Y003842D01*
X002432Y003844D01*
X002446Y003848D01*
X002457Y003853D01*
X002466Y003858D01*
X002473Y003864D01*
X002478Y003872D01*
X002481Y00388D01*
X002482Y00389D01*
Y00369D01*
D02*
G37*
G36*
X017637Y003627D02*
X017636Y003637D01*
X017633Y003645D01*
X017628Y003653D01*
X01762Y003659D01*
X017611Y003665D01*
X0176Y003669D01*
X017587Y003673D01*
X017572Y003675D01*
X017555Y003677D01*
X017535Y003677D01*
Y003777D01*
X017555Y003778D01*
X017572Y003779D01*
X017587Y003782D01*
X0176Y003785D01*
X017611Y00379D01*
X01762Y003795D01*
X017628Y003802D01*
X017633Y003809D01*
X017636Y003818D01*
X017637Y003827D01*
Y003627D01*
D02*
G37*
G36*
X018729Y003586D02*
X018728Y003595D01*
X018725Y003604D01*
X01872Y003611D01*
X018713Y003618D01*
X018704Y003623D01*
X018693Y003628D01*
X01868Y003631D01*
X018665Y003634D01*
X018648Y003635D01*
X018629Y003636D01*
Y003736D01*
X018648Y003736D01*
X018665Y003738D01*
X01868Y00374D01*
X018693Y003744D01*
X018704Y003748D01*
X018713Y003754D01*
X01872Y00376D01*
X018725Y003768D01*
X018728Y003776D01*
X018729Y003786D01*
Y003586D01*
D02*
G37*
G36*
X018166Y003776D02*
X018169Y003768D01*
X018174Y00376D01*
X018181Y003754D01*
X01819Y003748D01*
X018201Y003744D01*
X018214Y00374D01*
X018229Y003738D01*
X018246Y003736D01*
X018265Y003736D01*
Y003636D01*
X018246Y003635D01*
X018229Y003634D01*
X018214Y003631D01*
X018201Y003628D01*
X01819Y003623D01*
X018181Y003618D01*
X018174Y003611D01*
X018169Y003604D01*
X018166Y003595D01*
X018165Y003586D01*
Y003786D01*
X018166Y003776D01*
D02*
G37*
G36*
X016584Y003312D02*
X016582Y003308D01*
X01658Y003304D01*
X016578Y003299D01*
X016577Y003292D01*
X016576Y003284D01*
X016574Y003265D01*
X016574Y003242D01*
X016474D01*
X016474Y003254D01*
X016472Y003284D01*
X016471Y003292D01*
X016469Y003299D01*
X016468Y003304D01*
X016466Y003308D01*
X016464Y003312D01*
X016461Y003314D01*
X016587D01*
X016584Y003312D01*
D02*
G37*
G36*
X01356Y003162D02*
X013411Y003161D01*
X013421Y003162D01*
X013429Y003165D01*
X013437Y00317D01*
X013443Y003177D01*
X013449Y003186D01*
X013453Y003197D01*
X013457Y00321D01*
X013459Y003225D01*
X013461Y003243D01*
X013461Y003262D01*
X013561D01*
X01356Y003162D01*
D02*
G37*
G36*
X014586Y003159D02*
X014567Y00314D01*
X014537Y003105D01*
X014526Y00309D01*
X014517Y003077D01*
X014511Y003064D01*
X014508Y003054D01*
X014507Y003044D01*
X014509Y003036D01*
X014514Y00303D01*
X014386Y003158D01*
X014392Y003154D01*
X0144Y003152D01*
X014409Y003152D01*
X01442Y003156D01*
X014432Y003162D01*
X014446Y00317D01*
X014461Y003181D01*
X014478Y003195D01*
X014515Y00323D01*
X014586Y003159D01*
D02*
G37*
G36*
X016205Y003226D02*
X016206Y003209D01*
X016209Y003194D01*
X016212Y003181D01*
X016217Y00317D01*
X016222Y003161D01*
X016229Y003154D01*
X016236Y003149D01*
X016245Y003146D01*
X016254Y003145D01*
X016054D01*
X016064Y003146D01*
X016072Y003149D01*
X01608Y003154D01*
X016086Y003161D01*
X016092Y00317D01*
X016096Y003181D01*
X0161Y003194D01*
X016102Y003209D01*
X016104Y003226D01*
X016104Y003245D01*
X016204D01*
X016205Y003226D01*
D02*
G37*
G36*
X016497Y003145D02*
X016477Y003124D01*
X016446Y003087D01*
X016435Y003071D01*
X016426Y003056D01*
X016421Y003043D01*
X016418Y003031D01*
Y00302D01*
X016421Y003011D01*
X016426Y003003D01*
X016285Y003145D01*
X016293Y003139D01*
X016302Y003136D01*
X016313D01*
X016325Y003139D01*
X016338Y003145D01*
X016353Y003153D01*
X016369Y003164D01*
X016387Y003178D01*
X016426Y003215D01*
X016497Y003145D01*
D02*
G37*
G36*
X011989Y003221D02*
X011992Y003212D01*
X011997Y003205D01*
X012004Y003198D01*
X012013Y003192D01*
X012024Y003188D01*
X012038Y003185D01*
X012053Y003182D01*
X01207Y00318D01*
X012089Y00318D01*
Y00308D01*
X01207Y003079D01*
X012053Y003078D01*
X012038Y003076D01*
X012024Y003072D01*
X012013Y003067D01*
X012004Y003062D01*
X011997Y003056D01*
X011992Y003048D01*
X011989Y00304D01*
X011988Y00303D01*
Y00323D01*
X011989Y003221D01*
D02*
G37*
G36*
X014949Y003213D02*
X014986Y003182D01*
X015003Y00317D01*
X015017Y003162D01*
X015031Y003156D01*
X015043Y003153D01*
X015053D01*
X015063Y003156D01*
X01507Y003162D01*
X014929Y00302D01*
X014935Y003028D01*
X014937Y003037D01*
Y003048D01*
X014935Y00306D01*
X014929Y003073D01*
X01492Y003088D01*
X014909Y003104D01*
X014895Y003122D01*
X014858Y003162D01*
X014929Y003232D01*
X014949Y003213D01*
D02*
G37*
G36*
X00403Y003036D02*
X004031Y003024D01*
X004033Y003014D01*
X004035Y003003D01*
X004038Y002994D01*
X004042Y002985D01*
X004046Y002976D01*
X004051Y002968D01*
X004056Y002961D01*
X004063Y002954D01*
X003897D01*
X003904Y002961D01*
X003909Y002968D01*
X003914Y002976D01*
X003918Y002985D01*
X003922Y002994D01*
X003925Y003003D01*
X003927Y003014D01*
X003929Y003024D01*
X00393Y003036D01*
X00393Y003048D01*
X00403D01*
X00403Y003036D01*
D02*
G37*
G36*
X020169Y002926D02*
X020168Y002925D01*
X020165Y002925D01*
X02012Y002925D01*
X020069Y002924D01*
Y003024D01*
X020088Y003025D01*
X020105Y003026D01*
X02012Y003029D01*
X020134Y003032D01*
X020145Y003037D01*
X020154Y003042D01*
X020161Y003049D01*
X020166Y003056D01*
X020169Y003065D01*
X02017Y003074D01*
X020169Y002926D01*
D02*
G37*
G36*
X019718Y00305D02*
X019726Y003044D01*
X019734Y00304D01*
X019742Y003036D01*
X019751Y003032D01*
X019761Y003029D01*
X019771Y003027D01*
X019782Y003026D01*
X019794Y003025D01*
X019806Y003024D01*
X01981Y002924D01*
X019798Y002924D01*
X019786Y002923D01*
X019776Y002921D01*
X019765Y002919D01*
X019756Y002916D01*
X019747Y002912D01*
X019739Y002908D01*
X019731Y002903D01*
X019724Y002897D01*
X019717Y002891D01*
X019711Y003056D01*
X019718Y00305D01*
D02*
G37*
G36*
X002482Y00278D02*
X002481Y00279D01*
X002478Y002798D01*
X002473Y002806D01*
X002466Y002812D01*
X002457Y002817D01*
X002446Y002822D01*
X002432Y002826D01*
X002417Y002828D01*
X0024Y00283D01*
X002381Y00283D01*
Y00293D01*
X0024Y00293D01*
X002417Y002932D01*
X002432Y002934D01*
X002446Y002938D01*
X002457Y002943D01*
X002466Y002948D01*
X002473Y002955D01*
X002478Y002962D01*
X002481Y00297D01*
X002482Y00298D01*
Y00278D01*
D02*
G37*
G36*
X010904Y002859D02*
X010898Y002857D01*
X010893Y002853D01*
X010889Y002847D01*
X010885Y002839D01*
X010882Y00283D01*
X01088Y002819D01*
X010878Y002807D01*
X010877Y002793D01*
X010877Y002777D01*
X010777D01*
X010777Y002793D01*
X010774Y00283D01*
X010772Y002839D01*
X01077Y002847D01*
X010768Y002853D01*
X010765Y002857D01*
X010762Y002859D01*
X010758Y00286D01*
X01091D01*
X010904Y002859D01*
D02*
G37*
G36*
X01572Y002686D02*
X015721Y002674D01*
X015723Y002664D01*
X015725Y002653D01*
X015728Y002644D01*
X015732Y002635D01*
X015736Y002626D01*
X015741Y002618D01*
X015746Y002611D01*
X015753Y002604D01*
X015587D01*
X015594Y002611D01*
X015599Y002618D01*
X015604Y002626D01*
X015608Y002635D01*
X015612Y002644D01*
X015615Y002653D01*
X015617Y002664D01*
X015619Y002674D01*
X01562Y002686D01*
X01562Y002698D01*
X01572D01*
X01572Y002686D01*
D02*
G37*
G36*
X018628Y003212D02*
X019513D01*
X019523Y003162D01*
X019506Y003155D01*
X019445Y003094D01*
X019412Y003013D01*
Y002927D01*
X019445Y002846D01*
X019506Y002785D01*
X019587Y002752D01*
X019673D01*
X019754Y002785D01*
X019782Y002813D01*
X019789Y002818D01*
X019791Y00282D01*
X019793Y002821D01*
X019795Y002821D01*
X019797Y002821D01*
X020032D01*
X020068Y002788D01*
X020068Y002771D01*
Y002563D01*
X019794D01*
X019792Y002563D01*
X019789Y002564D01*
X019787Y002564D01*
X019786Y002565D01*
X019786Y002565D01*
X019784Y002567D01*
X019777Y002572D01*
X019754Y002595D01*
X019673Y002628D01*
X019587D01*
X019506Y002595D01*
X019445Y002534D01*
X019412Y002453D01*
Y002367D01*
X019445Y002286D01*
X019506Y002225D01*
X019587Y002192D01*
X019673D01*
X019754Y002225D01*
X019777Y002248D01*
X019784Y002253D01*
X019786Y002255D01*
X019786Y002255D01*
X019787Y002256D01*
X019789Y002256D01*
X019792Y002257D01*
X019794Y002257D01*
X020068D01*
Y002051D01*
X020068Y002037D01*
Y002001D01*
X020068Y001987D01*
Y001779D01*
X018528D01*
X017573Y002733D01*
Y0033D01*
X017571Y003312D01*
X017602Y00335D01*
X018266D01*
Y003533D01*
X018628D01*
Y003212D01*
D02*
G37*
G36*
X010365Y002556D02*
X010345Y002536D01*
X010314Y002499D01*
X010303Y002483D01*
X010294Y002468D01*
X010288Y002454D01*
X010285Y002442D01*
X010285Y002432D01*
X010288Y002423D01*
X010293Y002415D01*
X010153Y002555D01*
X010161Y00255D01*
X01017Y002547D01*
X01018Y002547D01*
X010192Y00255D01*
X010206Y002556D01*
X010221Y002564D01*
X010237Y002576D01*
X010255Y00259D01*
X010295Y002627D01*
X010365Y002556D01*
D02*
G37*
G36*
X00358Y002609D02*
X003572Y002606D01*
X003564Y002601D01*
X003558Y002594D01*
X003553Y002585D01*
X003548Y002574D01*
X003544Y002561D01*
X003542Y002546D01*
X003541Y002529D01*
X00354Y00251D01*
X00344D01*
X00344Y002529D01*
X003438Y002546D01*
X003435Y002561D01*
X003432Y002574D01*
X003428Y002585D01*
X003422Y002594D01*
X003415Y002601D01*
X003408Y002606D01*
X003399Y002609D01*
X00339Y00261D01*
X00359D01*
X00358Y002609D01*
D02*
G37*
G36*
X019721Y002486D02*
X019728Y002481D01*
X019736Y002476D01*
X019745Y002472D01*
X019754Y002468D01*
X019763Y002465D01*
X019774Y002463D01*
X019784Y002461D01*
X019796Y00246D01*
X019808Y00246D01*
Y00236D01*
X019796Y00236D01*
X019784Y002359D01*
X019774Y002357D01*
X019763Y002355D01*
X019754Y002352D01*
X019745Y002348D01*
X019736Y002344D01*
X019728Y002339D01*
X019721Y002334D01*
X019714Y002327D01*
Y002493D01*
X019721Y002486D01*
D02*
G37*
G36*
X02017Y00231D02*
X020169Y002319D01*
X020166Y002328D01*
X020161Y002335D01*
X020154Y002342D01*
X020145Y002348D01*
X020134Y002352D01*
X020121Y002356D01*
X020105Y002358D01*
X020088Y002359D01*
X020069Y00236D01*
Y00246D01*
X020088Y002461D01*
X020105Y002462D01*
X020121Y002465D01*
X020134Y002468D01*
X020145Y002473D01*
X020154Y002478D01*
X020161Y002484D01*
X020166Y002492D01*
X020169Y002501D01*
X02017Y00251D01*
Y00231D01*
D02*
G37*
G36*
X003896Y002307D02*
X003889Y002314D01*
X003882Y002319D01*
X003874Y002324D01*
X003865Y002328D01*
X003856Y002332D01*
X003847Y002335D01*
X003836Y002337D01*
X003826Y002339D01*
X003814Y00234D01*
X003802Y00234D01*
Y00244D01*
X003814Y00244D01*
X003826Y002441D01*
X003836Y002443D01*
X003847Y002445D01*
X003856Y002448D01*
X003865Y002452D01*
X003874Y002456D01*
X003882Y002461D01*
X003889Y002466D01*
X003896Y002473D01*
Y002307D01*
D02*
G37*
G36*
X011989Y00231D02*
X011992Y002302D01*
X011997Y002295D01*
X012004Y002288D01*
X012013Y002282D01*
X012024Y002278D01*
X012038Y002274D01*
X012053Y002272D01*
X01207Y002271D01*
X012089Y00227D01*
Y00217D01*
X01207Y002169D01*
X012053Y002168D01*
X012038Y002165D01*
X012024Y002162D01*
X012013Y002157D01*
X012004Y002152D01*
X011997Y002146D01*
X011992Y002138D01*
X011989Y00213D01*
X011988Y00212D01*
Y00232D01*
X011989Y00231D01*
D02*
G37*
G36*
X015469Y002243D02*
X015472Y002235D01*
X015477Y002227D01*
X015484Y002221D01*
X015493Y002215D01*
X015504Y002211D01*
X015517Y002207D01*
X015532Y002205D01*
X015549Y002203D01*
X015569Y002203D01*
Y002103D01*
X015549Y002102D01*
X015532Y002101D01*
X015517Y002098D01*
X015504Y002095D01*
X015493Y00209D01*
X015484Y002085D01*
X015477Y002078D01*
X015472Y002071D01*
X015469Y002062D01*
X015468Y002053D01*
Y002253D01*
X015469Y002243D01*
D02*
G37*
G36*
X010121Y002004D02*
X010112Y002001D01*
X010105Y001996D01*
X010098Y001989D01*
X010093Y00198D01*
X010088Y001968D01*
X010085Y001955D01*
X010082Y00194D01*
X01008Y001923D01*
X01008Y001904D01*
X00998D01*
X00998Y001923D01*
X009978Y00194D01*
X009976Y001955D01*
X009972Y001968D01*
X009967Y00198D01*
X009962Y001989D01*
X009955Y001996D01*
X009948Y002001D01*
X00994Y002004D01*
X00993Y002005D01*
X01013D01*
X010121Y002004D01*
D02*
G37*
G36*
X014311Y001929D02*
X014308Y001927D01*
X014305Y001923D01*
X014302Y001918D01*
X0143Y001912D01*
X014298Y001904D01*
X014297Y001895D01*
X014296Y001884D01*
X014295Y001859D01*
X014195D01*
X014195Y001872D01*
X014193Y001895D01*
X014192Y001904D01*
X01419Y001912D01*
X014188Y001918D01*
X014185Y001923D01*
X014182Y001927D01*
X014179Y001929D01*
X014175Y001929D01*
X014315D01*
X014311Y001929D01*
D02*
G37*
G36*
X01107Y001949D02*
X011062Y001946D01*
X011055Y001941D01*
X011048Y001934D01*
X011042Y001925D01*
X011038Y001914D01*
X011034Y001901D01*
X011032Y001886D01*
X01103Y001869D01*
X01103Y00185D01*
X01093D01*
X010929Y001869D01*
X010928Y001886D01*
X010926Y001901D01*
X010922Y001914D01*
X010918Y001925D01*
X010912Y001934D01*
X010905Y001941D01*
X010898Y001946D01*
X01089Y001949D01*
X01088Y00195D01*
X01108D01*
X01107Y001949D01*
D02*
G37*
G36*
X013381Y001931D02*
X013372Y001928D01*
X013364Y001923D01*
X013358Y001916D01*
X013353Y001907D01*
X013348Y001896D01*
X013345Y001882D01*
X013342Y001867D01*
X013341Y00185D01*
X01334Y001831D01*
X01324D01*
X01324Y00185D01*
X013238Y001867D01*
X013235Y001882D01*
X013232Y001896D01*
X013227Y001907D01*
X013222Y001916D01*
X013216Y001923D01*
X013208Y001928D01*
X013199Y001931D01*
X01319Y001932D01*
X01339D01*
X013381Y001931D01*
D02*
G37*
G36*
X017745Y001746D02*
X017812Y00169D01*
X017831Y001677D01*
X017848Y001668D01*
X017863Y001662D01*
X017876Y00166D01*
X017887Y00166D01*
X017896Y001664D01*
X017726Y001553D01*
X017733Y00156D01*
X017737Y001568D01*
X017738Y001578D01*
X017735Y001589D01*
X017729Y001603D01*
X017721Y001618D01*
X017709Y001634D01*
X017694Y001653D01*
X017654Y001695D01*
X017719Y001771D01*
X017745Y001746D01*
D02*
G37*
G36*
X016805D02*
X016872Y00169D01*
X016891Y001677D01*
X016908Y001668D01*
X016923Y001662D01*
X016936Y00166D01*
X016947Y00166D01*
X016956Y001664D01*
X016786Y001553D01*
X016793Y00156D01*
X016797Y001568D01*
X016798Y001578D01*
X016795Y001589D01*
X016789Y001603D01*
X016781Y001618D01*
X016769Y001634D01*
X016754Y001653D01*
X016714Y001695D01*
X016779Y001771D01*
X016805Y001746D01*
D02*
G37*
G36*
X02017Y001526D02*
X020169Y001535D01*
X020166Y001544D01*
X020161Y001551D01*
X020154Y001558D01*
X020145Y001563D01*
X020134Y001568D01*
X020121Y001571D01*
X020105Y001574D01*
X020088Y001575D01*
X020069Y001576D01*
Y001676D01*
X020088Y001676D01*
X020105Y001678D01*
X020121Y00168D01*
X020134Y001684D01*
X020145Y001688D01*
X020154Y001694D01*
X020161Y0017D01*
X020166Y001708D01*
X020169Y001716D01*
X02017Y001726D01*
Y001526D01*
D02*
G37*
G36*
X015846Y00135D02*
X015845Y001359D01*
X015842Y001368D01*
X015837Y001375D01*
X01583Y001382D01*
X015821Y001388D01*
X01581Y001392D01*
X015797Y001396D01*
X015782Y001398D01*
X015764Y0014D01*
X015745Y0014D01*
Y0015D01*
X015764Y0015D01*
X015782Y001502D01*
X015797Y001505D01*
X01581Y001508D01*
X015821Y001513D01*
X01583Y001518D01*
X015837Y001524D01*
X015842Y001532D01*
X015845Y00154D01*
X015846Y00155D01*
Y00135D01*
D02*
G37*
G36*
X00936Y000979D02*
X00934Y000958D01*
X009308Y000921D01*
X009297Y000905D01*
X009288Y00089D01*
X009282Y000877D01*
X009279Y000865D01*
X009279Y000854D01*
X009282Y000845D01*
X009288Y000837D01*
X009147Y000978D01*
X009155Y000972D01*
X009164Y000969D01*
X009175Y000969D01*
X009187Y000972D01*
X0092Y000978D01*
X009215Y000987D01*
X009231Y000998D01*
X009249Y001013D01*
X009289Y00105D01*
X00936Y000979D01*
D02*
G37*
G36*
X011032Y00114D02*
X011037Y001117D01*
X011045Y001093D01*
X011057Y001067D01*
X011072Y001041D01*
X01109Y001013D01*
X011112Y000984D01*
X011165Y000924D01*
X011197Y000891D01*
X010763D01*
X010795Y000924D01*
X010848Y000984D01*
X01087Y001013D01*
X010888Y001041D01*
X010903Y001067D01*
X010915Y001093D01*
X010923Y001117D01*
X010928Y00114D01*
X01093Y001162D01*
X01103D01*
X011032Y00114D01*
D02*
G37*
G36*
X00786Y001126D02*
X007862Y001105D01*
X007866Y001083D01*
X007874Y00106D01*
X007885Y001036D01*
X007898Y00101D01*
X007915Y000983D01*
X007935Y000955D01*
X007985Y000895D01*
X008014Y000864D01*
X007601Y000878D01*
X007631Y000907D01*
X007682Y000962D01*
X007703Y000988D01*
X00772Y001014D01*
X007734Y001039D01*
X007746Y001063D01*
X007754Y001086D01*
X007758Y001108D01*
X00776Y00113D01*
X00786Y001126D01*
D02*
G37*
G36*
X00686D02*
X006862Y001105D01*
X006866Y001083D01*
X006874Y00106D01*
X006885Y001036D01*
X006898Y00101D01*
X006915Y000983D01*
X006935Y000955D01*
X006985Y000895D01*
X007014Y000864D01*
X006601Y000878D01*
X006631Y000907D01*
X006682Y000962D01*
X006703Y000988D01*
X00672Y001014D01*
X006734Y001039D01*
X006746Y001063D01*
X006754Y001086D01*
X006758Y001108D01*
X00676Y00113D01*
X00686Y001126D01*
D02*
G37*
G36*
X010363Y000983D02*
X010349Y000966D01*
X010336Y000946D01*
X010325Y000923D01*
X010315Y000897D01*
X010307Y000867D01*
X010301Y000835D01*
X010296Y000799D01*
X01029Y000718D01*
X01029Y000673D01*
X009983Y00098D01*
X010028Y00098D01*
X010109Y000986D01*
X010145Y000991D01*
X010177Y000997D01*
X010207Y001005D01*
X010233Y001015D01*
X010256Y001026D01*
X010276Y001039D01*
X010293Y001053D01*
X010363Y000983D01*
D02*
G37*
G36*
X002506Y00055D02*
X002505Y00056D01*
X002502Y000568D01*
X002497Y000575D01*
X00249Y000582D01*
X002481Y000587D01*
X00247Y000592D01*
X002457Y000595D01*
X002442Y000598D01*
X002424Y0006D01*
X002405Y0006D01*
Y0007D01*
X002424Y000701D01*
X002442Y000702D01*
X002457Y000705D01*
X00247Y000708D01*
X002481Y000712D01*
X00249Y000718D01*
X002497Y000724D01*
X002502Y000732D01*
X002505Y000741D01*
X002506Y00075D01*
Y00055D01*
D02*
G37*
G36*
X003786Y000435D02*
X003779Y000432D01*
X003772Y000427D01*
X003766Y000421D01*
X003761Y000412D01*
X003757Y000401D01*
X003754Y000389D01*
X003752Y000375D01*
X00375Y000358D01*
X00375Y00034D01*
X00365D01*
X00365Y000358D01*
X003648Y000375D01*
X003646Y000389D01*
X003643Y000401D01*
X003639Y000412D01*
X003634Y000421D01*
X003628Y000427D01*
X003621Y000432D01*
X003614Y000435D01*
X003605Y000436D01*
X003795D01*
X003786Y000435D01*
D02*
G37*
%LPC*%
G36*
X00794Y008959D02*
X007918Y008955D01*
X007895D01*
X007874Y008946D01*
X007852Y008942D01*
X007833Y008929D01*
X007813Y008921D01*
X007797Y008905D01*
X007778Y008892D01*
X007765Y008873D01*
X007749Y008857D01*
X007741Y008837D01*
X007728Y008818D01*
X007724Y008796D01*
X007715Y008775D01*
Y008752D01*
X007711Y00873D01*
Y008565D01*
X007665Y008519D01*
X007449D01*
X007428Y008521D01*
X0074Y008526D01*
X007378Y008532D01*
X007364Y008538D01*
X007358Y008541D01*
X007357Y008551D01*
X007357Y008551D01*
Y008941D01*
X006723D01*
Y007684D01*
X006723Y007639D01*
X006723Y007589D01*
Y007234D01*
X006717Y00723D01*
X006703Y007224D01*
X006681Y007219D01*
X006652Y007214D01*
X006632Y007212D01*
X006373D01*
X006285Y007194D01*
X00621Y007145D01*
X005518Y006452D01*
X005468Y006378D01*
X005451Y00629D01*
Y00565D01*
X005455Y005628D01*
Y005605D01*
X005464Y005584D01*
X005468Y005562D01*
X005481Y005543D01*
X005489Y005523D01*
X005505Y005507D01*
X005518Y005488D01*
X005537Y005475D01*
X005553Y005459D01*
X005573Y005451D01*
X005592Y005438D01*
X005614Y005434D01*
X005635Y005425D01*
X005658D01*
X00568Y005421D01*
X005702Y005425D01*
X005725D01*
X005746Y005434D01*
X005768Y005438D01*
X005787Y005451D01*
X005807Y005459D01*
X005823Y005475D01*
X005842Y005488D01*
X005855Y005507D01*
X005871Y005523D01*
X005879Y005543D01*
X005892Y005562D01*
X005896Y005584D01*
X005905Y005605D01*
Y005628D01*
X005909Y00565D01*
Y006195D01*
X006468Y006753D01*
X006632D01*
X006652Y006751D01*
X006681Y006747D01*
X006703Y006741D01*
X006717Y006735D01*
X006723Y006731D01*
Y006331D01*
X007357D01*
Y007589D01*
X007357Y007634D01*
X007357Y007684D01*
Y008029D01*
X007357Y008029D01*
X007358Y008039D01*
X007364Y008042D01*
X007378Y008048D01*
X0074Y008054D01*
X007428Y008059D01*
X007449Y008061D01*
X00776D01*
X007848Y008078D01*
X007922Y008128D01*
X008102Y008308D01*
X008152Y008382D01*
X008169Y00847D01*
Y00873D01*
X008165Y008752D01*
Y008775D01*
X008156Y008796D01*
X008152Y008818D01*
X008139Y008837D01*
X008131Y008857D01*
X008115Y008873D01*
X008102Y008892D01*
X008083Y008905D01*
X008067Y008921D01*
X008047Y008929D01*
X008028Y008942D01*
X008006Y008946D01*
X007985Y008955D01*
X007962D01*
X00794Y008959D01*
D02*
G37*
G36*
X02766Y009283D02*
X02583D01*
X025771Y009271D01*
X025722Y009238D01*
X025542Y009058D01*
X025509Y009009D01*
X025502Y008973D01*
X025269D01*
Y008803D01*
X02459D01*
X024531Y008791D01*
X024482Y008758D01*
X023992Y008268D01*
X023959Y008219D01*
X023947Y00816D01*
Y003524D01*
X023947Y003522D01*
X023946Y003519D01*
X023946Y003517D01*
X023945Y003516D01*
X023945Y003516D01*
X023943Y003514D01*
X023938Y003507D01*
X023915Y003484D01*
X023882Y003403D01*
Y003317D01*
X023915Y003236D01*
X023976Y003175D01*
X024057Y003142D01*
X024143D01*
X024224Y003175D01*
X024285Y003236D01*
X024318Y003317D01*
Y003403D01*
X024285Y003484D01*
X024262Y003507D01*
X024257Y003514D01*
X024255Y003516D01*
X024255Y003516D01*
X024254Y003517D01*
X024254Y003519D01*
X024253Y003522D01*
X024253Y003524D01*
Y008097D01*
X024653Y008497D01*
X025269D01*
Y008327D01*
X026011D01*
Y008973D01*
X026059Y008977D01*
X026141D01*
X026189Y008973D01*
X026189Y008927D01*
Y008327D01*
X026931D01*
Y008497D01*
X027077D01*
X027564Y00801D01*
X027569Y008001D01*
X027576Y007988D01*
X027582Y00797D01*
X027588Y007948D01*
X027594Y007921D01*
X027598Y007891D01*
X027603Y007816D01*
X027603Y007772D01*
X027605Y007763D01*
Y007715D01*
X02762Y00766D01*
X027585Y007601D01*
X027577Y007599D01*
X027206Y007971D01*
X027156Y008004D01*
X027097Y008015D01*
X026931D01*
Y008185D01*
X026189D01*
Y008015D01*
X026011D01*
Y008185D01*
X025269D01*
Y007704D01*
X025266Y00769D01*
X025269Y007675D01*
Y00754D01*
X025404D01*
X025419Y007537D01*
X025434Y00754D01*
X026011D01*
Y00771D01*
X026189D01*
Y00754D01*
X026931D01*
Y00771D01*
X027034D01*
X029167Y005577D01*
Y003854D01*
X029167Y003852D01*
X029166Y003849D01*
X029166Y003847D01*
X029165Y003846D01*
X029165Y003846D01*
X029163Y003844D01*
X029158Y003837D01*
X029135Y003814D01*
X029102Y003733D01*
Y003647D01*
X029135Y003566D01*
X029196Y003505D01*
X029277Y003472D01*
X029363D01*
X029444Y003505D01*
X029467Y003528D01*
X029474Y003533D01*
X029476Y003535D01*
X029476Y003535D01*
X029477Y003536D01*
X029479Y003536D01*
X029482Y003537D01*
X029484Y003537D01*
X029633D01*
Y003334D01*
X029601D01*
X029543Y003323D01*
X029493Y003289D01*
X029342Y003138D01*
X029309Y003089D01*
X029297Y00303D01*
Y002781D01*
X029128D01*
Y002039D01*
X029774D01*
Y002257D01*
X030082D01*
Y002044D01*
X030838D01*
Y002776D01*
X030082D01*
Y002563D01*
X029774D01*
Y002781D01*
X029603D01*
Y002967D01*
X029665Y003028D01*
X029783D01*
X029798Y003031D01*
X030267D01*
Y003385D01*
X030269Y0034D01*
X030267Y003415D01*
Y00353D01*
X0324D01*
Y00299D01*
X03322D01*
Y00381D01*
X032607D01*
X032586Y003824D01*
X032527Y003835D01*
X030267D01*
Y004334D01*
X029633D01*
Y003843D01*
X029484D01*
X029482Y003843D01*
X029479Y003844D01*
X029477Y003844D01*
X029476Y003845D01*
X029476Y003845D01*
X029476Y003846D01*
X029475Y003846D01*
X029475Y003846D01*
X029474Y003847D01*
X029474Y003849D01*
X029473Y003852D01*
X029473Y003854D01*
Y00564D01*
X029461Y005699D01*
X029428Y005748D01*
X027849Y007327D01*
X027851Y007335D01*
X02791Y00737D01*
X027965Y007355D01*
X028075D01*
X02818Y007383D01*
X028275Y007438D01*
X028352Y007515D01*
X028407Y00761D01*
X028435Y007715D01*
Y007825D01*
X028407Y00793D01*
X028352Y008025D01*
X028275Y008102D01*
X02818Y008157D01*
X028075Y008185D01*
X028027D01*
X028018Y008187D01*
X027974Y008187D01*
X027899Y008192D01*
X027869Y008196D01*
X027842Y008202D01*
X02782Y008208D01*
X027802Y008214D01*
X027789Y008221D01*
X02778Y008226D01*
X027248Y008758D01*
X027199Y008791D01*
X02714Y008803D01*
X026931D01*
X026931Y008973D01*
X026979Y008977D01*
X02758D01*
X027582Y00897D01*
X027588Y008948D01*
X027594Y008921D01*
X027598Y008891D01*
X027603Y008816D01*
X027603Y008772D01*
X027605Y008763D01*
Y008715D01*
X027633Y00861D01*
X027688Y008515D01*
X027765Y008438D01*
X02786Y008383D01*
X027965Y008355D01*
X028075D01*
X02818Y008383D01*
X028275Y008438D01*
X028352Y008515D01*
X028407Y00861D01*
X028435Y008715D01*
Y008825D01*
X028407Y00893D01*
X028352Y009025D01*
X028275Y009102D01*
X02818Y009157D01*
X028075Y009185D01*
X028027D01*
X028018Y009187D01*
X027974Y009187D01*
X027899Y009192D01*
X027869Y009196D01*
X027842Y009202D01*
X02782Y009208D01*
X027802Y009214D01*
X027789Y009221D01*
X02778Y009226D01*
X027768Y009238D01*
X027719Y009271D01*
X02766Y009283D01*
D02*
G37*
G36*
X002261Y008562D02*
X002257Y008561D01*
X00216D01*
Y008545D01*
X002091Y008541D01*
X001502D01*
X001414Y008524D01*
X001339Y008474D01*
X001058Y008192D01*
X001008Y008118D01*
X000991Y00803D01*
Y00741D01*
X001008Y007322D01*
X001058Y007248D01*
X001353Y006953D01*
X001427Y006903D01*
X001515Y006885D01*
X002129D01*
X00216Y006884D01*
Y006865D01*
X002257D01*
X002261Y006864D01*
X002265Y006865D01*
X002273D01*
X002273Y006865D01*
X002273Y006865D01*
X003047D01*
X003047Y006865D01*
X003047Y006865D01*
X003055D01*
X003059Y006864D01*
X003063Y006865D01*
X00316D01*
Y006881D01*
X003229Y006885D01*
X00343D01*
X003451Y006884D01*
X00348Y006879D01*
X003502Y006873D01*
X003516Y006867D01*
X003522Y006863D01*
Y006494D01*
X003649D01*
X003652Y006488D01*
X003658Y006474D01*
X003664Y006452D01*
X003669Y006423D01*
X003671Y006402D01*
Y00593D01*
X003688Y005842D01*
X003738Y005768D01*
X005371Y004135D01*
Y002145D01*
X004905Y001679D01*
X004126D01*
X004114Y00168D01*
X004083Y001684D01*
X004059Y001689D01*
X004046Y001692D01*
Y001767D01*
X003949D01*
X003945Y001767D01*
X003941Y001767D01*
X003459D01*
X003455Y001767D01*
X003451Y001767D01*
X003354D01*
Y001692D01*
X003341Y001689D01*
X003318Y001684D01*
X003265Y001679D01*
X003176D01*
X003164Y00168D01*
X003133Y001684D01*
X003109Y001689D01*
X003096Y001692D01*
Y001767D01*
X002999D01*
X002995Y001767D01*
X002991Y001767D01*
X002404D01*
Y001133D01*
X002991D01*
X002995Y001133D01*
X002999Y001133D01*
X003096D01*
Y001208D01*
X003109Y001211D01*
X003132Y001216D01*
X003185Y001221D01*
X003274D01*
X003286Y00122D01*
X003317Y001216D01*
X003341Y001211D01*
X003354Y001208D01*
Y001133D01*
X003451D01*
X003455Y001133D01*
X003459Y001133D01*
X003941D01*
X003945Y001133D01*
X003949Y001133D01*
X004046D01*
Y001208D01*
X004059Y001211D01*
X004082Y001216D01*
X004135Y001221D01*
X005D01*
X005022Y001225D01*
X005045D01*
X005066Y001234D01*
X005088Y001238D01*
X005107Y001251D01*
X005127Y001259D01*
X005143Y001275D01*
X005162Y001288D01*
X005762Y001888D01*
X005812Y001962D01*
X005829Y00205D01*
Y00423D01*
X005812Y004318D01*
X005762Y004392D01*
X004129Y006025D01*
Y006402D01*
X004131Y006423D01*
X004136Y006452D01*
X004142Y006474D01*
X004148Y006488D01*
X004151Y006494D01*
X004278D01*
Y007226D01*
X003847D01*
X003796Y007277D01*
X003796Y007277D01*
X003811Y007327D01*
X004329D01*
X004388Y007339D01*
X004437Y007372D01*
X00458Y007515D01*
X004596Y00753D01*
X004608Y007539D01*
X004609Y00754D01*
X004628D01*
X004632Y007539D01*
X004635Y00754D01*
X005131D01*
Y008185D01*
X004389D01*
Y007786D01*
X004388Y007782D01*
X004389Y007778D01*
Y00776D01*
X004368Y007735D01*
X004266Y007633D01*
X004211D01*
Y008185D01*
X003469D01*
Y008015D01*
X003168D01*
X00316Y008062D01*
X00316Y008062D01*
X00316Y008062D01*
Y008561D01*
X002273D01*
X002273Y008561D01*
X002273Y008561D01*
X002265D01*
X002261Y008562D01*
D02*
G37*
G36*
X031753Y007318D02*
X031667D01*
X031586Y007285D01*
X031525Y007224D01*
X031492Y007143D01*
Y007057D01*
X031525Y006976D01*
X031548Y006953D01*
X031553Y006946D01*
X031555Y006944D01*
X031555Y006944D01*
X031556Y006943D01*
X031556Y006941D01*
X031557Y006938D01*
X031557Y006936D01*
Y00592D01*
X031569Y005861D01*
X031602Y005812D01*
X031769Y005645D01*
X031767Y005633D01*
X031711Y005594D01*
X031627Y00561D01*
X031488D01*
X03135Y005583D01*
X031221Y005529D01*
X031105Y005452D01*
X031006Y005353D01*
X030928Y005236D01*
X030875Y005107D01*
X030847Y00497D01*
Y00483D01*
X030875Y004693D01*
X030928Y004564D01*
X031006Y004447D01*
X031105Y004348D01*
X031221Y004271D01*
X03135Y004217D01*
X031488Y00419D01*
X031627D01*
X031765Y004217D01*
X031894Y004271D01*
X03201Y004348D01*
X032109Y004447D01*
X032187Y004564D01*
X03224Y004693D01*
X032268Y00483D01*
Y00497D01*
X03224Y005107D01*
X032201Y005202D01*
X03222Y005232D01*
X032237Y005247D01*
X032326D01*
X032336Y005245D01*
X032349Y00524D01*
X032366Y005232D01*
X032386Y005221D01*
X032408Y005207D01*
X032431Y005189D01*
X032487Y00514D01*
X032517Y00511D01*
X032525Y005105D01*
X032558Y005072D01*
X032652Y005018D01*
X032756Y00499D01*
X032864D01*
X032968Y005018D01*
X033062Y005072D01*
X033138Y005148D01*
X033192Y005242D01*
X03322Y005346D01*
Y005454D01*
X033192Y005558D01*
X033138Y005652D01*
X033062Y005728D01*
X032968Y005782D01*
X032864Y00581D01*
X032756D01*
X032652Y005782D01*
X032558Y005728D01*
X032525Y005695D01*
X032517Y00569D01*
X032487Y00566D01*
X032431Y005611D01*
X032408Y005593D01*
X032386Y005579D01*
X032366Y005568D01*
X032349Y00556D01*
X032336Y005555D01*
X032326Y005553D01*
X032293D01*
X031863Y005983D01*
Y00638D01*
X031913Y006401D01*
X032022Y006292D01*
X032071Y006259D01*
X03213Y006247D01*
X032326D01*
X032336Y006245D01*
X032349Y00624D01*
X032366Y006232D01*
X032386Y006221D01*
X032408Y006207D01*
X032431Y006189D01*
X032487Y00614D01*
X032517Y00611D01*
X032525Y006105D01*
X032558Y006072D01*
X032652Y006018D01*
X032756Y00599D01*
X032864D01*
X032968Y006018D01*
X033062Y006072D01*
X033138Y006148D01*
X033192Y006242D01*
X03322Y006346D01*
Y006454D01*
X033192Y006558D01*
X033138Y006652D01*
X033062Y006728D01*
X032968Y006782D01*
X032864Y00681D01*
X032756D01*
X032652Y006782D01*
X032558Y006728D01*
X032525Y006695D01*
X032517Y00669D01*
X032487Y00666D01*
X032431Y006611D01*
X032408Y006593D01*
X032386Y006579D01*
X032366Y006568D01*
X032349Y00656D01*
X032336Y006555D01*
X032326Y006553D01*
X032193D01*
X032133Y006613D01*
Y006686D01*
X032133Y006688D01*
X032134Y006691D01*
X032134Y006693D01*
X032135Y006694D01*
X032135Y006694D01*
X032137Y006696D01*
X032142Y006703D01*
X032165Y006726D01*
X032198Y006807D01*
Y006893D01*
X032165Y006974D01*
X032104Y007035D01*
X032023Y007068D01*
X031937D01*
X031928Y007074D01*
Y007143D01*
X031895Y007224D01*
X031834Y007285D01*
X031753Y007318D01*
D02*
G37*
G36*
X028318Y005589D02*
X028183D01*
X028049Y005562D01*
X027924Y005511D01*
X027811Y005435D01*
X027715Y005339D01*
X02764Y005226D01*
X027588Y005101D01*
X027561Y004968D01*
Y004832D01*
X027588Y004699D01*
X02764Y004574D01*
X027715Y004461D01*
X027811Y004365D01*
X027924Y004289D01*
X028049Y004238D01*
X028183Y004211D01*
X028318D01*
X028451Y004238D01*
X028577Y004289D01*
X02869Y004365D01*
X028786Y004461D01*
X028861Y004574D01*
X028913Y004699D01*
X028939Y004832D01*
Y004968D01*
X028913Y005101D01*
X028861Y005226D01*
X028786Y005339D01*
X02869Y005435D01*
X028577Y005511D01*
X028451Y005562D01*
X028318Y005589D01*
D02*
G37*
G36*
X006468D02*
X006332D01*
X006199Y005562D01*
X006074Y005511D01*
X005961Y005435D01*
X005865Y005339D01*
X005789Y005226D01*
X005738Y005101D01*
X005711Y004968D01*
Y004832D01*
X005738Y004699D01*
X005789Y004574D01*
X005865Y004461D01*
X005961Y004365D01*
X006074Y004289D01*
X006199Y004238D01*
X006332Y004211D01*
X006468D01*
X006601Y004238D01*
X006726Y004289D01*
X006839Y004365D01*
X006935Y004461D01*
X007011Y004574D01*
X007063Y004699D01*
X007089Y004832D01*
Y004968D01*
X007063Y005101D01*
X007011Y005226D01*
X006935Y005339D01*
X006839Y005435D01*
X006726Y005511D01*
X006601Y005562D01*
X006468Y005589D01*
D02*
G37*
G36*
X001023Y00487D02*
X000917D01*
X000816Y004843D01*
X000724Y00479D01*
X00065Y004716D01*
X000597Y004624D01*
X00057Y004523D01*
Y004417D01*
X000597Y004316D01*
X00065Y004224D01*
X000724Y00415D01*
X000816Y004097D01*
X000917Y00407D01*
X001023D01*
X001124Y004097D01*
X001216Y00415D01*
X00129Y004224D01*
X001343Y004316D01*
X00137Y004417D01*
Y004523D01*
X001343Y004624D01*
X00129Y004716D01*
X001216Y00479D01*
X001124Y004843D01*
X001023Y00487D01*
D02*
G37*
G36*
X027433Y006725D02*
X026367D01*
Y005988D01*
X026367Y005974D01*
Y005938D01*
X026367Y005924D01*
Y0052D01*
X026367Y005187D01*
Y00515D01*
X026367Y005137D01*
Y004413D01*
X026367Y004399D01*
Y004363D01*
X026367Y004349D01*
Y00414D01*
X025727D01*
X025669Y004129D01*
X025619Y004096D01*
X025338Y003814D01*
X025336Y003813D01*
X025334Y003812D01*
X025332Y003811D01*
X025331Y00381D01*
X025331Y00381D01*
X025327Y00381D01*
X025319Y003808D01*
X025287D01*
X025206Y003775D01*
X025145Y003714D01*
X025112Y003633D01*
Y003547D01*
X025145Y003466D01*
X025206Y003405D01*
X025287Y003372D01*
X025373D01*
X025454Y003405D01*
X025515Y003466D01*
X025548Y003547D01*
Y003579D01*
X02555Y003587D01*
X02555Y003591D01*
X02555Y003591D01*
X025551Y003592D01*
X025552Y003594D01*
X025553Y003596D01*
X025554Y003598D01*
X025791Y003834D01*
X026367D01*
Y003626D01*
X026367Y003612D01*
Y003576D01*
X026367Y003562D01*
Y003353D01*
X025834D01*
X025832Y003353D01*
X025829Y003354D01*
X025827Y003354D01*
X025826Y003355D01*
X025826Y003355D01*
X025824Y003357D01*
X025817Y003362D01*
X025794Y003385D01*
X025713Y003418D01*
X025627D01*
X025546Y003385D01*
X025485Y003324D01*
X025452Y003243D01*
Y003157D01*
X025485Y003076D01*
X025546Y003015D01*
X025627Y002982D01*
X025713D01*
X025794Y003015D01*
X025817Y003038D01*
X025824Y003043D01*
X025826Y003045D01*
X025826Y003045D01*
X025827Y003046D01*
X025829Y003046D01*
X025832Y003047D01*
X025834Y003047D01*
X026367D01*
Y002838D01*
X026367Y002824D01*
Y002788D01*
X026367Y002774D01*
Y002037D01*
X027433D01*
Y002257D01*
X028367D01*
Y002039D01*
X029013D01*
Y002781D01*
X028367D01*
Y002563D01*
X027433D01*
Y002774D01*
X027433Y002788D01*
Y002824D01*
X027433Y002838D01*
Y003562D01*
X027433Y003576D01*
Y003612D01*
X027433Y003626D01*
Y004349D01*
X027433Y004363D01*
Y004399D01*
X027433Y004413D01*
Y005137D01*
X027433Y00515D01*
Y005187D01*
X027433Y0052D01*
Y005924D01*
X027433Y005938D01*
Y005974D01*
X027433Y005988D01*
Y006725D01*
D02*
G37*
G36*
X001023Y00187D02*
X000917D01*
X000816Y001843D01*
X000724Y00179D01*
X00065Y001716D01*
X000597Y001624D01*
X00057Y001523D01*
Y001417D01*
X000597Y001316D01*
X00065Y001224D01*
X000724Y00115D01*
X000816Y001097D01*
X000917Y00107D01*
X001023D01*
X001124Y001097D01*
X001216Y00115D01*
X00129Y001224D01*
X001343Y001316D01*
X00137Y001417D01*
Y001523D01*
X001343Y001624D01*
X00129Y001716D01*
X001216Y00179D01*
X001124Y001843D01*
X001023Y00187D01*
D02*
G37*
%LPD*%
G36*
X007258Y008516D02*
X007265Y008495D01*
X007278Y008476D01*
X007295Y00846D01*
X007318Y008446D01*
X007345Y008435D01*
X007378Y008426D01*
X007415Y00842D01*
X007458Y008416D01*
X007505Y008415D01*
Y008165D01*
X007458Y008164D01*
X007415Y00816D01*
X007378Y008154D01*
X007345Y008145D01*
X007318Y008134D01*
X007295Y00812D01*
X007278Y008104D01*
X007265Y008085D01*
X007258Y008064D01*
X007255Y00804D01*
Y00854D01*
X007258Y008516D01*
D02*
G37*
G36*
X006826Y006733D02*
X006823Y006756D01*
X006816Y006778D01*
X006803Y006796D01*
X006786Y006813D01*
X006763Y006826D01*
X006735Y006838D01*
X006703Y006846D01*
X006665Y006853D01*
X006622Y006856D01*
X006575Y006858D01*
Y007108D01*
X006622Y007109D01*
X006665Y007113D01*
X006703Y007119D01*
X006735Y007128D01*
X006763Y007139D01*
X006786Y007153D01*
X006803Y007169D01*
X006816Y007188D01*
X006823Y007209D01*
X006826Y007233D01*
Y006733D01*
D02*
G37*
G36*
X0257Y008935D02*
X025703Y008909D01*
X025705Y008899D01*
X025707Y00889D01*
X02571Y008883D01*
X025714Y008878D01*
X025718Y008874D01*
X025723Y008871D01*
X025728Y008871D01*
X025572D01*
X025577Y008871D01*
X025582Y008874D01*
X025586Y008878D01*
X02559Y008883D01*
X025593Y00889D01*
X025595Y008899D01*
X025597Y008909D01*
X025599Y008921D01*
X0256Y008935D01*
X0256Y00895D01*
X0257D01*
X0257Y008935D01*
D02*
G37*
G36*
X027719Y009144D02*
X027739Y009131D01*
X027762Y00912D01*
X027789Y00911D01*
X027819Y009102D01*
X027852Y009096D01*
X027888Y009091D01*
X027971Y009085D01*
X028017Y009085D01*
X027705Y008773D01*
X027705Y008819D01*
X027699Y008902D01*
X027694Y008938D01*
X027688Y008971D01*
X02768Y009001D01*
X02767Y009028D01*
X027659Y009051D01*
X027646Y009071D01*
X027631Y009088D01*
X027702Y009159D01*
X027719Y009144D01*
D02*
G37*
G36*
X02683Y008741D02*
X026833Y008732D01*
X026838Y008724D01*
X026845Y008718D01*
X026854Y008712D01*
X026865Y008708D01*
X026878Y008705D01*
X026893Y008702D01*
X026911Y008701D01*
X02693Y0087D01*
Y0086D01*
X026911Y0086D01*
X026893Y008598D01*
X026878Y008595D01*
X026865Y008592D01*
X026854Y008587D01*
X026845Y008582D01*
X026838Y008576D01*
X026833Y008568D01*
X02683Y008559D01*
X026829Y00855D01*
Y00875D01*
X02683Y008741D01*
D02*
G37*
G36*
X02537Y00855D02*
X025369Y008559D01*
X025366Y008568D01*
X025361Y008576D01*
X025354Y008582D01*
X025345Y008587D01*
X025334Y008592D01*
X025321Y008595D01*
X025306Y008598D01*
X025289Y0086D01*
X02527Y0086D01*
Y0087D01*
X025289Y008701D01*
X025306Y008702D01*
X025321Y008705D01*
X025334Y008708D01*
X025345Y008712D01*
X025354Y008718D01*
X025361Y008724D01*
X025366Y008732D01*
X025369Y008741D01*
X02537Y00875D01*
Y00855D01*
D02*
G37*
G36*
X027719Y008144D02*
X027739Y008131D01*
X027762Y00812D01*
X027789Y00811D01*
X027819Y008102D01*
X027852Y008096D01*
X027888Y008091D01*
X027971Y008085D01*
X028017Y008085D01*
X027705Y007773D01*
X027705Y007819D01*
X027699Y007902D01*
X027694Y007938D01*
X027688Y007971D01*
X02768Y008001D01*
X02767Y008028D01*
X027659Y008051D01*
X027646Y008071D01*
X027631Y008088D01*
X027702Y008159D01*
X027719Y008144D01*
D02*
G37*
G36*
X02683Y007953D02*
X026833Y007945D01*
X026838Y007937D01*
X026845Y007931D01*
X026854Y007925D01*
X026865Y007921D01*
X026878Y007917D01*
X026893Y007915D01*
X026911Y007913D01*
X02693Y007913D01*
Y007813D01*
X026911Y007812D01*
X026893Y007811D01*
X026878Y007808D01*
X026865Y007805D01*
X026854Y0078D01*
X026845Y007795D01*
X026838Y007788D01*
X026833Y007781D01*
X02683Y007772D01*
X026829Y007763D01*
Y007963D01*
X02683Y007953D01*
D02*
G37*
G36*
X02629Y007763D02*
X026289Y007772D01*
X026286Y007781D01*
X026281Y007788D01*
X026274Y007795D01*
X026265Y0078D01*
X026254Y007805D01*
X026241Y007808D01*
X026226Y007811D01*
X026209Y007812D01*
X02619Y007813D01*
Y007913D01*
X026209Y007913D01*
X026226Y007915D01*
X026241Y007917D01*
X026254Y007921D01*
X026265Y007925D01*
X026274Y007931D01*
X026281Y007937D01*
X026286Y007945D01*
X026289Y007953D01*
X02629Y007963D01*
Y007763D01*
D02*
G37*
G36*
X02591Y007953D02*
X025913Y007945D01*
X025918Y007937D01*
X025925Y007931D01*
X025934Y007925D01*
X025945Y007921D01*
X025958Y007917D01*
X025973Y007915D01*
X025991Y007913D01*
X02601Y007913D01*
Y007813D01*
X025991Y007812D01*
X025973Y007811D01*
X025958Y007808D01*
X025945Y007805D01*
X025934Y0078D01*
X025925Y007795D01*
X025918Y007788D01*
X025913Y007781D01*
X02591Y007772D01*
X025909Y007763D01*
Y007963D01*
X02591Y007953D01*
D02*
G37*
G36*
X02937Y003856D02*
X029371Y003844D01*
X029373Y003834D01*
X029375Y003823D01*
X029378Y003814D01*
X029382Y003805D01*
X029386Y003796D01*
X029391Y003788D01*
X029396Y003781D01*
X029403Y003774D01*
X029237D01*
X029244Y003781D01*
X029249Y003788D01*
X029254Y003796D01*
X029258Y003805D01*
X029262Y003814D01*
X029265Y003823D01*
X029267Y003834D01*
X029269Y003844D01*
X02927Y003856D01*
X02927Y003868D01*
X02937D01*
X02937Y003856D01*
D02*
G37*
G36*
X029411Y003766D02*
X029418Y003761D01*
X029426Y003756D01*
X029435Y003752D01*
X029444Y003748D01*
X029453Y003745D01*
X029464Y003743D01*
X029474Y003741D01*
X029486Y00374D01*
X029498Y00374D01*
Y00364D01*
X029486Y00364D01*
X029474Y003639D01*
X029464Y003637D01*
X029453Y003635D01*
X029444Y003632D01*
X029435Y003628D01*
X029426Y003624D01*
X029418Y003619D01*
X029411Y003614D01*
X029404Y003607D01*
Y003773D01*
X029411Y003766D01*
D02*
G37*
G36*
X029736Y00359D02*
X029735Y0036D01*
X029732Y003608D01*
X029727Y003616D01*
X02972Y003622D01*
X029711Y003627D01*
X029699Y003632D01*
X029686Y003636D01*
X029671Y003638D01*
X029654Y00364D01*
X029635Y00364D01*
Y00374D01*
X029654Y00374D01*
X029671Y003742D01*
X029686Y003744D01*
X029699Y003748D01*
X029711Y003753D01*
X02972Y003758D01*
X029727Y003765D01*
X029732Y003772D01*
X029735Y00378D01*
X029736Y00379D01*
Y00359D01*
D02*
G37*
G36*
X03242Y003732D02*
X032465Y003729D01*
X032476Y003727D01*
X032485Y003724D01*
X032492Y003721D01*
X032497Y003717D01*
X0325Y003713D01*
X032501Y003709D01*
X032502Y003583D01*
X032501Y003592D01*
X032498Y003601D01*
X032493Y003608D01*
X032486Y003615D01*
X032477Y00362D01*
X032466Y003625D01*
X032453Y003628D01*
X032437Y003631D01*
X03242Y003632D01*
X032401Y003633D01*
Y003733D01*
X03242Y003732D01*
D02*
G37*
G36*
X030166Y003773D02*
X030169Y003765D01*
X030174Y003757D01*
X030181Y003751D01*
X03019Y003745D01*
X030201Y003741D01*
X030214Y003737D01*
X030229Y003735D01*
X030246Y003733D01*
X030265Y003733D01*
Y003633D01*
X030246Y003632D01*
X030229Y003631D01*
X030214Y003628D01*
X030201Y003625D01*
X03019Y00362D01*
X030181Y003615D01*
X030174Y003608D01*
X030169Y003601D01*
X030166Y003592D01*
X030165Y003583D01*
Y003783D01*
X030166Y003773D01*
D02*
G37*
G36*
X02415Y003526D02*
X024151Y003514D01*
X024153Y003504D01*
X024155Y003493D01*
X024158Y003484D01*
X024162Y003475D01*
X024166Y003466D01*
X024171Y003458D01*
X024176Y003451D01*
X024183Y003444D01*
X024017D01*
X024024Y003451D01*
X024029Y003458D01*
X024034Y003466D01*
X024038Y003475D01*
X024042Y003484D01*
X024045Y003493D01*
X024047Y003504D01*
X024049Y003514D01*
X02405Y003526D01*
X02405Y003538D01*
X02415D01*
X02415Y003526D01*
D02*
G37*
G36*
X029735Y003133D02*
X029734Y003132D01*
X029731Y003132D01*
X029686Y003131D01*
X029635Y003131D01*
Y003231D01*
X029654Y003232D01*
X029671Y003233D01*
X029686Y003236D01*
X029699Y003239D01*
X02971Y003244D01*
X029719Y003249D01*
X029727Y003256D01*
X029732Y003263D01*
X029735Y003272D01*
X029736Y003281D01*
X029735Y003133D01*
D02*
G37*
G36*
X029501Y002761D02*
X029502Y002743D01*
X029504Y002728D01*
X029508Y002715D01*
X029513Y002704D01*
X029518Y002695D01*
X029525Y002688D01*
X029532Y002683D01*
X029541Y00268D01*
X02955Y002679D01*
X02935D01*
X02936Y00268D01*
X029368Y002683D01*
X029376Y002688D01*
X029382Y002695D01*
X029388Y002704D01*
X029392Y002715D01*
X029395Y002728D01*
X029398Y002743D01*
X029399Y002761D01*
X0294Y00278D01*
X0295D01*
X029501Y002761D01*
D02*
G37*
G36*
X030185Y00231D02*
X030184Y002319D01*
X030181Y002328D01*
X030176Y002335D01*
X030169Y002342D01*
X03016Y002348D01*
X030148Y002352D01*
X030135Y002356D01*
X03012Y002358D01*
X030103Y002359D01*
X030084Y00236D01*
Y00246D01*
X030103Y002461D01*
X03012Y002462D01*
X030135Y002465D01*
X030148Y002468D01*
X03016Y002473D01*
X030169Y002478D01*
X030176Y002484D01*
X030181Y002492D01*
X030184Y002501D01*
X030185Y00251D01*
Y00231D01*
D02*
G37*
G36*
X029672Y002501D02*
X029675Y002492D01*
X02968Y002484D01*
X029688Y002478D01*
X029697Y002473D01*
X029708Y002468D01*
X029721Y002465D01*
X029736Y002462D01*
X029753Y002461D01*
X029773Y00246D01*
Y00236D01*
X029753Y002359D01*
X029736Y002358D01*
X029721Y002356D01*
X029708Y002352D01*
X029697Y002348D01*
X029688Y002342D01*
X02968Y002335D01*
X029675Y002328D01*
X029672Y002319D01*
X029671Y00231D01*
Y00251D01*
X029672Y002501D01*
D02*
G37*
G36*
X002261Y008163D02*
X002259Y008168D01*
X002251Y008172D01*
X002239Y008175D01*
X002221Y008178D01*
X002199Y008181D01*
X002101Y008186D01*
X002011Y008187D01*
Y008437D01*
X002059Y008437D01*
X002239Y008448D01*
X002251Y008452D01*
X002259Y008456D01*
X002261Y00846D01*
Y008163D01*
D02*
G37*
G36*
X003059Y007953D02*
X003062Y007945D01*
X003067Y007937D01*
X003074Y007931D01*
X003083Y007925D01*
X003094Y007921D01*
X003107Y007917D01*
X003122Y007915D01*
X00314Y007913D01*
X003159Y007913D01*
Y007813D01*
X00314Y007812D01*
X003108Y007809D01*
X003095Y007806D01*
X003084Y007803D01*
X003075Y007798D01*
X003068Y007793D01*
X003063Y007788D01*
X00306Y007781D01*
X003059Y007773D01*
X003058Y007963D01*
X003059Y007953D01*
D02*
G37*
G36*
X00357Y007763D02*
X003569Y007772D01*
X003566Y007781D01*
X003561Y007788D01*
X003554Y007795D01*
X003545Y0078D01*
X003534Y007805D01*
X003521Y007808D01*
X003506Y007811D01*
X003489Y007812D01*
X00347Y007813D01*
Y007913D01*
X003489Y007913D01*
X003506Y007915D01*
X003521Y007917D01*
X003534Y007921D01*
X003545Y007925D01*
X003554Y007931D01*
X003561Y007937D01*
X003566Y007945D01*
X003569Y007953D01*
X00357Y007963D01*
Y007763D01*
D02*
G37*
G36*
X004632Y007641D02*
X004624Y007646D01*
X004615Y007649D01*
X004604D01*
X004592Y007646D01*
X004579Y007641D01*
X004564Y007632D01*
X004547Y007621D01*
X00453Y007607D01*
X00449Y00757D01*
X004419Y007641D01*
X004439Y007661D01*
X00447Y007698D01*
X004482Y007714D01*
X00449Y007729D01*
X004496Y007743D01*
X004499Y007755D01*
Y007765D01*
X004496Y007774D01*
X00449Y007782D01*
X004632Y007641D01*
D02*
G37*
G36*
X003059Y00757D02*
X003062Y007562D01*
X003067Y007555D01*
X003074Y007548D01*
X003083Y007542D01*
X003094Y007538D01*
X003107Y007534D01*
X003122Y007532D01*
X00314Y007531D01*
X003159Y00753D01*
Y00743D01*
X00314Y00743D01*
X003122Y007428D01*
X003107Y007426D01*
X003094Y007422D01*
X003083Y007418D01*
X003074Y007412D01*
X003067Y007405D01*
X003062Y007398D01*
X003059Y00739D01*
X003058Y00738D01*
Y00758D01*
X003059Y00757D01*
D02*
G37*
G36*
X003061Y007259D02*
X003069Y007255D01*
X003081Y007251D01*
X003099Y007248D01*
X003121Y007246D01*
X003219Y007241D01*
X003309Y00724D01*
Y00699D01*
X003261Y00699D01*
X003081Y006978D01*
X003069Y006975D01*
X003061Y006971D01*
X003059Y006966D01*
Y007263D01*
X003061Y007259D01*
D02*
G37*
G36*
X002261Y006966D02*
X002259Y006971D01*
X002251Y006975D01*
X002239Y006978D01*
X002221Y006981D01*
X002199Y006984D01*
X002101Y006989D01*
X002011Y00699D01*
Y00724D01*
X002059Y00724D01*
X002239Y007251D01*
X002251Y007255D01*
X002259Y007259D01*
X002261Y007263D01*
Y006966D01*
D02*
G37*
G36*
X003624Y007125D02*
X003625Y006865D01*
X003622Y006889D01*
X003615Y00691D01*
X003602Y006929D01*
X003584Y006945D01*
X003562Y006959D01*
X003534Y00697D01*
X003502Y006979D01*
X003464Y006985D01*
X003421Y006989D01*
X003374Y00699D01*
Y00724D01*
X003624Y007125D01*
D02*
G37*
G36*
X004126Y006594D02*
X004105Y006587D01*
X004086Y006574D01*
X00407Y006556D01*
X004056Y006534D01*
X004045Y006506D01*
X004036Y006474D01*
X00403Y006436D01*
X004026Y006393D01*
X004025Y006345D01*
X003775D01*
X003774Y006393D01*
X00377Y006436D01*
X003764Y006474D01*
X003755Y006506D01*
X003744Y006534D01*
X00373Y006556D01*
X003714Y006574D01*
X003695Y006587D01*
X003674Y006594D01*
X00365Y006597D01*
X00415D01*
X004126Y006594D01*
D02*
G37*
G36*
X003455Y001235D02*
X003453Y001252D01*
X003445Y001267D01*
X003433Y001281D01*
X003415Y001292D01*
X003393Y001302D01*
X003365Y001311D01*
X003333Y001317D01*
X003295Y001321D01*
X003253Y001324D01*
X003225Y001325D01*
X003197Y001324D01*
X003117Y001317D01*
X003085Y001311D01*
X003057Y001302D01*
X003035Y001292D01*
X003017Y001281D01*
X003005Y001267D01*
X002997Y001252D01*
X002995Y001235D01*
Y001665D01*
X002997Y001648D01*
X003005Y001633D01*
X003017Y001619D01*
X003035Y001608D01*
X003057Y001598D01*
X003085Y001589D01*
X003117Y001583D01*
X003155Y001579D01*
X003197Y001576D01*
X003225Y001575D01*
X003253Y001576D01*
X003333Y001583D01*
X003365Y001589D01*
X003393Y001598D01*
X003415Y001608D01*
X003433Y001619D01*
X003445Y001633D01*
X003453Y001648D01*
X003455Y001665D01*
Y001235D01*
D02*
G37*
G36*
X003947Y001648D02*
X003955Y001633D01*
X003967Y001619D01*
X003985Y001608D01*
X004007Y001598D01*
X004035Y001589D01*
X004067Y001583D01*
X004105Y001579D01*
X004147Y001576D01*
X004195Y001575D01*
Y001325D01*
X004147Y001324D01*
X004067Y001317D01*
X004035Y001311D01*
X004007Y001302D01*
X003985Y001292D01*
X003967Y001281D01*
X003955Y001267D01*
X003947Y001252D01*
X003945Y001235D01*
Y001665D01*
X003947Y001648D01*
D02*
G37*
G36*
X031786Y007009D02*
X031781Y007002D01*
X031776Y006994D01*
X031772Y006985D01*
X031768Y006976D01*
X031765Y006967D01*
X031763Y006956D01*
X031761Y006946D01*
X03176Y006934D01*
X03176Y006922D01*
X03166D01*
X03166Y006934D01*
X031659Y006946D01*
X031657Y006956D01*
X031655Y006967D01*
X031652Y006976D01*
X031648Y006985D01*
X031644Y006994D01*
X031639Y007002D01*
X031634Y007009D01*
X031627Y007016D01*
X031793D01*
X031786Y007009D01*
D02*
G37*
G36*
X032056Y006759D02*
X032051Y006752D01*
X032046Y006744D01*
X032042Y006735D01*
X032038Y006726D01*
X032035Y006717D01*
X032033Y006706D01*
X032031Y006696D01*
X03203Y006684D01*
X03203Y006672D01*
X03193D01*
X03193Y006684D01*
X031929Y006696D01*
X031927Y006706D01*
X031925Y006717D01*
X031922Y006726D01*
X031918Y006735D01*
X031914Y006744D01*
X031909Y006752D01*
X031904Y006759D01*
X031897Y006766D01*
X032063D01*
X032056Y006759D01*
D02*
G37*
G36*
X032589Y006183D02*
X032556Y006215D01*
X032496Y006268D01*
X032467Y00629D01*
X032439Y006308D01*
X032413Y006323D01*
X032387Y006335D01*
X032363Y006343D01*
X03234Y006348D01*
X032318Y00635D01*
Y00645D01*
X03234Y006452D01*
X032363Y006457D01*
X032387Y006465D01*
X032413Y006477D01*
X032439Y006492D01*
X032467Y00651D01*
X032496Y006532D01*
X032556Y006585D01*
X032589Y006617D01*
Y006183D01*
D02*
G37*
G36*
Y005183D02*
X032556Y005215D01*
X032496Y005268D01*
X032467Y00529D01*
X032439Y005308D01*
X032413Y005323D01*
X032387Y005335D01*
X032363Y005343D01*
X03234Y005348D01*
X032318Y00535D01*
Y00545D01*
X03234Y005452D01*
X032363Y005457D01*
X032387Y005465D01*
X032413Y005477D01*
X032439Y005492D01*
X032467Y00551D01*
X032496Y005532D01*
X032556Y005585D01*
X032589Y005617D01*
Y005183D01*
D02*
G37*
G36*
X026469Y003887D02*
X026468Y003897D01*
X026465Y003905D01*
X02646Y003913D01*
X026453Y003919D01*
X026444Y003925D01*
X026433Y003929D01*
X02642Y003933D01*
X026405Y003935D01*
X026387Y003937D01*
X026368Y003937D01*
Y004037D01*
X026387Y004038D01*
X026405Y004039D01*
X02642Y004042D01*
X026433Y004045D01*
X026444Y00405D01*
X026453Y004055D01*
X02646Y004062D01*
X026465Y004069D01*
X026468Y004078D01*
X026469Y004087D01*
Y003887D01*
D02*
G37*
G36*
X025491Y00368D02*
X025483Y003672D01*
X025475Y003663D01*
X025469Y003654D01*
X025463Y003645D01*
X025459Y003636D01*
X025455Y003627D01*
X025452Y003618D01*
X02545Y003609D01*
X025448Y0036D01*
X025448Y003591D01*
X025331Y003708D01*
X02534Y003708D01*
X025349Y00371D01*
X025358Y003712D01*
X025367Y003715D01*
X025376Y003719D01*
X025385Y003723D01*
X025394Y003729D01*
X025403Y003735D01*
X025412Y003743D01*
X02542Y003751D01*
X025491Y00368D01*
D02*
G37*
G36*
X025761Y003276D02*
X025768Y003271D01*
X025776Y003266D01*
X025785Y003262D01*
X025794Y003258D01*
X025803Y003255D01*
X025814Y003253D01*
X025824Y003251D01*
X025836Y00325D01*
X025848Y00325D01*
Y00315D01*
X025836Y00315D01*
X025824Y003149D01*
X025814Y003147D01*
X025803Y003145D01*
X025794Y003142D01*
X025785Y003138D01*
X025776Y003134D01*
X025768Y003129D01*
X025761Y003124D01*
X025754Y003117D01*
Y003283D01*
X025761Y003276D01*
D02*
G37*
G36*
X026469Y0031D02*
X026468Y00311D01*
X026465Y003118D01*
X02646Y003126D01*
X026453Y003132D01*
X026444Y003137D01*
X026433Y003142D01*
X02642Y003146D01*
X026405Y003148D01*
X026387Y003149D01*
X026368Y00315D01*
Y00325D01*
X026387Y00325D01*
X026405Y003252D01*
X02642Y003255D01*
X026433Y003258D01*
X026444Y003262D01*
X026453Y003268D01*
X02646Y003275D01*
X026465Y003282D01*
X026468Y003291D01*
X026469Y0033D01*
Y0031D01*
D02*
G37*
G36*
X028469Y00231D02*
X028468Y002319D01*
X028465Y002328D01*
X02846Y002335D01*
X028453Y002342D01*
X028444Y002348D01*
X028433Y002352D01*
X02842Y002356D01*
X028405Y002358D01*
X028387Y002359D01*
X028368Y00236D01*
Y00246D01*
X028387Y002461D01*
X028405Y002462D01*
X02842Y002465D01*
X028433Y002468D01*
X028444Y002473D01*
X028453Y002478D01*
X02846Y002484D01*
X028465Y002492D01*
X028468Y002501D01*
X028469Y00251D01*
Y00231D01*
D02*
G37*
G36*
X027332Y002501D02*
X027335Y002492D01*
X02734Y002484D01*
X027347Y002478D01*
X027356Y002473D01*
X027367Y002468D01*
X02738Y002465D01*
X027395Y002462D01*
X027413Y002461D01*
X027432Y00246D01*
Y00236D01*
X027413Y002359D01*
X027395Y002358D01*
X02738Y002356D01*
X027367Y002352D01*
X027356Y002348D01*
X027347Y002342D01*
X02734Y002335D01*
X027335Y002328D01*
X027332Y002319D01*
X027331Y00231D01*
Y00251D01*
X027332Y002501D01*
D02*
G37*
D11*
X01003Y00172D02*
Y00228D01*
X00898Y00067D02*
X01003Y00172D01*
Y00228D02*
Y002292D01*
X0111Y00579D02*
X01191D01*
X00681Y0015D02*
X0111Y00579D01*
X00681Y00067D02*
Y0015D01*
X00781Y00214D02*
X01121Y00554D01*
X00781Y00067D02*
Y00214D01*
X01121Y00554D02*
X01212D01*
X00349Y00379D02*
X00385D01*
X00398Y00287D02*
Y00366D01*
X00385Y00379D02*
X00398Y00366D01*
X018472Y006134D02*
X018688Y00635D01*
X018279Y005929D02*
X018472Y006122D01*
X017327Y005929D02*
X018279D01*
X018472Y006122D02*
Y006134D01*
X018688Y00635D02*
X0187D01*
X017324Y005932D02*
X017327Y005929D01*
X016745Y005932D02*
X017324D01*
X014186Y00731D02*
Y00781D01*
X014766Y00839D01*
X014777D01*
X010827Y002777D02*
Y002977D01*
X01053Y00248D02*
X010827Y002777D01*
Y002977D02*
X01098Y00313D01*
X01053Y00122D02*
Y00248D01*
X00998Y00067D02*
X01053Y00122D01*
X01098Y00067D02*
Y00222D01*
X0068Y00066D02*
X00681Y00067D01*
X0078Y00066D02*
X00781Y00067D01*
X00349Y00251D02*
X00361Y00239D01*
X00349Y00251D02*
Y00288D01*
X00361Y00239D02*
X00398D01*
X004329Y00748D02*
X004712Y007863D01*
X00266Y007516D02*
X002696Y00748D01*
X004329D01*
X00218Y00275D02*
X00231Y00288D01*
X002703D01*
X00218Y00082D02*
Y00275D01*
Y00082D02*
X00235Y00065D01*
X00198Y00075D02*
Y00356D01*
X00221Y00379D02*
X002703D01*
X00198Y00356D02*
X00221Y00379D01*
X00198Y00075D02*
X00247Y00026D01*
X0037Y00034D02*
Y00065D01*
X00247Y00026D02*
X00362D01*
X0037Y00034D01*
X00235Y00065D02*
X00275D01*
X00266Y00791D02*
X002707Y007863D01*
X00384D01*
X004712D02*
X00476D01*
X013005Y005735D02*
X013398D01*
X01275Y00599D02*
X013005Y005735D01*
X012751Y005539D02*
X013398D01*
X013398Y005538D01*
X01275Y00554D02*
X012751Y005539D01*
X01486Y004936D02*
X014973Y004823D01*
Y003964D02*
Y004823D01*
X01486Y004936D02*
Y00495D01*
X03198Y00655D02*
Y00685D01*
X03213Y0064D02*
X03281D01*
X03198Y00655D02*
X03213Y0064D01*
X03171Y00592D02*
X03223Y0054D01*
X03281D01*
X03171Y00592D02*
Y0071D01*
X01498Y00518D02*
X01517Y00499D01*
Y003964D02*
Y00499D01*
X01455Y00518D02*
X01498D01*
X032527Y003683D02*
X03281Y0034D01*
X02995Y003683D02*
X032527D01*
X02564Y007863D02*
X02656D01*
X025592D02*
X02564D01*
X027097D02*
X02932Y00564D01*
Y00369D02*
Y00564D01*
X02656Y007863D02*
X027097D01*
X02995Y003567D02*
X030117Y0034D01*
X02995Y003567D02*
Y003683D01*
Y003348D02*
Y003567D01*
X029943Y00369D02*
X02995Y003683D01*
X02932Y00369D02*
X029943D01*
X0241Y00336D02*
Y00816D01*
X01567Y00252D02*
Y00322D01*
X015367Y003523D02*
X01567Y00322D01*
X015367Y003523D02*
Y003964D01*
X025419Y00769D02*
X025592Y007863D01*
X02459Y00865D02*
X02564D01*
X0241Y00816D02*
X02459Y00865D01*
X016834Y001617D02*
Y001646D01*
X014304Y0018D02*
X01668D01*
X017Y00145D02*
X01703D01*
X016834Y001617D02*
X017Y00145D01*
X01668Y0018D02*
X016834Y001646D01*
X014245Y001859D02*
X014304Y0018D01*
X014245Y001859D02*
Y00215D01*
X01794Y00145D02*
X01797D01*
X017774Y001617D02*
Y001646D01*
X015199Y002153D02*
X017267D01*
X017774Y001646D01*
Y001617D02*
X01794Y00145D01*
X015957Y006727D02*
Y00731D01*
X01548Y00625D02*
X015957Y006727D01*
X015366Y006626D02*
Y007309D01*
X01536Y00662D02*
X015366Y006626D01*
Y007309D02*
X015367Y00731D01*
X019604Y002974D02*
X020375D01*
X0196Y00297D02*
X019604Y002974D01*
X01742Y00267D02*
X018464Y001626D01*
X01742Y00267D02*
Y0033D01*
X018464Y001626D02*
X020601D01*
X01675Y00397D02*
X01742Y0033D01*
X02533Y00359D02*
X025727Y003987D01*
X0269D01*
X02567Y0032D02*
X0269D01*
X020601Y003987D02*
X020603Y00399D01*
X02179D01*
X020375Y002974D02*
X020601Y0032D01*
X020598Y00241D02*
X020601Y002413D01*
X01963Y00241D02*
X020598D01*
X016744Y005736D02*
X016745Y005735D01*
X01587Y00574D02*
X015874Y005736D01*
X016744D01*
X015564Y008067D02*
X01563Y008133D01*
X015564Y00731D02*
Y008067D01*
X01563Y008133D02*
Y00817D01*
X01536Y00808D02*
Y00837D01*
X0159Y00803D02*
Y00837D01*
X015761Y00731D02*
Y007891D01*
X0159Y00803D01*
X014778Y007908D02*
X01478Y00791D01*
X014776Y00731D02*
X014778Y007311D01*
Y007908D01*
X014973Y007693D02*
X01536Y00808D01*
X014973Y00731D02*
Y007693D01*
X01712Y00862D02*
Y00905D01*
X01689Y00928D02*
X01712Y00905D01*
X0147Y00928D02*
X01689D01*
X02714Y00865D02*
X02802Y00777D01*
X02656Y00865D02*
X02714D01*
X02564D02*
X02565Y00866D01*
Y00895D01*
X02583Y00913D01*
X02766D01*
X02802Y00877D01*
X02945Y002411D02*
Y00303D01*
Y002411D02*
X029451Y00241D01*
X02945Y00303D02*
X029601Y003181D01*
X029783D01*
X02995Y003348D01*
X029451Y00241D02*
X03046D01*
X0269Y002413D02*
X026903Y00241D01*
X02869D01*
X016155Y006325D02*
X016744D01*
X016745Y006326D01*
X01615Y00632D02*
X016155Y006325D01*
X01712Y00724D02*
Y00862D01*
Y00724D02*
X017913D01*
X017168Y005342D02*
X01732Y00519D01*
Y00379D02*
X017383Y003727D01*
X01732Y00379D02*
Y00519D01*
X017383Y003727D02*
X0179D01*
X01733Y00637D02*
X017893D01*
X017913Y00635D01*
X01768Y006129D02*
X017901Y00635D01*
X016524Y003242D02*
Y003414D01*
X01615Y00288D02*
X016162D01*
X016524Y003242D01*
X014229Y004949D02*
X01423Y00495D01*
X013398Y004948D02*
X013399Y004949D01*
X014229D01*
X01329Y00167D02*
X01351Y00145D01*
X01609D01*
X01329Y00167D02*
Y002153D01*
X01203Y004583D02*
X012207Y00476D01*
X01203Y00411D02*
Y004583D01*
X01089Y00411D02*
X01203D01*
X01043Y00365D02*
X01089Y00411D01*
X01043Y002692D02*
Y00365D01*
X01003Y002292D02*
X01043Y002692D01*
X01229Y003911D02*
X01247Y004091D01*
Y00411D01*
X01229Y00327D02*
Y003911D01*
X01215Y00313D02*
X01229Y00327D01*
X011767Y00313D02*
X01215D01*
X0125Y00359D02*
X012874Y003964D01*
X013989D01*
X0125Y00253D02*
Y00359D01*
X01219Y00222D02*
X0125Y00253D01*
X011767Y00222D02*
X01219D01*
X01098D02*
X01107Y00213D01*
X01329Y00294D02*
X013338D01*
X013511Y003113D01*
Y003372D02*
X013619Y00348D01*
X01432D01*
X013511Y003113D02*
Y003372D01*
X01432Y00348D02*
X014383Y003543D01*
Y003964D01*
X014579Y003224D02*
Y003964D01*
X014293Y002937D02*
X014579Y003224D01*
X014245Y002937D02*
X014293D01*
X014776Y003314D02*
Y003964D01*
Y003314D02*
X015151Y00294D01*
X015199D01*
X01238Y00698D02*
Y00783D01*
Y004933D02*
Y00698D01*
X01136D02*
X01238D01*
X012207Y00476D02*
X01238Y004933D01*
Y00783D02*
X01294Y00839D01*
X01399D01*
X01615Y00288D02*
X016154Y002884D01*
Y003964D01*
X012207Y00476D02*
X012413Y004554D01*
X013398D01*
X016745Y006129D02*
X01768D01*
X017901Y00635D02*
X017913D01*
X013913Y008467D02*
X01399Y00839D01*
X013913Y008467D02*
Y00928D01*
X013989Y00731D02*
Y008389D01*
X01399Y00839D01*
X017942Y003686D02*
X0192D01*
X0179Y003727D02*
X017942Y003686D01*
X016745Y005342D02*
X017168D01*
X017792Y005538D02*
X01789Y00544D01*
X016745Y005538D02*
X017792D01*
X01789Y00544D02*
X01803Y0053D01*
X0192D01*
D18*
X00704Y00829D02*
D03*
Y006983D02*
D03*
X01136Y008287D02*
D03*
Y00698D02*
D03*
X02995Y003683D02*
D03*
Y00499D02*
D03*
D19*
X01609Y00065D02*
D03*
Y00145D02*
D03*
X01703Y00065D02*
D03*
Y00145D02*
D03*
X00275Y00065D02*
D03*
Y00145D02*
D03*
X0037Y00065D02*
D03*
Y00145D02*
D03*
X01797Y00065D02*
D03*
Y00145D02*
D03*
D20*
X020348Y00862D02*
D03*
X01712D02*
D03*
D21*
X016745Y004554D02*
D03*
Y004751D02*
D03*
Y004948D02*
D03*
Y005145D02*
D03*
Y005342D02*
D03*
Y005538D02*
D03*
Y005735D02*
D03*
Y005932D02*
D03*
Y006129D02*
D03*
Y006326D02*
D03*
Y006523D02*
D03*
Y00672D02*
D03*
X013398D02*
D03*
Y006523D02*
D03*
Y006326D02*
D03*
Y006129D02*
D03*
Y005932D02*
D03*
Y005735D02*
D03*
Y005538D02*
D03*
Y005342D02*
D03*
Y005145D02*
D03*
Y004948D02*
D03*
Y004751D02*
D03*
Y004554D02*
D03*
D22*
X016154Y00731D02*
D03*
X015957Y00731D02*
D03*
X015761Y00731D02*
D03*
X015564Y00731D02*
D03*
X015367Y00731D02*
D03*
X01517Y00731D02*
D03*
X014973Y00731D02*
D03*
X014776Y00731D02*
D03*
X014579Y00731D02*
D03*
X014383Y00731D02*
D03*
X014186Y00731D02*
D03*
X013989Y00731D02*
D03*
X013989Y003964D02*
D03*
X014186Y003964D02*
D03*
X014383Y003964D02*
D03*
X014579Y003964D02*
D03*
X014776Y003964D02*
D03*
X014973Y003964D02*
D03*
X01517Y003964D02*
D03*
X015367Y003964D02*
D03*
X015564Y003964D02*
D03*
X015761Y003964D02*
D03*
X015957Y003964D02*
D03*
X016154Y003964D02*
D03*
D23*
X020601Y000838D02*
D03*
Y001626D02*
D03*
Y002413D02*
D03*
Y0032D02*
D03*
Y003987D02*
D03*
Y004775D02*
D03*
Y005562D02*
D03*
Y00635D02*
D03*
X0269D02*
D03*
Y005562D02*
D03*
Y004775D02*
D03*
Y003987D02*
D03*
Y0032D02*
D03*
Y002413D02*
D03*
Y001625D02*
D03*
Y000838D02*
D03*
D24*
X0192Y0053D02*
D03*
Y003686D02*
D03*
D43*
X03102Y00877D02*
D03*
Y00777D02*
D03*
X02802D02*
D03*
Y00877D02*
D03*
D48*
X00349Y00379D02*
D03*
X002703D02*
D03*
X02869Y00241D02*
D03*
X029451D02*
D03*
X0147Y00928D02*
D03*
X013913D02*
D03*
X002703Y00288D02*
D03*
X00349D02*
D03*
X01098Y00313D02*
D03*
X011767D02*
D03*
X01098Y00222D02*
D03*
X011767D02*
D03*
D49*
X0039Y00686D02*
D03*
X004687D02*
D03*
X017913Y00724D02*
D03*
X0187D02*
D03*
X017913Y00635D02*
D03*
X0187D02*
D03*
X01399Y00839D02*
D03*
X014777D02*
D03*
X012207Y00476D02*
D03*
X01142D02*
D03*
X016937Y00288D02*
D03*
X01615D02*
D03*
X031247Y00241D02*
D03*
X03046D02*
D03*
D50*
X00266Y007516D02*
D03*
X00266Y00791D02*
D03*
D51*
Y007115D02*
D03*
X00266Y008312D02*
D03*
D52*
X00266Y006631D02*
D03*
X00266Y008796D02*
D03*
D53*
X01789Y00544D02*
D03*
Y004653D02*
D03*
X01003Y00228D02*
D03*
Y003067D02*
D03*
X0179Y00294D02*
D03*
Y003727D02*
D03*
D54*
X00476Y00865D02*
D03*
Y007863D02*
D03*
X00384Y00865D02*
D03*
Y007863D02*
D03*
X02656Y00865D02*
D03*
Y007863D02*
D03*
X02564Y00865D02*
D03*
Y007863D02*
D03*
X015199Y00294D02*
D03*
Y002153D02*
D03*
X014245Y00215D02*
D03*
Y002937D02*
D03*
X01329Y002153D02*
D03*
Y00294D02*
D03*
D55*
X01136Y00698D02*
Y007308D01*
X011268Y0074D02*
X01136Y007308D01*
X01051Y0074D02*
X011268D01*
X00794Y00847D02*
Y00873D01*
X00776Y00829D02*
X00794Y00847D01*
X00704Y00829D02*
X00776D01*
X00568Y00565D02*
Y00629D01*
X006373Y006983D02*
X00704D01*
X00568Y00629D02*
X006373Y006983D01*
X005Y00145D02*
X0056Y00205D01*
Y00423D01*
X0037Y00145D02*
X005D01*
X00275D02*
X0037D01*
X00122Y00741D02*
X001515Y007115D01*
X00266D01*
X00122Y00741D02*
Y00803D01*
X00266Y007115D02*
X003633D01*
X001502Y008312D02*
X00266D01*
X00122Y00803D02*
X001502Y008312D01*
X0039Y00593D02*
X0056Y00423D01*
X0039Y00593D02*
Y00686D01*
X003633Y007115D02*
X003888Y00686D01*
X0039D01*
D56*
X003093Y0049D02*
D03*
X031557D02*
D03*
D57*
X0064D02*
D03*
X02825D02*
D03*
D58*
X01198Y00067D02*
D03*
X01098D02*
D03*
X00998D02*
D03*
X03281Y0044D02*
D03*
Y0054D02*
D03*
Y0064D02*
D03*
D59*
X00898Y00067D02*
D03*
D60*
X0078Y00066D02*
D03*
X0068D02*
D03*
D61*
X001133Y009414D02*
D03*
X002629D02*
D03*
X001132Y006012D02*
D03*
X002629D02*
D03*
D62*
X00097Y00447D02*
D03*
Y00147D02*
D03*
D63*
X03281Y0034D02*
D03*
D64*
X01174Y00521D02*
D03*
X01395Y00462D02*
D03*
X016937Y00288D02*
D03*
X0179Y00294D02*
D03*
X005343Y00798D02*
D03*
X0328Y0088D02*
D03*
Y0072D02*
D03*
Y0024D02*
D03*
Y0008D02*
D03*
X0324Y008D02*
D03*
Y0048D02*
D03*
X032Y004D02*
D03*
Y0024D02*
D03*
X0324Y0016D02*
D03*
X032Y0008D02*
D03*
X0312Y0072D02*
D03*
Y004D02*
D03*
X0316Y0032D02*
D03*
Y0016D02*
D03*
X0312Y0008D02*
D03*
X0304Y0088D02*
D03*
Y0072D02*
D03*
X0308Y0064D02*
D03*
X0304Y0056D02*
D03*
Y004D02*
D03*
X0308Y0032D02*
D03*
Y0016D02*
D03*
X0304Y0008D02*
D03*
X0296Y0088D02*
D03*
X03Y008D02*
D03*
X0296Y0072D02*
D03*
X03Y0064D02*
D03*
Y0016D02*
D03*
X0296Y0008D02*
D03*
X0288Y0088D02*
D03*
X0292Y008D02*
D03*
X0288Y0072D02*
D03*
X0292Y0064D02*
D03*
X0288Y0056D02*
D03*
Y004D02*
D03*
X0292Y0016D02*
D03*
X0288Y0008D02*
D03*
X028Y004D02*
D03*
X0284Y0032D02*
D03*
Y0016D02*
D03*
X028Y0008D02*
D03*
X0272Y0072D02*
D03*
X0276Y0064D02*
D03*
Y0032D02*
D03*
X0264Y0072D02*
D03*
X0256D02*
D03*
X026Y0064D02*
D03*
X0256Y0056D02*
D03*
X026Y0048D02*
D03*
X0256Y0024D02*
D03*
Y0008D02*
D03*
X0248Y0072D02*
D03*
X0252Y0064D02*
D03*
X0248Y0056D02*
D03*
X0252Y0048D02*
D03*
Y0032D02*
D03*
X0248Y0024D02*
D03*
Y0008D02*
D03*
X0244Y008D02*
D03*
Y0064D02*
D03*
Y0048D02*
D03*
Y0032D02*
D03*
X024Y0024D02*
D03*
Y0008D02*
D03*
X0236Y008D02*
D03*
X0232Y0072D02*
D03*
X0236Y0064D02*
D03*
X0232Y0056D02*
D03*
X0236Y0048D02*
D03*
X0232Y0024D02*
D03*
Y0008D02*
D03*
X0228Y008D02*
D03*
X0224Y0072D02*
D03*
X0228Y0064D02*
D03*
X0224Y0056D02*
D03*
X0228Y0048D02*
D03*
X0224Y0008D02*
D03*
X022Y008D02*
D03*
X0216Y0072D02*
D03*
X022Y0064D02*
D03*
X0216Y0056D02*
D03*
X022Y0048D02*
D03*
X0216Y0008D02*
D03*
X0212Y008D02*
D03*
X0208Y0072D02*
D03*
X0204Y008D02*
D03*
X0196D02*
D03*
X0192Y0008D02*
D03*
X0184Y0056D02*
D03*
Y004D02*
D03*
Y0008D02*
D03*
X0152Y0056D02*
D03*
Y0008D02*
D03*
X0148Y0064D02*
D03*
X0144Y0008D02*
D03*
X0136Y0072D02*
D03*
X014Y0064D02*
D03*
X0136Y0008D02*
D03*
X0128Y0088D02*
D03*
X0132Y008D02*
D03*
X0128Y0072D02*
D03*
Y0024D02*
D03*
Y0008D02*
D03*
X012Y0088D02*
D03*
X0104D02*
D03*
X0108Y008D02*
D03*
X0096Y0088D02*
D03*
X01Y008D02*
D03*
X0096Y0072D02*
D03*
X0088Y0088D02*
D03*
X0092Y008D02*
D03*
X0088Y0072D02*
D03*
X0092Y0016D02*
D03*
X0084Y008D02*
D03*
X008Y0056D02*
D03*
X0084Y0048D02*
D03*
X0072Y0056D02*
D03*
X0076Y0048D02*
D03*
X0056Y0008D02*
D03*
X0048Y0056D02*
D03*
Y0008D02*
D03*
X002Y0064D02*
D03*
X0016Y0024D02*
D03*
X0008Y0088D02*
D03*
X0012Y0064D02*
D03*
X00398Y00287D02*
D03*
Y00239D02*
D03*
X01191Y00579D02*
D03*
X01275Y00554D02*
D03*
Y00599D02*
D03*
X01212Y00554D02*
D03*
X03171Y0071D02*
D03*
X03198Y00685D02*
D03*
X01455Y00518D02*
D03*
X01486Y00495D02*
D03*
X02932Y00369D02*
D03*
X0241Y00336D02*
D03*
X01567Y00252D02*
D03*
X01536Y00662D02*
D03*
X01963Y00297D02*
D03*
X01675Y00397D02*
D03*
X01587Y00574D02*
D03*
X01563Y00817D02*
D03*
X0159Y00837D02*
D03*
X01478Y00791D02*
D03*
X01536Y00837D02*
D03*
X02179Y00399D02*
D03*
X01963Y00241D02*
D03*
X02567Y0032D02*
D03*
X02533Y00359D02*
D03*
X01548Y00625D02*
D03*
X01615Y00632D02*
D03*
X01712Y00724D02*
D03*
X01733Y00637D02*
D03*
X016524Y003414D02*
D03*
X01423Y00495D02*
D03*
X01247Y00411D02*
D03*
X01203D02*
D03*
D65*
X01051Y0074D02*
D03*
X00794Y00873D02*
D03*
X00568Y00565D02*
D03*
X005Y00145D02*
D03*
M02*
