G04*
G04 #@! TF.GenerationSoftware,Altium Limited,Altium Designer,24.1.2 (44)*
G04*
G04 Layer_Color=32896*
%FSTAX24Y24*%
%MOIN*%
G70*
G04*
G04 #@! TF.SameCoordinates,D42F5CEB-65A2-4495-9315-5EDE3D0C892D*
G04*
G04*
G04 #@! TF.FilePolarity,Positive*
G04*
G01*
G75*
%ADD10C,0.0060*%
%ADD11C,0.0100*%
%ADD15C,0.0079*%
%ADD88C,0.0118*%
%ADD89C,0.0060*%
%ADD90C,0.0050*%
G36*
X026775Y0048D02*
X025675D01*
Y005D01*
X026775D01*
Y0048D01*
D02*
G37*
G36*
X008525Y005D02*
X008975D01*
Y0048D01*
X008525D01*
Y00435D01*
X008325D01*
Y0048D01*
X007875D01*
Y005D01*
X008325D01*
Y00545D01*
X008525D01*
Y005D01*
D02*
G37*
D10*
X004264Y007549D02*
G03*
X004204Y007489I0J-00006D01*
G01*
X004916D02*
G03*
X004856Y007549I-00006J0D01*
G01*
X004204Y006063D02*
G03*
X004264Y006003I00006J0D01*
G01*
X004856D02*
G03*
X004916Y006063I0J00006D01*
G01*
X00913Y001658D02*
G03*
X00919Y001718I0J00006D01*
G01*
X00833D02*
G03*
X00839Y001658I00006J0D01*
G01*
X00919Y003616D02*
G03*
X00913Y003676I-00006J0D01*
G01*
X00839D02*
G03*
X00833Y003616I0J-00006D01*
G01*
X003806Y002063D02*
G03*
X003866Y002123I0J00006D01*
G01*
X003154D02*
G03*
X003214Y002063I00006J0D01*
G01*
X003866Y003549D02*
G03*
X003806Y003609I-00006J0D01*
G01*
X003214D02*
G03*
X003154Y003549I0J-00006D01*
G01*
X010124Y00642D02*
G03*
X010184Y00636I00006J0D01*
G01*
Y00722D02*
G03*
X010124Y00716I0J-00006D01*
G01*
X012082Y00636D02*
G03*
X012142Y00642I0J00006D01*
G01*
Y00716D02*
G03*
X012082Y00722I-00006J0D01*
G01*
X011667Y006112D02*
G03*
X011607Y006172I-00006J0D01*
G01*
Y005461D02*
G03*
X011667Y005521I0J00006D01*
G01*
X010181Y006172D02*
G03*
X010121Y006112I0J-00006D01*
G01*
Y005521D02*
G03*
X010181Y005461I00006J0D01*
G01*
X004264Y007549D02*
X004856D01*
X004916Y006934D02*
Y007489D01*
X004204Y006934D02*
Y007489D01*
X004264Y006003D02*
X004856D01*
X004916Y006063D02*
Y006618D01*
X004204Y006063D02*
Y006618D01*
X003083Y007619D02*
X003589D01*
X003083D02*
Y008341D01*
X003589D01*
X003964Y007619D02*
X00447D01*
Y008341D01*
X003964D02*
X00447D01*
X00921Y006341D02*
Y006847D01*
X009932D01*
Y006341D02*
Y006847D01*
X00921Y005461D02*
Y005967D01*
Y005461D02*
X009932D01*
Y005967D01*
X00839Y001658D02*
X00913D01*
X00833Y001718D02*
Y002302D01*
X00919Y001718D02*
Y002302D01*
X00839Y003676D02*
X00913D01*
X00833Y003032D02*
Y003616D01*
X00919Y003032D02*
Y003616D01*
X003214Y002063D02*
X003806D01*
X003154Y002123D02*
Y002678D01*
X003866Y002123D02*
Y002678D01*
X003214Y003609D02*
X003806D01*
X003154Y002994D02*
Y003549D01*
X003866Y002994D02*
Y003549D01*
X010184Y00722D02*
X010768D01*
X010184Y00636D02*
X010768D01*
X010124Y00642D02*
Y00716D01*
X011498Y00722D02*
X012082D01*
X011498Y00636D02*
X012082D01*
X012142Y00642D02*
Y00716D01*
X009731Y005001D02*
X010401D01*
X009731Y003799D02*
X010401D01*
X009731Y004212D02*
Y004588D01*
X007Y008441D02*
X007572D01*
Y008035D02*
Y008441D01*
X007Y007239D02*
X007572D01*
Y007645D01*
X007Y007661D02*
Y008019D01*
X005388Y006124D02*
X006088D01*
X005388Y007336D02*
X006088D01*
X008299Y006341D02*
Y006847D01*
X009021D01*
Y006341D02*
Y006847D01*
X008299Y005461D02*
Y005967D01*
Y005461D02*
X009021D01*
Y005967D01*
X011052Y005461D02*
X011607D01*
X011052Y006172D02*
X011607D01*
X011667Y005521D02*
Y006112D01*
X010181Y005461D02*
X010736D01*
X010181Y006172D02*
X010736D01*
X010121Y005521D02*
Y006112D01*
X005924Y008341D02*
X00643D01*
Y007619D02*
Y008341D01*
X005924Y007619D02*
X00643D01*
X005043Y008341D02*
X005549D01*
X005043Y007619D02*
Y008341D01*
Y007619D02*
X005549D01*
X007Y006991D02*
X007572D01*
Y006585D02*
Y006991D01*
X007Y005789D02*
X007572D01*
Y006195D01*
X007Y006211D02*
Y006569D01*
X007921Y002193D02*
Y002699D01*
X007199Y002193D02*
X007921D01*
X007199D02*
Y002699D01*
X007921Y003074D02*
Y00358D01*
X007199D02*
X007921D01*
X007199Y003074D02*
Y00358D01*
D11*
X00524Y003614D02*
G03*
X00587Y003614I000315J000148D01*
G01*
X006606Y003823D02*
G03*
X006606Y003823I-000067J0D01*
G01*
X001975Y000775D02*
Y009025D01*
X032675D01*
Y000775D02*
Y009025D01*
X001975Y000775D02*
X032675D01*
X011422Y00191D02*
Y002166D01*
X009822Y00191D02*
X011422D01*
X009822Y003254D02*
Y00351D01*
X011422D01*
Y003254D02*
Y00351D01*
X009822Y00191D02*
Y002166D01*
X004748Y001626D02*
Y003634D01*
Y001626D02*
X006362D01*
Y003634D01*
X004748Y003634D02*
X00524D01*
X00587D02*
X006362D01*
X006404Y008523D02*
Y008877D01*
X006227D01*
X006168Y008818D01*
Y0087D01*
X006227Y008641D01*
X006404D01*
X006286D02*
X006168Y008523D01*
X00605D02*
X005931D01*
X00599D01*
Y008877D01*
X00605Y008818D01*
X005754Y008523D02*
X005636D01*
X005695D01*
Y008877D01*
X005754Y008818D01*
D15*
X005845Y004197D02*
Y003902D01*
X005786Y003843D01*
X005668D01*
X005609Y003902D01*
Y004197D01*
X005314Y003843D02*
Y004197D01*
X005491Y00402D01*
X005255D01*
X006035Y005917D02*
Y005622D01*
X005976Y005563D01*
X005858D01*
X005799Y005622D01*
Y005917D01*
X005681Y005858D02*
X005622Y005917D01*
X005504D01*
X005445Y005858D01*
Y005799D01*
X005504Y00574D01*
X005563D01*
X005504D01*
X005445Y005681D01*
Y005622D01*
X005504Y005563D01*
X005622D01*
X005681Y005622D01*
X008013Y001623D02*
Y001977D01*
X007836D01*
X007777Y001918D01*
Y0018D01*
X007836Y001741D01*
X008013D01*
X007895D02*
X007777Y001623D01*
X007659D02*
X00754D01*
X0076D01*
Y001977D01*
X007659Y001918D01*
X007363Y001977D02*
X007127D01*
Y001918D01*
X007363Y001682D01*
Y001623D01*
X008163Y005143D02*
Y005497D01*
X007986D01*
X007927Y005438D01*
Y00532D01*
X007986Y005261D01*
X008163D01*
X008045D02*
X007927Y005143D01*
X007809D02*
X00769D01*
X00775D01*
Y005497D01*
X007809Y005438D01*
X007277Y005497D02*
X007395Y005438D01*
X007513Y00532D01*
Y005202D01*
X007454Y005143D01*
X007336D01*
X007277Y005202D01*
Y005261D01*
X007336Y00532D01*
X007513D01*
X009923Y007023D02*
Y007377D01*
X009746D01*
X009687Y007318D01*
Y0072D01*
X009746Y007141D01*
X009923D01*
X009805D02*
X009687Y007023D01*
X009569D02*
X00945D01*
X00951D01*
Y007377D01*
X009569Y007318D01*
X009273D02*
X009214Y007377D01*
X009096D01*
X009037Y007318D01*
Y007082D01*
X009096Y007023D01*
X009214D01*
X009273Y007082D01*
Y007318D01*
X004445Y008513D02*
Y008867D01*
X004268D01*
X004209Y008808D01*
Y00869D01*
X004268Y008631D01*
X004445D01*
X004327D02*
X004209Y008513D01*
X004091Y008572D02*
X004032Y008513D01*
X003914D01*
X003855Y008572D01*
Y008808D01*
X003914Y008867D01*
X004032D01*
X004091Y008808D01*
Y008749D01*
X004032Y00869D01*
X003855D01*
X008099Y008172D02*
Y008408D01*
X008158Y008467D01*
X008276D01*
X008335Y008408D01*
Y008172D01*
X008276Y008113D01*
X008158D01*
X008217Y008231D02*
X008099Y008113D01*
X008158D02*
X008099Y008172D01*
X007745Y008113D02*
X007981D01*
X007745Y008349D01*
Y008408D01*
X007804Y008467D01*
X007922D01*
X007981Y008408D01*
X00794Y006722D02*
Y006958D01*
X007999Y007017D01*
X008117D01*
X008176Y006958D01*
Y006722D01*
X008117Y006663D01*
X007999D01*
X008058Y006781D02*
X00794Y006663D01*
X007999D02*
X00794Y006722D01*
X007822Y006663D02*
X007704D01*
X007763D01*
Y007017D01*
X007822Y006958D01*
X011565Y004037D02*
Y003683D01*
X011329D01*
X010975D02*
X011211D01*
X010975Y003919D01*
Y003978D01*
X011034Y004037D01*
X011152D01*
X011211Y003978D01*
X001509Y008807D02*
X001627D01*
X001568D01*
Y008512D01*
X001627Y008453D01*
X001686D01*
X001745Y008512D01*
X001391Y008748D02*
X001332Y008807D01*
X001214D01*
X001155Y008748D01*
Y008689D01*
X001214Y00863D01*
X001273D01*
X001214D01*
X001155Y008571D01*
Y008512D01*
X001214Y008453D01*
X001332D01*
X001391Y008512D01*
X011704Y005067D02*
X011586D01*
X011645D01*
Y004713D01*
X011704D01*
X011586D01*
X011172Y005008D02*
X011231Y005067D01*
X01135D01*
X011409Y005008D01*
Y004772D01*
X01135Y004713D01*
X011231D01*
X011172Y004772D01*
X011054Y004713D02*
X010936D01*
X010995D01*
Y005067D01*
X011054Y005008D01*
X003625Y006317D02*
Y005963D01*
X003448D01*
X003389Y006022D01*
Y006258D01*
X003448Y006317D01*
X003625D01*
X003035D02*
X003153Y006258D01*
X003271Y00614D01*
Y006022D01*
X003212Y005963D01*
X003094D01*
X003035Y006022D01*
Y006081D01*
X003094Y00614D01*
X003271D01*
X012487Y006128D02*
X012546Y006187D01*
X012664D01*
X012723Y006128D01*
Y005892D01*
X012664Y005833D01*
X012546D01*
X012487Y005892D01*
X012369Y005833D02*
X01225D01*
X01231D01*
Y006187D01*
X012369Y006128D01*
X012073D02*
X012014Y006187D01*
X011896D01*
X011837Y006128D01*
Y006069D01*
X011896Y00601D01*
X011837Y005951D01*
Y005892D01*
X011896Y005833D01*
X012014D01*
X012073Y005892D01*
Y005951D01*
X012014Y00601D01*
X012073Y006069D01*
Y006128D01*
X012014Y00601D02*
X011896D01*
X008937Y004148D02*
X008996Y004207D01*
X009114D01*
X009173Y004148D01*
Y003912D01*
X009114Y003853D01*
X008996D01*
X008937Y003912D01*
X008819Y003853D02*
X0087D01*
X00876D01*
Y004207D01*
X008819Y004148D01*
X008523Y004207D02*
X008287D01*
Y004148D01*
X008523Y003912D01*
Y003853D01*
X003677Y001768D02*
X003736Y001827D01*
X003854D01*
X003913Y001768D01*
Y001532D01*
X003854Y001473D01*
X003736D01*
X003677Y001532D01*
X003559Y001473D02*
X00344D01*
X0035D01*
Y001827D01*
X003559Y001768D01*
X003027Y001827D02*
X003263D01*
Y00165D01*
X003145Y001709D01*
X003086D01*
X003027Y00165D01*
Y001532D01*
X003086Y001473D01*
X003204D01*
X003263Y001532D01*
X012487Y005588D02*
X012546Y005647D01*
X012664D01*
X012723Y005588D01*
Y005352D01*
X012664Y005293D01*
X012546D01*
X012487Y005352D01*
X012369Y005293D02*
X01225D01*
X01231D01*
Y005647D01*
X012369Y005588D01*
X012073D02*
X012014Y005647D01*
X011896D01*
X011837Y005588D01*
Y005529D01*
X011896Y00547D01*
X011955D01*
X011896D01*
X011837Y005411D01*
Y005352D01*
X011896Y005293D01*
X012014D01*
X012073Y005352D01*
X004687Y005738D02*
X004746Y005797D01*
X004864D01*
X004923Y005738D01*
Y005502D01*
X004864Y005443D01*
X004746D01*
X004687Y005502D01*
X004569Y005443D02*
X00445D01*
X00451D01*
Y005797D01*
X004569Y005738D01*
X004037Y005443D02*
X004273D01*
X004037Y005679D01*
Y005738D01*
X004096Y005797D01*
X004214D01*
X004273Y005738D01*
D88*
X010575Y00505D02*
G03*
X010575Y00505I-000059J0D01*
G01*
X006309Y007387D02*
G03*
X006309Y007387I-000059J0D01*
G01*
D89*
X003168Y006469D02*
Y006592D01*
X001457Y006469D02*
X003168D01*
X001457D02*
Y00661D01*
X003164Y007369D02*
Y007492D01*
X001453D02*
X003164D01*
X001453Y007362D02*
Y007492D01*
X002704Y006474D02*
Y007496D01*
D90*
X00249Y00683D02*
Y00698D01*
X00219Y00683D02*
X00249Y00698D01*
X00219Y00683D02*
Y00698D01*
X00249D02*
Y00713D01*
X00219D02*
X00249Y00698D01*
X00219D02*
Y00713D01*
X00209Y00698D02*
X00259D01*
M02*
