G04*
G04 #@! TF.GenerationSoftware,Altium Limited,Altium Designer,24.1.2 (44)*
G04*
G04 Layer_Color=2752767*
%FSTAX24Y24*%
%MOIN*%
G70*
G04*
G04 #@! TF.SameCoordinates,D42F5CEB-65A2-4495-9315-5EDE3D0C892D*
G04*
G04*
G04 #@! TF.FilePolarity,Positive*
G04*
G01*
G75*
%ADD90C,0.0050*%
%ADD91C,0.0067*%
D90*
X002993Y0048D02*
Y0047D01*
X003193D01*
Y0048D01*
X003293D01*
Y005D01*
X003193D01*
Y0051D01*
X002993D01*
Y005D01*
X002893D01*
Y0048D01*
X002993D01*
X031457D02*
Y0047D01*
X031657D01*
Y0048D01*
X031757D01*
Y005D01*
X031657D01*
Y0051D01*
X031457D01*
Y005D01*
X031357D01*
Y0048D01*
X031457D01*
X0062Y0047D02*
X0063Y0049D01*
X0062Y0051D01*
X0064Y005D01*
X0066Y0051D01*
X0065Y0049D01*
X0066Y0047D01*
X0064Y0048D01*
X0062Y0047D01*
X02805D02*
X02815Y0049D01*
X02805Y0051D01*
X02825Y005D01*
X02845Y0051D01*
X02835Y0049D01*
X02845Y0047D01*
X02825Y0048D01*
X02805Y0047D01*
X01178Y00047D02*
Y00087D01*
X01218D01*
Y00047D01*
X01178D01*
X01078D02*
Y00087D01*
X01118D01*
Y00047D01*
X01078D01*
X00978D02*
Y00087D01*
X01018D01*
Y00047D01*
X00978D01*
X00878D02*
Y00087D01*
X00918D01*
Y00047D01*
X00878D01*
X001133Y009214D02*
X001233Y009314D01*
X001332D01*
X001233Y009414D01*
X001332Y009514D01*
X001233D01*
X001133Y009614D01*
X001032Y009514D01*
X000932D01*
X001032Y009414D01*
X000932Y009314D01*
X001032D01*
X001133Y009214D01*
X002629D02*
X002729Y009314D01*
X002829D01*
X002729Y009414D01*
X002829Y009514D01*
X002729D01*
X002629Y009614D01*
X002529Y009514D01*
X002429D01*
X002529Y009414D01*
X002429Y009314D01*
X002529D01*
X002629Y009214D01*
X001132Y005812D02*
X001232Y005912D01*
X001332D01*
X001232Y006012D01*
X001332Y006112D01*
X001232D01*
X001132Y006212D01*
X001032Y006112D01*
X000932D01*
X001032Y006012D01*
X000932Y005912D01*
X001032D01*
X001132Y005812D01*
X002629D02*
X002729Y005912D01*
X002829D01*
X002729Y006012D01*
X002829Y006112D01*
X002729D01*
X002629Y006212D01*
X002529Y006112D01*
X002429D01*
X002529Y006012D01*
X002429Y005912D01*
X002529D01*
X002629Y005812D01*
X03102Y00857D02*
X03082Y00897D01*
X03122D01*
X03102Y00857D01*
Y00757D02*
X03082Y00797D01*
X03122D01*
X03102Y00757D01*
X02802D02*
X02782Y00797D01*
X02822D01*
X02802Y00757D01*
Y00857D02*
X02782Y00897D01*
X02822D01*
X02802Y00857D01*
X00097Y00427D02*
X00077Y00467D01*
X00117D01*
X00097Y00427D01*
Y00127D02*
X00077Y00167D01*
X00117D01*
X00097Y00127D01*
X03261Y0032D02*
Y0036D01*
X03301D01*
Y0032D01*
X03261D01*
Y0042D02*
Y0046D01*
X03301D01*
Y0042D01*
X03261D01*
Y0052D02*
Y0056D01*
X03301D01*
Y0052D01*
X03261D01*
Y0062D02*
Y0066D01*
X03301D01*
Y0062D01*
X03261D01*
X01154Y00521D02*
X01174Y00541D01*
X01194Y00521D01*
X01174Y00501D01*
X01154Y00521D01*
X01375Y00462D02*
X01395Y00482D01*
X01415Y00462D01*
X01395Y00442D01*
X01375Y00462D01*
X016737Y00288D02*
X016937Y00308D01*
X017137Y00288D01*
X016937Y00268D01*
X016737Y00288D01*
X0177Y00294D02*
X0179Y00314D01*
X0181Y00294D01*
X0179Y00274D01*
X0177Y00294D01*
X005143Y00798D02*
X005343Y00818D01*
X005543Y00798D01*
X005343Y00778D01*
X005143Y00798D01*
X0326Y0088D02*
X0328Y009D01*
X033Y0088D01*
X0328Y0086D01*
X0326Y0088D01*
Y0072D02*
X0328Y0074D01*
X033Y0072D01*
X0328Y007D01*
X0326Y0072D01*
Y0024D02*
X0328Y0026D01*
X033Y0024D01*
X0328Y0022D01*
X0326Y0024D01*
Y0008D02*
X0328Y001D01*
X033Y0008D01*
X0328Y0006D01*
X0326Y0008D01*
X0322Y008D02*
X0324Y0082D01*
X0326Y008D01*
X0324Y0078D01*
X0322Y008D01*
Y0048D02*
X0324Y005D01*
X0326Y0048D01*
X0324Y0046D01*
X0322Y0048D01*
X0318Y004D02*
X032Y0042D01*
X0322Y004D01*
X032Y0038D01*
X0318Y004D01*
Y0024D02*
X032Y0026D01*
X0322Y0024D01*
X032Y0022D01*
X0318Y0024D01*
X0322Y0016D02*
X0324Y0018D01*
X0326Y0016D01*
X0324Y0014D01*
X0322Y0016D01*
X0318Y0008D02*
X032Y001D01*
X0322Y0008D01*
X032Y0006D01*
X0318Y0008D01*
X031Y0072D02*
X0312Y0074D01*
X0314Y0072D01*
X0312Y007D01*
X031Y0072D01*
Y004D02*
X0312Y0042D01*
X0314Y004D01*
X0312Y0038D01*
X031Y004D01*
X0314Y0032D02*
X0316Y0034D01*
X0318Y0032D01*
X0316Y003D01*
X0314Y0032D01*
Y0016D02*
X0316Y0018D01*
X0318Y0016D01*
X0316Y0014D01*
X0314Y0016D01*
X031Y0008D02*
X0312Y001D01*
X0314Y0008D01*
X0312Y0006D01*
X031Y0008D01*
X0302Y0088D02*
X0304Y009D01*
X0306Y0088D01*
X0304Y0086D01*
X0302Y0088D01*
Y0072D02*
X0304Y0074D01*
X0306Y0072D01*
X0304Y007D01*
X0302Y0072D01*
X0306Y0064D02*
X0308Y0066D01*
X031Y0064D01*
X0308Y0062D01*
X0306Y0064D01*
X0302Y0056D02*
X0304Y0058D01*
X0306Y0056D01*
X0304Y0054D01*
X0302Y0056D01*
Y004D02*
X0304Y0042D01*
X0306Y004D01*
X0304Y0038D01*
X0302Y004D01*
X0306Y0032D02*
X0308Y0034D01*
X031Y0032D01*
X0308Y003D01*
X0306Y0032D01*
Y0016D02*
X0308Y0018D01*
X031Y0016D01*
X0308Y0014D01*
X0306Y0016D01*
X0302Y0008D02*
X0304Y001D01*
X0306Y0008D01*
X0304Y0006D01*
X0302Y0008D01*
X0294Y0088D02*
X0296Y009D01*
X0298Y0088D01*
X0296Y0086D01*
X0294Y0088D01*
X0298Y008D02*
X03Y0082D01*
X0302Y008D01*
X03Y0078D01*
X0298Y008D01*
X0294Y0072D02*
X0296Y0074D01*
X0298Y0072D01*
X0296Y007D01*
X0294Y0072D01*
X0298Y0064D02*
X03Y0066D01*
X0302Y0064D01*
X03Y0062D01*
X0298Y0064D01*
Y0016D02*
X03Y0018D01*
X0302Y0016D01*
X03Y0014D01*
X0298Y0016D01*
X0294Y0008D02*
X0296Y001D01*
X0298Y0008D01*
X0296Y0006D01*
X0294Y0008D01*
X0286Y0088D02*
X0288Y009D01*
X029Y0088D01*
X0288Y0086D01*
X0286Y0088D01*
X029Y008D02*
X0292Y0082D01*
X0294Y008D01*
X0292Y0078D01*
X029Y008D01*
X0286Y0072D02*
X0288Y0074D01*
X029Y0072D01*
X0288Y007D01*
X0286Y0072D01*
X029Y0064D02*
X0292Y0066D01*
X0294Y0064D01*
X0292Y0062D01*
X029Y0064D01*
X0286Y0056D02*
X0288Y0058D01*
X029Y0056D01*
X0288Y0054D01*
X0286Y0056D01*
Y004D02*
X0288Y0042D01*
X029Y004D01*
X0288Y0038D01*
X0286Y004D01*
X029Y0016D02*
X0292Y0018D01*
X0294Y0016D01*
X0292Y0014D01*
X029Y0016D01*
X0286Y0008D02*
X0288Y001D01*
X029Y0008D01*
X0288Y0006D01*
X0286Y0008D01*
X0278Y004D02*
X028Y0042D01*
X0282Y004D01*
X028Y0038D01*
X0278Y004D01*
X0282Y0032D02*
X0284Y0034D01*
X0286Y0032D01*
X0284Y003D01*
X0282Y0032D01*
Y0016D02*
X0284Y0018D01*
X0286Y0016D01*
X0284Y0014D01*
X0282Y0016D01*
X0278Y0008D02*
X028Y001D01*
X0282Y0008D01*
X028Y0006D01*
X0278Y0008D01*
X027Y0072D02*
X0272Y0074D01*
X0274Y0072D01*
X0272Y007D01*
X027Y0072D01*
X0274Y0064D02*
X0276Y0066D01*
X0278Y0064D01*
X0276Y0062D01*
X0274Y0064D01*
Y0032D02*
X0276Y0034D01*
X0278Y0032D01*
X0276Y003D01*
X0274Y0032D01*
X0262Y0072D02*
X0264Y0074D01*
X0266Y0072D01*
X0264Y007D01*
X0262Y0072D01*
X0254D02*
X0256Y0074D01*
X0258Y0072D01*
X0256Y007D01*
X0254Y0072D01*
X0258Y0064D02*
X026Y0066D01*
X0262Y0064D01*
X026Y0062D01*
X0258Y0064D01*
X0254Y0056D02*
X0256Y0058D01*
X0258Y0056D01*
X0256Y0054D01*
X0254Y0056D01*
X0258Y0048D02*
X026Y005D01*
X0262Y0048D01*
X026Y0046D01*
X0258Y0048D01*
X0254Y0024D02*
X0256Y0026D01*
X0258Y0024D01*
X0256Y0022D01*
X0254Y0024D01*
Y0008D02*
X0256Y001D01*
X0258Y0008D01*
X0256Y0006D01*
X0254Y0008D01*
X0246Y0072D02*
X0248Y0074D01*
X025Y0072D01*
X0248Y007D01*
X0246Y0072D01*
X025Y0064D02*
X0252Y0066D01*
X0254Y0064D01*
X0252Y0062D01*
X025Y0064D01*
X0246Y0056D02*
X0248Y0058D01*
X025Y0056D01*
X0248Y0054D01*
X0246Y0056D01*
X025Y0048D02*
X0252Y005D01*
X0254Y0048D01*
X0252Y0046D01*
X025Y0048D01*
Y0032D02*
X0252Y0034D01*
X0254Y0032D01*
X0252Y003D01*
X025Y0032D01*
X0246Y0024D02*
X0248Y0026D01*
X025Y0024D01*
X0248Y0022D01*
X0246Y0024D01*
Y0008D02*
X0248Y001D01*
X025Y0008D01*
X0248Y0006D01*
X0246Y0008D01*
X0242Y008D02*
X0244Y0082D01*
X0246Y008D01*
X0244Y0078D01*
X0242Y008D01*
Y0064D02*
X0244Y0066D01*
X0246Y0064D01*
X0244Y0062D01*
X0242Y0064D01*
Y0048D02*
X0244Y005D01*
X0246Y0048D01*
X0244Y0046D01*
X0242Y0048D01*
Y0032D02*
X0244Y0034D01*
X0246Y0032D01*
X0244Y003D01*
X0242Y0032D01*
X0238Y0024D02*
X024Y0026D01*
X0242Y0024D01*
X024Y0022D01*
X0238Y0024D01*
Y0008D02*
X024Y001D01*
X0242Y0008D01*
X024Y0006D01*
X0238Y0008D01*
X0234Y008D02*
X0236Y0082D01*
X0238Y008D01*
X0236Y0078D01*
X0234Y008D01*
X023Y0072D02*
X0232Y0074D01*
X0234Y0072D01*
X0232Y007D01*
X023Y0072D01*
X0234Y0064D02*
X0236Y0066D01*
X0238Y0064D01*
X0236Y0062D01*
X0234Y0064D01*
X023Y0056D02*
X0232Y0058D01*
X0234Y0056D01*
X0232Y0054D01*
X023Y0056D01*
X0234Y0048D02*
X0236Y005D01*
X0238Y0048D01*
X0236Y0046D01*
X0234Y0048D01*
X023Y0024D02*
X0232Y0026D01*
X0234Y0024D01*
X0232Y0022D01*
X023Y0024D01*
Y0008D02*
X0232Y001D01*
X0234Y0008D01*
X0232Y0006D01*
X023Y0008D01*
X0226Y008D02*
X0228Y0082D01*
X023Y008D01*
X0228Y0078D01*
X0226Y008D01*
X0222Y0072D02*
X0224Y0074D01*
X0226Y0072D01*
X0224Y007D01*
X0222Y0072D01*
X0226Y0064D02*
X0228Y0066D01*
X023Y0064D01*
X0228Y0062D01*
X0226Y0064D01*
X0222Y0056D02*
X0224Y0058D01*
X0226Y0056D01*
X0224Y0054D01*
X0222Y0056D01*
X0226Y0048D02*
X0228Y005D01*
X023Y0048D01*
X0228Y0046D01*
X0226Y0048D01*
X0222Y0008D02*
X0224Y001D01*
X0226Y0008D01*
X0224Y0006D01*
X0222Y0008D01*
X0218Y008D02*
X022Y0082D01*
X0222Y008D01*
X022Y0078D01*
X0218Y008D01*
X0214Y0072D02*
X0216Y0074D01*
X0218Y0072D01*
X0216Y007D01*
X0214Y0072D01*
X0218Y0064D02*
X022Y0066D01*
X0222Y0064D01*
X022Y0062D01*
X0218Y0064D01*
X0214Y0056D02*
X0216Y0058D01*
X0218Y0056D01*
X0216Y0054D01*
X0214Y0056D01*
X0218Y0048D02*
X022Y005D01*
X0222Y0048D01*
X022Y0046D01*
X0218Y0048D01*
X0214Y0008D02*
X0216Y001D01*
X0218Y0008D01*
X0216Y0006D01*
X0214Y0008D01*
X021Y008D02*
X0212Y0082D01*
X0214Y008D01*
X0212Y0078D01*
X021Y008D01*
X0206Y0072D02*
X0208Y0074D01*
X021Y0072D01*
X0208Y007D01*
X0206Y0072D01*
X0202Y008D02*
X0204Y0082D01*
X0206Y008D01*
X0204Y0078D01*
X0202Y008D01*
X0194D02*
X0196Y0082D01*
X0198Y008D01*
X0196Y0078D01*
X0194Y008D01*
X019Y0008D02*
X0192Y001D01*
X0194Y0008D01*
X0192Y0006D01*
X019Y0008D01*
X0182Y0056D02*
X0184Y0058D01*
X0186Y0056D01*
X0184Y0054D01*
X0182Y0056D01*
Y004D02*
X0184Y0042D01*
X0186Y004D01*
X0184Y0038D01*
X0182Y004D01*
Y0008D02*
X0184Y001D01*
X0186Y0008D01*
X0184Y0006D01*
X0182Y0008D01*
X015Y0056D02*
X0152Y0058D01*
X0154Y0056D01*
X0152Y0054D01*
X015Y0056D01*
Y0008D02*
X0152Y001D01*
X0154Y0008D01*
X0152Y0006D01*
X015Y0008D01*
X0146Y0064D02*
X0148Y0066D01*
X015Y0064D01*
X0148Y0062D01*
X0146Y0064D01*
X0142Y0008D02*
X0144Y001D01*
X0146Y0008D01*
X0144Y0006D01*
X0142Y0008D01*
X0134Y0072D02*
X0136Y0074D01*
X0138Y0072D01*
X0136Y007D01*
X0134Y0072D01*
X0138Y0064D02*
X014Y0066D01*
X0142Y0064D01*
X014Y0062D01*
X0138Y0064D01*
X0134Y0008D02*
X0136Y001D01*
X0138Y0008D01*
X0136Y0006D01*
X0134Y0008D01*
X0126Y0088D02*
X0128Y009D01*
X013Y0088D01*
X0128Y0086D01*
X0126Y0088D01*
X013Y008D02*
X0132Y0082D01*
X0134Y008D01*
X0132Y0078D01*
X013Y008D01*
X0126Y0072D02*
X0128Y0074D01*
X013Y0072D01*
X0128Y007D01*
X0126Y0072D01*
Y0024D02*
X0128Y0026D01*
X013Y0024D01*
X0128Y0022D01*
X0126Y0024D01*
Y0008D02*
X0128Y001D01*
X013Y0008D01*
X0128Y0006D01*
X0126Y0008D01*
X0118Y0088D02*
X012Y009D01*
X0122Y0088D01*
X012Y0086D01*
X0118Y0088D01*
X0102D02*
X0104Y009D01*
X0106Y0088D01*
X0104Y0086D01*
X0102Y0088D01*
X0106Y008D02*
X0108Y0082D01*
X011Y008D01*
X0108Y0078D01*
X0106Y008D01*
X0094Y0088D02*
X0096Y009D01*
X0098Y0088D01*
X0096Y0086D01*
X0094Y0088D01*
X0098Y008D02*
X01Y0082D01*
X0102Y008D01*
X01Y0078D01*
X0098Y008D01*
X0094Y0072D02*
X0096Y0074D01*
X0098Y0072D01*
X0096Y007D01*
X0094Y0072D01*
X0086Y0088D02*
X0088Y009D01*
X009Y0088D01*
X0088Y0086D01*
X0086Y0088D01*
X009Y008D02*
X0092Y0082D01*
X0094Y008D01*
X0092Y0078D01*
X009Y008D01*
X0086Y0072D02*
X0088Y0074D01*
X009Y0072D01*
X0088Y007D01*
X0086Y0072D01*
X009Y0016D02*
X0092Y0018D01*
X0094Y0016D01*
X0092Y0014D01*
X009Y0016D01*
X0082Y008D02*
X0084Y0082D01*
X0086Y008D01*
X0084Y0078D01*
X0082Y008D01*
X0078Y0056D02*
X008Y0058D01*
X0082Y0056D01*
X008Y0054D01*
X0078Y0056D01*
X0082Y0048D02*
X0084Y005D01*
X0086Y0048D01*
X0084Y0046D01*
X0082Y0048D01*
X007Y0056D02*
X0072Y0058D01*
X0074Y0056D01*
X0072Y0054D01*
X007Y0056D01*
X0074Y0048D02*
X0076Y005D01*
X0078Y0048D01*
X0076Y0046D01*
X0074Y0048D01*
X0054Y0008D02*
X0056Y001D01*
X0058Y0008D01*
X0056Y0006D01*
X0054Y0008D01*
X0046Y0056D02*
X0048Y0058D01*
X005Y0056D01*
X0048Y0054D01*
X0046Y0056D01*
Y0008D02*
X0048Y001D01*
X005Y0008D01*
X0048Y0006D01*
X0046Y0008D01*
X0018Y0064D02*
X002Y0066D01*
X0022Y0064D01*
X002Y0062D01*
X0018Y0064D01*
X0014Y0024D02*
X0016Y0026D01*
X0018Y0024D01*
X0016Y0022D01*
X0014Y0024D01*
X0006Y0088D02*
X0008Y009D01*
X001Y0088D01*
X0008Y0086D01*
X0006Y0088D01*
X001Y0064D02*
X0012Y0066D01*
X0014Y0064D01*
X0012Y0062D01*
X001Y0064D01*
X01031Y0074D02*
X01051Y0076D01*
X01071Y0074D01*
X01051Y0072D01*
X01031Y0074D01*
X00774Y00873D02*
X00794Y00893D01*
X00814Y00873D01*
X00794Y00853D01*
X00774Y00873D01*
X00548Y00565D02*
X00568Y00585D01*
X00588Y00565D01*
X00568Y00545D01*
X00548Y00565D01*
X0048Y00145D02*
X005Y00165D01*
X0052Y00145D01*
X005Y00125D01*
X0048Y00145D01*
X00378Y00287D02*
X00398Y00307D01*
X00418Y00287D01*
X00398Y00267D01*
X00378Y00287D01*
Y00239D02*
X00398Y00259D01*
X00418Y00239D01*
X00398Y00219D01*
X00378Y00239D01*
X01171Y00579D02*
X01191Y00599D01*
X01211Y00579D01*
X01191Y00559D01*
X01171Y00579D01*
X01255Y00554D02*
X01275Y00574D01*
X01295Y00554D01*
X01275Y00534D01*
X01255Y00554D01*
Y00599D02*
X01275Y00619D01*
X01295Y00599D01*
X01275Y00579D01*
X01255Y00599D01*
X01192Y00554D02*
X01212Y00574D01*
X01232Y00554D01*
X01212Y00534D01*
X01192Y00554D01*
X03151Y0071D02*
X03171Y0073D01*
X03191Y0071D01*
X03171Y0069D01*
X03151Y0071D01*
X03178Y00685D02*
X03198Y00705D01*
X03218Y00685D01*
X03198Y00665D01*
X03178Y00685D01*
X01435Y00518D02*
X01455Y00538D01*
X01475Y00518D01*
X01455Y00498D01*
X01435Y00518D01*
X01466Y00495D02*
X01486Y00515D01*
X01506Y00495D01*
X01486Y00475D01*
X01466Y00495D01*
X02912Y00369D02*
X02932Y00389D01*
X02952Y00369D01*
X02932Y00349D01*
X02912Y00369D01*
X0239Y00336D02*
X0241Y00356D01*
X0243Y00336D01*
X0241Y00316D01*
X0239Y00336D01*
X01547Y00252D02*
X01567Y00272D01*
X01587Y00252D01*
X01567Y00232D01*
X01547Y00252D01*
X01516Y00662D02*
X01536Y00682D01*
X01556Y00662D01*
X01536Y00642D01*
X01516Y00662D01*
X01943Y00297D02*
X01963Y00317D01*
X01983Y00297D01*
X01963Y00277D01*
X01943Y00297D01*
X01655Y00397D02*
X01675Y00417D01*
X01695Y00397D01*
X01675Y00377D01*
X01655Y00397D01*
X01567Y00574D02*
X01587Y00594D01*
X01607Y00574D01*
X01587Y00554D01*
X01567Y00574D01*
X01543Y00817D02*
X01563Y00837D01*
X01583Y00817D01*
X01563Y00797D01*
X01543Y00817D01*
X0157Y00837D02*
X0159Y00857D01*
X0161Y00837D01*
X0159Y00817D01*
X0157Y00837D01*
X01458Y00791D02*
X01478Y00811D01*
X01498Y00791D01*
X01478Y00771D01*
X01458Y00791D01*
X01516Y00837D02*
X01536Y00857D01*
X01556Y00837D01*
X01536Y00817D01*
X01516Y00837D01*
X02159Y00399D02*
X02179Y00419D01*
X02199Y00399D01*
X02179Y00379D01*
X02159Y00399D01*
X01943Y00241D02*
X01963Y00261D01*
X01983Y00241D01*
X01963Y00221D01*
X01943Y00241D01*
X02547Y0032D02*
X02567Y0034D01*
X02587Y0032D01*
X02567Y003D01*
X02547Y0032D01*
X02513Y00359D02*
X02533Y00379D01*
X02553Y00359D01*
X02533Y00339D01*
X02513Y00359D01*
X01528Y00625D02*
X01548Y00645D01*
X01568Y00625D01*
X01548Y00605D01*
X01528Y00625D01*
X01595Y00632D02*
X01615Y00652D01*
X01635Y00632D01*
X01615Y00612D01*
X01595Y00632D01*
X01692Y00724D02*
X01712Y00744D01*
X01732Y00724D01*
X01712Y00704D01*
X01692Y00724D01*
X01713Y00637D02*
X01733Y00657D01*
X01753Y00637D01*
X01733Y00617D01*
X01713Y00637D01*
X016324Y003414D02*
X016524Y003614D01*
X016724Y003414D01*
X016524Y003214D01*
X016324Y003414D01*
X01403Y00495D02*
X01423Y00515D01*
X01443Y00495D01*
X01423Y00475D01*
X01403Y00495D01*
X01227Y00411D02*
X01247Y00431D01*
X01267Y00411D01*
X01247Y00391D01*
X01227Y00411D01*
X01183D02*
X01203Y00431D01*
X01223Y00411D01*
X01203Y00391D01*
X01183Y00411D01*
D91*
X008Y00066D02*
G03*
X008Y00066I-0002J0D01*
G01*
X007D02*
G03*
X007Y00066I-0002J0D01*
G01*
M02*
