G04*
G04 #@! TF.GenerationSoftware,Altium Limited,Altium Designer,24.1.2 (44)*
G04*
G04 Layer_Color=255*
%FSTAX24Y24*%
%MOIN*%
G70*
G04*
G04 #@! TF.SameCoordinates,D42F5CEB-65A2-4495-9315-5EDE3D0C892D*
G04*
G04*
G04 #@! TF.FilePolarity,Positive*
G04*
G01*
G75*
%ADD43C,0.0630*%
%ADD48R,0.0446X0.0542*%
%ADD49R,0.0555X0.0531*%
%ADD53R,0.0531X0.0555*%
%ADD54R,0.0542X0.0446*%
%ADD56C,0.1220*%
%ADD57C,0.1181*%
%ADD58C,0.0620*%
%ADD59R,0.0620X0.0620*%
%ADD60C,0.0591*%
%ADD61O,0.0669X0.0433*%
%ADD62C,0.0600*%
%ADD63R,0.0620X0.0620*%
%ADD66R,0.0680X0.0585*%
%ADD67R,0.0585X0.0680*%
%ADD68R,0.0806X0.0638*%
%ADD69R,0.0456X0.0193*%
%ADD70R,0.0463X0.0193*%
%ADD71R,0.0591X0.0906*%
%ADD72R,0.0492X0.0276*%
%ADD73R,0.0422X0.0209*%
%ADD74R,0.0472X0.0236*%
%ADD75R,0.0945X0.1299*%
D43*
X03102Y00877D02*
D03*
Y00777D02*
D03*
X02802D02*
D03*
Y00877D02*
D03*
D48*
X003383Y00798D02*
D03*
X00417D02*
D03*
X00613D02*
D03*
X005343D02*
D03*
D49*
X03049Y00488D02*
D03*
X00053Y00698D02*
D03*
X011287Y005816D02*
D03*
X0105D02*
D03*
D53*
X00456Y00717D02*
D03*
Y006383D02*
D03*
X00351Y002443D02*
D03*
Y00323D02*
D03*
D54*
X009571Y006548D02*
D03*
Y00576D02*
D03*
X00866Y006548D02*
D03*
Y00576D02*
D03*
X00756Y002493D02*
D03*
Y00328D02*
D03*
D56*
X003093Y0049D02*
D03*
X031557D02*
D03*
D57*
X0064D02*
D03*
X02825D02*
D03*
D58*
X01198Y00067D02*
D03*
X01098D02*
D03*
X00998D02*
D03*
X03281Y0044D02*
D03*
Y0054D02*
D03*
Y0064D02*
D03*
D59*
X00898Y00067D02*
D03*
D60*
X0078Y00066D02*
D03*
X0068D02*
D03*
D61*
X001133Y009414D02*
D03*
X002629D02*
D03*
X001132Y006012D02*
D03*
X002629D02*
D03*
D62*
X00097Y00447D02*
D03*
Y00147D02*
D03*
D63*
X03281Y0034D02*
D03*
D66*
X00876Y00204D02*
D03*
Y003294D02*
D03*
D67*
X010506Y00679D02*
D03*
X01176D02*
D03*
D68*
X003214Y006973D02*
D03*
X0014Y00698D02*
D03*
D69*
X01052Y004774D02*
D03*
Y0044D02*
D03*
Y004026D02*
D03*
D70*
X009612D02*
D03*
Y004774D02*
D03*
D71*
X009893Y00271D02*
D03*
X01135D02*
D03*
D72*
X00768Y00784D02*
D03*
X006893Y008214D02*
D03*
Y007466D02*
D03*
X00768Y00639D02*
D03*
X006893Y006764D02*
D03*
Y006016D02*
D03*
D73*
X00619Y007104D02*
D03*
Y00673D02*
D03*
Y006356D02*
D03*
X005285D02*
D03*
Y00673D02*
D03*
Y007104D02*
D03*
D74*
X0067Y00338D02*
D03*
Y00288D02*
D03*
Y00238D02*
D03*
Y00188D02*
D03*
X00441D02*
D03*
Y00238D02*
D03*
Y00288D02*
D03*
Y00338D02*
D03*
D75*
X005555Y00263D02*
D03*
M02*
