G04*
G04 #@! TF.GenerationSoftware,Altium Limited,Altium Designer,24.1.2 (44)*
G04*
G04 Layer_Color=8388736*
%FSTAX24Y24*%
%MOIN*%
G70*
G04*
G04 #@! TF.SameCoordinates,D42F5CEB-65A2-4495-9315-5EDE3D0C892D*
G04*
G04*
G04 #@! TF.FilePolarity,Negative*
G04*
G01*
G75*
%ADD25R,0.0486X0.0582*%
%ADD26R,0.0473X0.1142*%
%ADD27R,0.0595X0.0572*%
%ADD28R,0.0532X0.0473*%
%ADD29R,0.0839X0.0315*%
%ADD30R,0.0839X0.0339*%
%ADD31R,0.0839X0.0354*%
%ADD32R,0.0827X0.0631*%
%ADD33O,0.0630X0.0146*%
%ADD34O,0.0146X0.0630*%
%ADD35R,0.0906X0.0591*%
%ADD36R,0.0985X0.0788*%
%ADD37R,0.0572X0.0595*%
%ADD38R,0.0582X0.0486*%
%ADD39C,0.1260*%
%ADD40C,0.1240*%
%ADD41C,0.0660*%
%ADD42R,0.0660X0.0660*%
%ADD43C,0.0630*%
%ADD44O,0.0709X0.0472*%
%ADD45C,0.0670*%
%ADD46C,0.0639*%
%ADD47R,0.0660X0.0660*%
D25*
X00349Y00379D02*
D03*
X002703D02*
D03*
X02869Y00241D02*
D03*
X029451D02*
D03*
X0147Y00928D02*
D03*
X013913D02*
D03*
X002703Y00288D02*
D03*
X00349D02*
D03*
X01098Y00313D02*
D03*
X011767D02*
D03*
X01098Y00222D02*
D03*
X011767D02*
D03*
D26*
X00704Y00829D02*
D03*
Y006983D02*
D03*
X01136Y008287D02*
D03*
Y00698D02*
D03*
X02995Y003683D02*
D03*
Y00499D02*
D03*
D27*
X0039Y00686D02*
D03*
X004687D02*
D03*
X017913Y00724D02*
D03*
X0187D02*
D03*
X017913Y00635D02*
D03*
X0187D02*
D03*
X01399Y00839D02*
D03*
X014777D02*
D03*
X012207Y00476D02*
D03*
X01142D02*
D03*
X016937Y00288D02*
D03*
X01615D02*
D03*
X031247Y00241D02*
D03*
X03046D02*
D03*
D28*
X01609Y00065D02*
D03*
Y00145D02*
D03*
X01703Y00065D02*
D03*
Y00145D02*
D03*
X00275Y00065D02*
D03*
Y00145D02*
D03*
X0037Y00065D02*
D03*
Y00145D02*
D03*
X01797Y00065D02*
D03*
Y00145D02*
D03*
D29*
X00266Y007516D02*
D03*
X00266Y00791D02*
D03*
D30*
Y007115D02*
D03*
X00266Y008312D02*
D03*
D31*
X00266Y006631D02*
D03*
X00266Y008796D02*
D03*
D32*
X020348Y00862D02*
D03*
X01712D02*
D03*
D33*
X016745Y004554D02*
D03*
Y004751D02*
D03*
Y004948D02*
D03*
Y005145D02*
D03*
Y005342D02*
D03*
Y005538D02*
D03*
Y005735D02*
D03*
Y005932D02*
D03*
Y006129D02*
D03*
Y006326D02*
D03*
Y006523D02*
D03*
Y00672D02*
D03*
X013398D02*
D03*
Y006523D02*
D03*
Y006326D02*
D03*
Y006129D02*
D03*
Y005932D02*
D03*
Y005735D02*
D03*
Y005538D02*
D03*
Y005342D02*
D03*
Y005145D02*
D03*
Y004948D02*
D03*
Y004751D02*
D03*
Y004554D02*
D03*
D34*
X016154Y00731D02*
D03*
X015957Y00731D02*
D03*
X015761Y00731D02*
D03*
X015564Y00731D02*
D03*
X015367Y00731D02*
D03*
X01517Y00731D02*
D03*
X014973Y00731D02*
D03*
X014776Y00731D02*
D03*
X014579Y00731D02*
D03*
X014383Y00731D02*
D03*
X014186Y00731D02*
D03*
X013989Y00731D02*
D03*
X013989Y003964D02*
D03*
X014186Y003964D02*
D03*
X014383Y003964D02*
D03*
X014579Y003964D02*
D03*
X014776Y003964D02*
D03*
X014973Y003964D02*
D03*
X01517Y003964D02*
D03*
X015367Y003964D02*
D03*
X015564Y003964D02*
D03*
X015761Y003964D02*
D03*
X015957Y003964D02*
D03*
X016154Y003964D02*
D03*
D35*
X020601Y000838D02*
D03*
Y001626D02*
D03*
Y002413D02*
D03*
Y0032D02*
D03*
Y003987D02*
D03*
Y004775D02*
D03*
Y005562D02*
D03*
Y00635D02*
D03*
X0269D02*
D03*
Y005562D02*
D03*
Y004775D02*
D03*
Y003987D02*
D03*
Y0032D02*
D03*
Y002413D02*
D03*
Y001625D02*
D03*
Y000838D02*
D03*
D36*
X0192Y0053D02*
D03*
Y003686D02*
D03*
D37*
X01789Y00544D02*
D03*
Y004653D02*
D03*
X01003Y00228D02*
D03*
Y003067D02*
D03*
X0179Y00294D02*
D03*
Y003727D02*
D03*
D38*
X00476Y00865D02*
D03*
Y007863D02*
D03*
X00384Y00865D02*
D03*
Y007863D02*
D03*
X02656Y00865D02*
D03*
Y007863D02*
D03*
X02564Y00865D02*
D03*
Y007863D02*
D03*
X015199Y00294D02*
D03*
Y002153D02*
D03*
X014245Y00215D02*
D03*
Y002937D02*
D03*
X01329Y002153D02*
D03*
Y00294D02*
D03*
D39*
X003093Y0049D02*
D03*
X031557D02*
D03*
D40*
X0064D02*
D03*
X02825D02*
D03*
D41*
X01198Y00067D02*
D03*
X01098D02*
D03*
X00998D02*
D03*
X03281Y0044D02*
D03*
Y0054D02*
D03*
Y0064D02*
D03*
D42*
X00898Y00067D02*
D03*
D43*
X0078Y00066D02*
D03*
X0068D02*
D03*
D44*
X001133Y009414D02*
D03*
X002629D02*
D03*
X001132Y006012D02*
D03*
X002629D02*
D03*
D45*
X03102Y00877D02*
D03*
Y00777D02*
D03*
X02802D02*
D03*
Y00877D02*
D03*
D46*
X00097Y00447D02*
D03*
Y00147D02*
D03*
D47*
X03281Y0034D02*
D03*
M02*
